<svg width="338" height="330" viewBox="0 0 338 330" fill="none" xmlns="http://www.w3.org/2000/svg">
<g clip-path="url(#clip0_167_405)">
<path d="M166.265 48.6259H162.585C162.255 46.8321 161.785 45.0876 161.188 43.4031L164.373 41.5643L158.146 30.7782L154.954 32.6212C153.782 31.2499 152.505 29.9724 151.133 28.8009L152.976 25.6088L142.19 19.3815L140.351 22.5664C138.667 21.969 136.922 21.4992 135.128 21.1695V17.4893H122.674V21.1693C120.88 21.4988 119.136 21.9688 117.451 22.5663L115.612 19.3814L104.826 25.6088L106.669 28.8009C105.298 29.9722 104.02 31.2499 102.849 32.6212L99.6569 30.7782L93.4297 41.5643L96.6146 43.4031C96.0173 45.0876 95.5473 46.8319 95.2176 48.6259H91.5376V61.0806H95.2178C95.5473 62.8746 96.0173 64.619 96.6148 66.3035L93.4298 68.1423L99.6571 78.9284L102.849 77.0854C104.021 78.4567 105.298 79.7342 106.669 80.9057L104.827 84.0978L115.612 90.325L117.451 87.1401C119.136 87.7376 120.88 88.2074 122.674 88.5371V92.2173H135.129V88.5371C136.923 88.2076 138.667 87.7376 140.352 87.1401L142.191 90.325L152.977 84.0978L151.134 80.9057C152.505 79.7342 153.783 78.4567 154.954 77.0854L158.146 78.9284L164.373 68.1423L161.189 66.3035C161.786 64.619 162.256 62.8746 162.585 61.0806H166.266V48.6259H166.265ZM154.553 64.9089C151.959 72.1623 146.209 77.9116 138.956 80.505C116.16 88.655 95.0994 67.5939 103.25 44.7979C105.844 37.5444 111.593 31.7948 118.847 29.2016C141.643 21.0516 162.704 42.1129 154.553 64.9089Z" fill="#E6D0BE"/>
<path d="M188.794 159.13H172.843C172.618 159.13 172.436 158.949 172.436 158.724V150.944C172.436 150.72 172.618 150.538 172.843 150.538C173.067 150.538 173.249 150.72 173.249 150.944V158.317H188.794C189.018 158.317 189.2 158.499 189.2 158.724C189.2 158.949 189.018 159.13 188.794 159.13Z" fill="#D3BBA3"/>
<path d="M172.843 118.32C172.618 118.32 172.436 118.139 172.436 117.914V0.406592C172.436 0.181813 172.618 0 172.843 0H230.854C231.078 0 231.26 0.181813 231.26 0.406592V24.9996C231.26 25.2243 231.078 25.4062 230.854 25.4062C230.629 25.4062 230.447 25.2243 230.447 24.9996V0.81319H173.249V117.914C173.249 118.139 173.067 118.32 172.843 118.32Z" fill="#AAAAAA"/>
<path d="M223.328 8.83398H180.369V38.004H223.328V8.83398Z" fill="#FF7701"/>
<path d="M223.328 41.8887H180.369V71.0588H223.328V41.8887Z" fill="#EBB8A8"/>
<path d="M223.328 74.9424H180.369V104.112H223.328V74.9424Z" fill="white"/>
<path d="M183.121 151.351C183.055 151.351 182.987 151.335 182.925 151.3L168.001 143.019C167.907 142.967 167.837 142.879 167.807 142.776C167.778 142.672 167.79 142.561 167.843 142.466L173.616 132.062C173.725 131.866 173.972 131.794 174.169 131.904C174.365 132.013 174.436 132.26 174.327 132.456L168.751 142.505L183.319 150.589C183.516 150.698 183.586 150.945 183.477 151.142C183.403 151.276 183.264 151.351 183.121 151.351Z" fill="#D3BBA3"/>
<path d="M218.922 171.216C218.856 171.216 218.788 171.2 218.725 171.165L216.269 169.802C216.072 169.693 216.002 169.446 216.11 169.249C216.219 169.053 216.467 168.982 216.663 169.091L218.765 170.257L221.714 164.941C221.823 164.745 222.071 164.673 222.267 164.783C222.464 164.892 222.534 165.139 222.425 165.336L219.278 171.007C219.204 171.141 219.065 171.216 218.922 171.216Z" fill="#D3BBA3"/>
<path d="M183.121 116.175C183.055 116.175 182.987 116.159 182.924 116.124C182.728 116.015 182.657 115.768 182.766 115.571L244.656 4.03165C244.709 3.93761 244.796 3.86773 244.9 3.83822C245.004 3.80798 245.115 3.82126 245.209 3.87362L295.934 32.0196C296.131 32.1284 296.201 32.3757 296.092 32.5722L284.085 54.2121C283.976 54.4083 283.729 54.48 283.532 54.3701C283.336 54.2614 283.265 54.0141 283.374 53.8175L295.184 32.5333L245.17 4.7816L183.477 115.966C183.403 116.1 183.264 116.175 183.121 116.175Z" fill="#AAAAAA"/>
<path d="M285.062 36.0964L247.499 15.2529L233.346 40.7592L270.909 61.6027L285.062 36.0964Z" fill="#E14C62"/>
<path d="M269.025 64.9988L231.462 44.1553L217.309 69.6616L254.872 90.5051L269.025 64.9988Z" fill="#EA83A0"/>
<path d="M252.988 93.9002L215.425 73.0566L201.271 98.5629L238.834 119.407L252.988 93.9002Z" fill="#E8F3FF"/>
<path d="M305.985 41.8887L171.652 125.668L202.35 174.89L336.684 91.1109L305.985 41.8887Z" fill="white"/>
<path d="M308.979 108.796C308.844 108.796 308.711 108.728 308.634 108.604C308.515 108.414 308.573 108.163 308.764 108.044L336.123 90.9811L305.856 42.4492L293.901 49.9051C293.71 50.0242 293.46 49.9654 293.34 49.7753C293.222 49.5846 293.28 49.3338 293.47 49.2151L305.77 41.544C305.961 41.4252 306.211 41.4837 306.33 41.6738L337.029 90.8959C337.086 90.9876 337.104 91.098 337.08 91.2028C337.055 91.308 336.99 91.399 336.899 91.4561L309.194 108.734C309.127 108.776 309.053 108.796 308.979 108.796Z" fill="#AAAAAA"/>
<path d="M325.557 89.1849L302.823 52.7344L278.072 68.1712L300.806 104.621L325.557 89.1849Z" fill="#333333"/>
<path d="M297.51 106.677L274.776 70.2266L250.025 85.6634L272.759 122.113L297.51 106.677Z" fill="#B6B6B6"/>
<path d="M269.463 124.168L246.73 87.7178L221.979 103.155L244.713 139.605L269.463 124.168Z" fill="#FFD092"/>
<path d="M275.996 252.608H41.4664C41.2418 252.608 41.0598 252.426 41.0598 252.201V74.4369C41.0598 74.2121 41.2418 74.0303 41.4664 74.0303H275.996C276.221 74.0303 276.403 74.2121 276.403 74.4369V252.201C276.403 252.426 276.221 252.608 275.996 252.608ZM41.873 251.795H275.59V74.8435H41.873V251.795Z" fill="#333333"/>
<path d="M268.638 230.588V81.7949H48.8247V230.588H268.638Z" fill="white"/>
<path d="M163.092 241.14C163.43 238.725 161.747 236.494 159.333 236.156C156.918 235.817 154.687 237.501 154.349 239.915C154.01 242.33 155.694 244.561 158.108 244.899C160.523 245.237 162.754 243.554 163.092 241.14Z" fill="#AAAAAA"/>
<path d="M183.419 255.724H176.476C176.476 260.933 172.253 265.155 167.045 265.155H150.418C145.21 265.155 140.988 260.933 140.988 255.724H134.044L127.101 292.624V295.709H190.363V292.624L183.419 255.724Z" fill="#AAAAAA"/>
<path d="M190.363 299.973H127.101C126.876 299.973 126.694 299.792 126.694 299.567C126.694 299.342 126.876 299.16 127.101 299.16H190.363C190.587 299.16 190.769 299.342 190.769 299.567C190.769 299.792 190.587 299.973 190.363 299.973Z" fill="#E6D0BE"/>
<path d="M256.631 92.251H194.743V154.138H256.631V92.251Z" fill="#E6D0BE"/>
<path d="M207.013 110.821C206.909 110.821 206.805 110.781 206.726 110.702L201.079 105.055C200.92 104.896 200.92 104.638 201.079 104.48L206.726 98.833C206.885 98.6742 207.142 98.6742 207.301 98.833C207.459 98.9918 207.459 99.2492 207.301 99.4079L201.941 104.767L207.301 110.127C207.459 110.286 207.459 110.543 207.301 110.702C207.221 110.781 207.117 110.821 207.013 110.821Z" fill="white"/>
<path d="M216.263 110.821C216.159 110.821 216.055 110.781 215.976 110.702C215.817 110.543 215.817 110.286 215.976 110.127L221.336 104.767L215.976 99.4079C215.817 99.2492 215.817 98.9919 215.976 98.833C216.135 98.6742 216.392 98.6742 216.551 98.833L222.198 104.48C222.357 104.638 222.357 104.896 222.198 105.054L216.551 110.702C216.471 110.781 216.367 110.821 216.263 110.821Z" fill="white"/>
<path d="M209.222 110.473C209.165 110.473 209.108 110.461 209.053 110.436C208.849 110.342 208.759 110.101 208.853 109.897L213.727 99.2586C213.82 99.0545 214.062 98.9652 214.266 99.0585C214.47 99.1522 214.56 99.3932 214.466 99.5977L209.592 110.236C209.523 110.385 209.376 110.473 209.222 110.473Z" fill="white"/>
<path d="M252.813 97.4756H228.902V112.143H252.813V97.4756Z" fill="#F2E6DC"/>
<path d="M233.189 117.975H201.039C200.815 117.975 200.633 117.793 200.633 117.568C200.633 117.344 200.815 117.162 201.039 117.162H233.189C233.413 117.162 233.595 117.344 233.595 117.568C233.595 117.793 233.413 117.975 233.189 117.975Z" fill="white"/>
<path d="M251.691 124.143H223.412C223.188 124.143 223.006 123.961 223.006 123.736C223.006 123.511 223.188 123.33 223.412 123.33H251.691C251.916 123.33 252.098 123.511 252.098 123.736C252.098 123.961 251.916 124.143 251.691 124.143Z" fill="white"/>
<path d="M217.245 124.143H201.039C200.815 124.143 200.633 123.961 200.633 123.736C200.633 123.511 200.815 123.33 201.039 123.33H217.245C217.47 123.33 217.652 123.511 217.652 123.736C217.652 123.961 217.469 124.143 217.245 124.143Z" fill="white"/>
<path d="M251.691 130.31H237.478C237.253 130.31 237.071 130.128 237.071 129.904C237.071 129.679 237.253 129.497 237.478 129.497H251.691C251.916 129.497 252.098 129.679 252.098 129.904C252.098 130.128 251.916 130.31 251.691 130.31Z" fill="white"/>
<path d="M231.31 130.31H201.039C200.815 130.31 200.633 130.128 200.633 129.904C200.633 129.679 200.815 129.497 201.039 129.497H231.31C231.535 129.497 231.717 129.679 231.717 129.904C231.717 130.128 231.535 130.31 231.31 130.31Z" fill="white"/>
<path d="M242.44 136.478H201.039C200.815 136.478 200.633 136.296 200.633 136.071C200.633 135.846 200.815 135.665 201.039 135.665H242.44C242.664 135.665 242.846 135.846 242.846 136.071C242.846 136.296 242.664 136.478 242.44 136.478Z" fill="white"/>
<path d="M250.354 199.883C250.354 205.454 245.796 210.011 240.226 210.011H171.459C165.888 210.011 161.331 205.454 161.331 199.883C161.331 194.313 165.888 189.755 171.459 189.755H240.226C245.796 189.755 250.354 194.313 250.354 199.883Z" fill="#F7F1EB"/>
<path d="M242.242 215.881H177.382C171.106 215.881 165.999 210.775 165.999 204.498C165.999 198.222 171.106 193.115 177.382 193.115H242.242C248.518 193.115 253.624 198.222 253.624 204.498C253.624 210.775 248.518 215.881 242.242 215.881ZM177.382 193.929C171.554 193.929 166.812 198.67 166.812 204.498C166.812 210.326 171.554 215.068 177.382 215.068H242.242C248.07 215.068 252.811 210.326 252.811 204.498C252.811 198.67 248.07 193.929 242.242 193.929H177.382Z" fill="#E6D0BE"/>
<path d="M181.374 204.249C181.374 206.453 179.587 208.24 177.382 208.24C175.178 208.24 173.391 206.453 173.391 204.249C173.391 202.044 175.178 200.257 177.382 200.257C179.587 200.257 181.374 202.044 181.374 204.249Z" fill="#FF7701"/>
<path d="M190.144 208.24C192.348 208.24 194.135 206.453 194.135 204.249C194.135 202.044 192.348 200.257 190.144 200.257C187.94 200.257 186.153 202.044 186.153 204.249C186.153 206.453 187.94 208.24 190.144 208.24Z" fill="#FF7701"/>
<path d="M206.897 204.249C206.897 206.453 205.11 208.24 202.906 208.24C200.701 208.24 198.914 206.453 198.914 204.249C198.914 202.044 200.701 200.257 202.906 200.257C205.11 200.257 206.897 202.044 206.897 204.249Z" fill="#FF7701"/>
<path d="M215.668 208.24C217.872 208.24 219.659 206.453 219.659 204.249C219.659 202.044 217.872 200.257 215.668 200.257C213.463 200.257 211.676 202.044 211.676 204.249C211.676 206.453 213.463 208.24 215.668 208.24Z" fill="#FF7701"/>
<path d="M180.111 179.75H106.854C106.629 179.75 106.447 179.568 106.447 179.343V130.984C106.447 130.759 106.629 130.577 106.854 130.577H180.111C180.336 130.577 180.518 130.759 180.518 130.984V179.343C180.517 179.568 180.335 179.75 180.111 179.75ZM107.26 178.937H179.704V131.39H107.26V178.937Z" fill="#8B865C"/>
<path d="M141.354 137.464H113.104V165.714H141.354V137.464Z" fill="#F7F1EB"/>
<path d="M116.43 159.281C116.326 159.281 116.222 159.241 116.142 159.162C115.984 159.003 115.984 158.746 116.142 158.587L124.497 150.232C124.656 150.074 124.913 150.074 125.072 150.232L130.157 155.318C130.316 155.476 130.316 155.734 130.157 155.893C129.998 156.051 129.741 156.051 129.582 155.893L124.784 151.095L116.717 159.162C116.638 159.241 116.534 159.281 116.43 159.281Z" fill="#EFBC73"/>
<path d="M138.405 155.104C138.301 155.104 138.197 155.064 138.118 154.985L132.049 148.916L128.341 152.624C128.182 152.783 127.925 152.783 127.766 152.624C127.607 152.465 127.607 152.208 127.766 152.049L131.761 148.053C131.914 147.901 132.184 147.901 132.336 148.053L138.693 154.41C138.852 154.569 138.852 154.826 138.693 154.985C138.613 155.064 138.509 155.104 138.405 155.104Z" fill="#EFBC73"/>
<path d="M122.654 144.989C122.654 146.311 121.582 147.383 120.26 147.383C118.938 147.383 117.866 146.311 117.866 144.989C117.866 143.667 118.938 142.595 120.26 142.595C121.582 142.595 122.654 143.667 122.654 144.989Z" fill="#EFBC73"/>
<path d="M171.014 138.214H146.116C145.891 138.214 145.709 138.032 145.709 137.807C145.709 137.582 145.891 137.4 146.116 137.4H171.014C171.238 137.4 171.42 137.582 171.42 137.807C171.42 138.032 171.238 138.214 171.014 138.214Z" fill="#8B865C"/>
<path d="M171.014 143.002H146.116C145.891 143.002 145.709 142.82 145.709 142.595C145.709 142.37 145.891 142.188 146.116 142.188H171.014C171.238 142.188 171.42 142.37 171.42 142.595C171.42 142.82 171.238 143.002 171.014 143.002Z" fill="#8B865C"/>
<path d="M171.014 147.79H146.116C145.891 147.79 145.709 147.608 145.709 147.383C145.709 147.158 145.891 146.976 146.116 146.976H171.014C171.238 146.976 171.42 147.158 171.42 147.383C171.42 147.608 171.238 147.79 171.014 147.79Z" fill="#8B865C"/>
<path d="M171.014 152.578H146.116C145.891 152.578 145.709 152.396 145.709 152.171C145.709 151.946 145.891 151.765 146.116 151.765H171.014C171.238 151.765 171.42 151.946 171.42 152.171C171.42 152.396 171.238 152.578 171.014 152.578Z" fill="#8B865C"/>
<path d="M192.56 169.767H132.23V175.513H192.56V169.767Z" fill="#F7F1EB"/>
<path d="M89.0301 95.9791L81.3855 91.5654L72.3037 107.295L79.9483 111.709L89.0301 95.9791Z" fill="#E6D0BE"/>
<path d="M94.0206 99.0346C92.0649 101.536 83.6306 98.8419 83.6306 98.8419L77.1205 91.6501C75.8443 87.3693 78.28 82.8645 82.5607 81.5883C86.8415 80.3121 91.3463 82.7478 92.6225 87.0285C92.6225 87.0285 96.0125 96.4866 94.0206 99.0346Z" fill="#E6D0BE"/>
<path d="M92.3396 89.3321C92.3396 89.3321 95.1927 90.9618 95.2564 91.5976C95.3323 92.3566 93.041 93.5164 93.041 93.5164C93.041 93.5164 92.399 89.3205 92.3396 89.3321Z" fill="#E6D0BE"/>
<path d="M86.2506 91.6645C85.6978 91.4032 85.6472 90.7065 86.1566 90.3683C86.6094 90.0677 87.208 89.7408 87.8993 89.5348C88.2322 89.4356 88.3983 92.286 88.0373 92.2294C87.3469 92.121 86.7286 91.8904 86.2506 91.6645Z" fill="white"/>
<path d="M89.1698 92.2806C90.3082 92.1982 91.2991 91.6951 91.9699 91.2496C92.4792 90.9114 92.4288 90.2151 91.876 89.9539C91.148 89.6098 90.095 89.2548 88.9567 89.3372C88.5875 89.364 88.2351 89.4368 87.9029 89.5357C87.4632 90.4226 87.5424 91.4388 88.0362 92.2284C88.3976 92.2854 88.7786 92.309 89.1698 92.2806Z" fill="#363E44"/>
<path d="M91.1968 95.8845C91.0528 95.8845 90.9076 95.8642 90.7657 95.8222C90.2075 95.6582 89.7823 95.1797 89.6823 94.6037C89.644 94.3822 89.7922 94.172 90.0137 94.1336C90.2352 94.0968 90.445 94.2435 90.4835 94.4648C90.5307 94.7385 90.7317 94.9647 90.995 95.0425C91.268 95.1224 91.5659 95.0339 91.7542 94.815C91.9006 94.6446 92.1571 94.6252 92.3275 94.7713C92.4979 94.9177 92.5172 95.1742 92.3708 95.3446C92.0723 95.6924 91.6401 95.8845 91.1968 95.8845Z" fill="#363E44"/>
<path d="M78.4934 96.5848C78.4934 96.5848 70.2057 90.5419 72.1472 83.7045C74.0889 76.8671 86.7837 79.1964 91.0289 82.0802C95.2741 84.9639 91.8235 85.7316 87.6146 86.1797C83.4058 86.6278 80.2681 87.858 82.0587 91.957C82.0587 91.957 79.4563 94.9166 78.4934 96.5848Z" fill="#363E44"/>
<path d="M79.9249 95.4591C81.512 95.4591 82.7987 94.0707 82.7987 92.358C82.7987 90.6452 81.512 89.2568 79.9249 89.2568C78.3377 89.2568 77.051 90.6452 77.051 92.358C77.051 94.0707 78.3377 95.4591 79.9249 95.4591Z" fill="#E6D0BE"/>
<path d="M81.1593 93.9552C80.9465 93.9552 80.7676 93.7895 80.754 93.5743C80.7361 93.2927 80.6395 93.0823 80.4584 92.9308C80.0706 92.6068 79.366 92.6072 79.1276 92.6343C78.9032 92.6609 78.7029 92.5 78.6769 92.2778C78.6507 92.0554 78.8091 91.8538 79.0317 91.8269C79.0804 91.8217 80.238 91.6899 80.9765 92.3045C81.3298 92.5986 81.5336 93.0198 81.5655 93.5229C81.5795 93.7473 81.4095 93.9402 81.1855 93.9546C81.1766 93.9548 81.1679 93.9552 81.1593 93.9552Z" fill="#363E44"/>
<path d="M74.6811 82.9949C74.6811 82.9949 69.5967 56.4578 58.9485 63.0297C49.8067 68.6721 71.1139 81.6637 74.6811 82.9949Z" fill="#363E44"/>
<path d="M74.3316 82.8158C74.3316 82.8158 51.2245 60.2207 45.8393 71.5154C41.2158 81.2125 70.6125 83.631 74.3316 82.8158Z" fill="#363E44"/>
<path d="M74.7149 82.6294C74.7149 82.6294 84.173 65.602 75.2454 64.3133C67.5806 63.2069 73.3576 80.2439 74.7149 82.6294Z" fill="#363E44"/>
<path d="M73.8291 82.0915C73.8291 82.0915 51.812 74.1378 54.2082 86.4191C56.2655 96.9631 71.3261 84.9604 73.8291 82.0915Z" fill="#363E44"/>
<path d="M72.1474 83.5293C72.1474 83.5293 64.3566 88.2854 67.6983 90.874C70.5675 93.0963 72.1494 84.8156 72.1474 83.5293Z" fill="#363E44"/>
<path d="M64.1045 300.548H82.0477L85.4834 325.504H58.4641L64.1045 300.548Z" fill="#F7F1EB"/>
<path d="M137.897 261.434H110.383L131.962 300.861H149.976L137.897 261.434Z" fill="#E6D0BE"/>
<path d="M80.0779 261.434H55.6411L65.5936 300.548H81.0615L80.0779 261.434Z" fill="#E6D0BE"/>
<path d="M127.578 325.517H179.476C179.476 325.517 170.372 301.679 149.976 300.872L131.962 300.861L127.578 325.517Z" fill="white"/>
<path d="M57.7009 146.181L45.3474 267.911H81.808L83.325 182.038L105.453 267.911H141.27L100.611 144.371L57.7009 146.181Z" fill="#333333"/>
<path d="M77.0028 315.491C76.4408 315.491 75.8809 315.346 75.3678 315.056L68.1686 310.99C68.0185 310.905 67.9382 310.735 67.9681 310.566C67.9978 310.396 68.1315 310.264 68.3013 310.235L76.4559 308.87C77.5372 308.689 78.5991 309.031 79.3707 309.809C80.1427 310.587 80.4765 311.653 80.2865 312.732C80.0968 313.812 79.4195 314.699 78.4286 315.167C77.9709 315.384 77.4861 315.491 77.0028 315.491ZM69.5692 310.847L75.7677 314.348C76.4893 314.756 77.3331 314.786 78.0815 314.432C78.8305 314.078 79.3424 313.408 79.4861 312.592C79.6295 311.776 79.3771 310.97 78.7937 310.382C78.2102 309.794 77.4076 309.535 76.5903 309.672L69.5692 310.847Z" fill="#84524D"/>
<path d="M59.6808 312.443C58.8017 312.443 57.9677 312.097 57.3313 311.456C56.5595 310.677 56.2257 309.612 56.4158 308.533C56.6056 307.454 57.283 306.566 58.2738 306.098C59.2649 305.63 60.3807 305.67 61.335 306.209L68.5342 310.275C68.6843 310.36 68.7645 310.53 68.7346 310.7C68.7049 310.87 68.5712 311.002 68.4014 311.031L60.2467 312.395C60.0569 312.427 59.8677 312.443 59.6808 312.443ZM59.699 306.588C59.3337 306.588 58.9673 306.67 58.621 306.833C57.872 307.187 57.3601 307.858 57.2165 308.674C57.073 309.49 57.3253 310.295 57.9087 310.883C58.4916 311.471 59.2933 311.731 60.1122 311.593L67.1333 310.418L60.9348 306.918C60.547 306.698 60.1239 306.588 59.699 306.588Z" fill="#84524D"/>
<path d="M85.4834 325.504H58.4641V329.417H85.4834V325.504Z" fill="#E6D0BE"/>
<path d="M179.476 325.504H127.578V329.417H179.476V325.504Z" fill="#E6D0BE"/>
<path d="M82.517 182.231C82.4858 182.231 82.4545 182.227 82.4229 182.22L72.7718 179.933C72.5533 179.881 72.418 179.662 72.4698 179.443C72.5214 179.225 72.7403 179.089 72.9592 179.142L82.6103 181.429C82.8288 181.481 82.964 181.7 82.9122 181.918C82.8681 182.105 82.701 182.231 82.517 182.231Z" fill="white"/>
<path d="M150.63 301.282C150.5 301.282 150.375 301.22 150.297 301.109C150.198 300.968 150.199 300.78 150.299 300.639L155.1 293.908C155.734 293.02 156.721 292.511 157.811 292.511C157.816 292.511 157.821 292.511 157.826 292.511C158.922 292.516 159.911 293.034 160.54 293.931C161.169 294.828 161.318 295.934 160.948 296.966C160.578 297.998 159.761 298.758 158.705 299.052L150.739 301.268C150.703 301.277 150.666 301.282 150.63 301.282ZM157.811 293.324C156.987 293.324 156.241 293.709 155.762 294.381L151.628 300.176L158.487 298.268C159.285 298.046 159.903 297.471 160.182 296.692C160.462 295.912 160.349 295.076 159.874 294.397C159.399 293.719 158.651 293.328 157.822 293.324C157.819 293.324 157.815 293.324 157.811 293.324Z" fill="#84524D"/>
<path d="M143.42 309.26C143.415 309.26 143.41 309.26 143.405 309.26C142.309 309.255 141.32 308.738 140.691 307.841C140.062 306.943 139.914 305.837 140.283 304.805C140.653 303.773 141.471 303.013 142.526 302.72L150.492 300.504C150.659 300.459 150.836 300.522 150.934 300.663C151.033 300.804 151.032 300.992 150.932 301.132L146.131 307.863C145.498 308.752 144.51 309.26 143.42 309.26ZM149.603 301.596L142.745 303.503C141.947 303.725 141.329 304.299 141.049 305.079C140.769 305.859 140.882 306.696 141.357 307.374C141.833 308.052 142.58 308.444 143.409 308.447C143.412 308.447 143.416 308.447 143.42 308.447C144.244 308.447 144.99 308.063 145.469 307.391L149.603 301.596Z" fill="#84524D"/>
<path d="M116.743 123.157C116.743 123.157 128.905 109.085 135.879 102.08C143.202 94.7237 155.086 84.9293 156.434 86.6093C157.203 87.5663 155.858 89.2371 151.968 93.4643C152.378 93.4473 153.573 93.6262 154.14 94.6306C154.979 96.117 154.025 97.2018 153.978 97.3325C154.117 97.3156 155.616 97.1732 156.346 98.0733C157.169 99.0869 157.113 100.218 156.637 101.125C156.982 101.094 158.269 101.106 158.945 101.992C159.641 102.903 159.706 104.359 158.849 105.194C157.279 106.726 152.523 111.188 150.474 113.642C146.441 118.471 134.421 137.542 126.747 142.98C124.504 135.154 116.743 123.157 116.743 123.157Z" fill="#E6D0BE"/>
<path d="M156.305 106.426C156.182 106.426 156.06 106.37 155.98 106.264L154.863 104.784C154.728 104.604 154.764 104.349 154.943 104.214C155.122 104.079 155.377 104.115 155.512 104.294L156.629 105.774C156.764 105.954 156.729 106.209 156.55 106.344C156.476 106.399 156.39 106.426 156.305 106.426Z" fill="#363E44"/>
<path d="M153.545 102.905C153.417 102.905 153.292 102.845 153.213 102.733L152.003 101.02C151.874 100.836 151.918 100.583 152.101 100.453C152.284 100.324 152.538 100.368 152.668 100.551L153.877 102.264C154.006 102.448 153.963 102.701 153.779 102.831C153.708 102.881 153.626 102.905 153.545 102.905Z" fill="#363E44"/>
<path d="M150.9 99.0081C150.777 99.0081 150.656 98.9524 150.576 98.847C150.365 98.5678 150.177 98.315 149.988 98.0616C149.804 97.8138 149.619 97.5658 149.413 97.2929C149.277 97.1135 149.313 96.8586 149.492 96.7231C149.671 96.5874 149.926 96.623 150.062 96.802C150.269 97.0771 150.455 97.327 150.641 97.5763C150.828 97.8276 151.015 98.079 151.224 98.3561C151.36 98.5352 151.324 98.79 151.145 98.9259C151.072 98.981 150.986 99.0081 150.9 99.0081Z" fill="#363E44"/>
<path d="M148.418 96.0152C148.305 96.0152 148.192 95.9683 148.112 95.8765L146.898 94.4928C146.75 94.3241 146.766 94.0672 146.935 93.9188C147.104 93.7714 147.361 93.7882 147.509 93.956L148.723 95.3405C148.871 95.5092 148.855 95.7661 148.686 95.9141C148.609 95.9818 148.513 96.0152 148.418 96.0152Z" fill="#363E44"/>
<path d="M88.3108 110.065L111.437 118.824C114.027 119.805 116.951 119.198 118.937 117.267L130.891 105.64L146.313 123.145L130.195 141.658C124.627 148.054 115.808 150.558 107.709 148.043L88.3108 142.019V110.065Z" fill="#E14C62"/>
<path d="M48.524 99.5156C48.524 99.5156 64.4001 100.099 101.407 115.234L112.126 170.303L103.269 173.296L100.386 160.367L94.2662 174.081C94.2662 174.081 61.5959 167.242 34.8335 155.069C34.8335 155.069 44.7216 129.395 54.2206 116.491L48.524 99.5156Z" fill="#E14C62"/>
<path d="M5.80884 138.564C5.80884 138.564 11.8919 99.3632 48.5241 99.5161L63.7197 103.587L52.8931 135.685L5.80884 138.564Z" fill="#E14C62"/>
<path d="M45.3472 131.894C45.2789 131.894 45.2098 131.877 45.1464 131.841C44.9513 131.729 44.8834 131.481 44.9946 131.286L51.9794 119.037L48.5407 112.806C48.4321 112.609 48.5037 112.362 48.7002 112.253C48.8975 112.146 49.1446 112.217 49.2527 112.413L52.8016 118.843C52.87 118.968 52.8691 119.118 52.7988 119.241L45.701 131.688C45.6258 131.82 45.4886 131.894 45.3472 131.894Z" fill="#363E44"/>
<path d="M0.634277 129.095L49.7037 112.429L66.7785 162.703L17.709 179.369L0.634277 129.095Z" fill="white" stroke="#F2F2F2"/>
<path d="M20.126 165.629C32.1763 161.536 44.2266 157.442 56.2769 153.349C44.8958 137.372 39.9908 134.018 37.8618 135.014C34.7861 136.452 37.3241 147.054 33.0319 148.839C30.4516 149.912 28.1659 146.65 25.4617 147.423C23.1357 148.087 20.5667 151.716 20.126 165.629Z" fill="#E14C62"/>
<path d="M26.0672 140.565C28.2855 138.986 28.8043 135.909 27.2261 133.69C25.6479 131.472 22.5702 130.953 20.352 132.532C18.1337 134.11 17.6148 137.187 19.193 139.406C20.7713 141.624 23.8489 142.143 26.0672 140.565Z" fill="#E14C62"/>
<path d="M30.8435 175.621C30.8435 175.621 39.4849 177.124 43.5038 173.422C47.5227 169.72 47.0394 164.1 46.1163 163.333C45.1933 162.566 41.9311 169.359 41.9311 169.359C41.9311 169.359 44.2091 164.404 42.0895 163.987C39.9699 163.57 38.3123 171.114 38.3123 171.114C38.3123 171.114 39.7386 165.422 37.5401 165.448C35.3417 165.474 34.6642 174.05 30.8435 175.621Z" fill="#E6D0BE"/>
<path d="M307.471 277.682C298.201 302.884 282.191 321.813 282.191 321.813C282.191 321.813 281.209 299.882 290.479 274.68C299.748 249.478 315.759 230.548 315.759 230.548C315.759 230.548 316.741 252.479 307.471 277.682Z" fill="#776E42"/>
<path d="M291.987 297.132C291.941 297.132 291.894 297.124 291.847 297.107C291.637 297.03 291.528 296.796 291.605 296.586L310.168 245.704C310.245 245.494 310.478 245.385 310.689 245.462C310.9 245.539 311.009 245.772 310.932 245.983L292.369 296.864C292.309 297.029 292.153 297.132 291.987 297.132Z" fill="#8B865C"/>
<path d="M283.806 323.676C285.654 318.048 292.007 297.153 293.352 272.113C294.931 242.733 289.014 218.777 289.014 218.777C289.014 218.777 280.539 242.455 278.961 271.835C277.614 296.919 281.728 318.045 282.961 323.689L283.806 323.676Z" fill="#8B865C"/>
<path d="M284.871 287.8C284.863 287.8 284.855 287.799 284.847 287.799C284.623 287.786 284.452 287.593 284.465 287.369L287.957 228.089C287.97 227.864 288.164 227.698 288.387 227.707C288.611 227.72 288.782 227.912 288.768 228.136L285.277 287.417C285.264 287.633 285.085 287.8 284.871 287.8Z" fill="#776E42"/>
<path d="M280.954 323.546H283.268C283.949 315.983 284.95 295.963 279.544 273.21C272.657 244.219 257.977 221.774 257.977 221.774C257.977 221.774 254.465 246.333 261.352 275.324C266.694 297.81 276.722 316.355 280.954 323.546Z" fill="#776E42"/>
<path d="M276.165 293.341C275.984 293.341 275.819 293.22 275.771 293.036L260.687 234.679C260.63 234.462 260.761 234.24 260.979 234.184C261.197 234.126 261.418 234.259 261.474 234.476L276.559 292.833C276.615 293.05 276.484 293.272 276.267 293.328C276.233 293.338 276.198 293.341 276.165 293.341Z" fill="#8B865C"/>
<path d="M313.892 291.184H255.896L265.258 325.113H304.529L313.892 291.184Z" fill="#FF7701"/>
</g>
<defs>
<clipPath id="clip0_167_405">
<rect width="338" height="330" fill="white"/>
</clipPath>
</defs>
</svg>
