<svg width="331" height="330" viewBox="0 0 331 330" fill="none" xmlns="http://www.w3.org/2000/svg">
<path d="M165.061 330C256.222 330 330.123 256.127 330.123 165C330.123 73.873 256.222 0 165.061 0C73.9005 0 0 73.873 0 165C0 256.127 73.9005 330 165.061 330Z" fill="#F2F2F2"/>
<path d="M62.7001 266.59L307.215 266.59V96.5228L62.7001 96.5228L62.7001 266.59Z" fill="#363E44"/>
<path d="M299.543 244.065V104.191L70.3716 104.191L70.3716 244.065L299.543 244.065Z" fill="#F2F2F2"/>
<path d="M184.971 259.018C187.513 259.012 189.568 256.947 189.562 254.406C189.555 251.865 187.489 249.81 184.947 249.817C182.405 249.823 180.35 251.889 180.356 254.43C180.363 256.971 182.429 259.025 184.971 259.018Z" fill="#F2E6DC"/>
<path d="M217.935 312.114H151.98C151.88 312.114 151.8 312.034 151.8 311.934V308.718C151.8 308.707 151.801 308.696 151.803 308.685L159.042 270.229C159.058 270.144 159.133 270.082 159.219 270.082H210.696C210.783 270.082 210.857 270.144 210.873 270.229L218.112 308.685C218.114 308.696 218.115 308.707 218.115 308.718V311.934C218.115 312.034 218.035 312.114 217.935 312.114ZM152.16 311.754H217.755V308.735L210.546 270.443H159.368L152.16 308.735L152.16 311.754Z" fill="#363E44"/>
<path d="M217.935 316.135H151.98C151.88 316.135 151.8 316.054 151.8 315.954C151.8 315.855 151.88 315.774 151.98 315.774H217.935C218.035 315.774 218.115 315.855 218.115 315.954C218.115 316.054 218.035 316.135 217.935 316.135Z" fill="#363E44"/>
<path d="M146.317 234.742L141.5 233.363C141.742 230.892 141.781 228.432 141.631 226.004L146.491 224.791L142.386 208.341L137.516 209.557C136.497 207.323 135.304 205.172 133.949 203.125L137.559 199.638L125.777 187.446L122.174 190.925C120.194 189.512 118.086 188.243 115.862 187.139L117.243 182.323L100.939 177.655L99.5577 182.471C97.0856 182.23 94.6255 182.191 92.1961 182.342L90.9843 177.484L74.5276 181.592L75.7421 186.46C73.5073 187.479 71.3555 188.672 69.3073 190.028L65.8203 186.419L53.6202 198.202L57.0995 201.802C55.6853 203.782 54.4153 205.889 53.3108 208.114L48.4933 206.734H48.4931L43.819 223.034L48.6365 224.413C48.3947 226.885 48.3552 229.344 48.5051 231.772L43.6458 232.985L47.7497 249.435L52.6199 248.22C53.6388 250.454 54.8317 252.604 56.1872 254.651L52.5767 258.138L64.3593 270.331L67.9617 266.852C69.9424 268.265 72.0497 269.534 74.2744 270.638L72.8933 275.454L89.1973 280.122L90.5784 275.306C93.0504 275.547 95.5106 275.585 97.9398 275.435L99.1516 280.292L115.608 276.185L114.394 271.317C116.629 270.298 118.78 269.104 120.829 267.749L124.316 271.357L136.516 259.575L133.036 255.975C134.451 253.994 135.72 251.887 136.825 249.663L141.643 251.042L146.317 234.742ZM123.574 238.069C118.771 253.002 102.973 261.761 87.7608 257.926C70.9627 253.691 61.2589 236.197 66.5624 219.707C71.3652 204.774 87.1626 196.015 102.375 199.85C119.174 204.085 128.877 221.579 123.574 238.069Z" fill="white"/>
<path d="M95.07 266.163C91.656 266.163 88.2019 265.693 84.7935 264.717C75.2208 261.977 67.2898 255.673 62.4613 246.968C57.6329 238.262 56.4851 228.197 59.2297 218.627C61.705 209.995 67.2103 202.547 74.7312 197.657C82.1773 192.814 91.1021 190.778 99.8611 191.921C99.9598 191.934 100.03 192.025 100.016 192.123C100.004 192.222 99.914 192.292 99.8142 192.279C81.8718 189.937 64.5717 201.306 59.5761 218.726C56.8584 228.204 57.995 238.171 62.7765 246.792C67.5583 255.414 75.4125 261.656 84.8925 264.37C101.063 269.001 118.32 262.131 126.859 247.665C126.91 247.58 127.02 247.551 127.106 247.602C127.192 247.652 127.22 247.763 127.17 247.849C120.347 259.407 108.011 266.163 95.07 266.163Z" fill="#F2E6DC"/>
<path d="M256.686 32.3835H82.42V89.2788H256.686V32.3835Z" fill="white"/>
<path d="M260.921 92.7415H86.6553C86.5558 92.7415 86.475 92.6608 86.475 92.5612V36.1601C86.475 36.0605 86.5558 35.9797 86.6553 35.9797H260.921C261.021 35.9797 261.102 36.0605 261.102 36.1601V92.5612C261.102 92.6609 261.021 92.7415 260.921 92.7415ZM86.8356 92.3809H260.741V36.3404H86.8356V92.3809Z" fill="#333333"/>
<path d="M208.644 47.4771H179.695C179.595 47.4771 179.515 47.3963 179.515 47.2968C179.515 47.1972 179.595 47.1165 179.695 47.1165H208.644C208.744 47.1165 208.824 47.1972 208.824 47.2968C208.824 47.3963 208.744 47.4771 208.644 47.4771Z" fill="#AAAAAA"/>
<path d="M162.753 47.4771H98.2605C98.1608 47.4771 98.0802 47.3963 98.0802 47.2968C98.0802 47.1972 98.1608 47.1165 98.2605 47.1165H162.753C162.853 47.1165 162.933 47.1972 162.933 47.2968C162.933 47.3963 162.853 47.4771 162.753 47.4771Z" fill="#AAAAAA"/>
<path d="M208.644 53.5198H132.873C132.773 53.5198 132.693 53.439 132.693 53.3395C132.693 53.24 132.773 53.1592 132.873 53.1592H208.644C208.744 53.1592 208.824 53.24 208.824 53.3395C208.824 53.4392 208.743 53.5198 208.644 53.5198Z" fill="#AAAAAA"/>
<path d="M123.861 53.5198H98.2605C98.1608 53.5198 98.0802 53.439 98.0802 53.3395C98.0802 53.24 98.1608 53.1592 98.2605 53.1592H123.861C123.961 53.1592 124.042 53.24 124.042 53.3395C124.042 53.4392 123.961 53.5198 123.861 53.5198Z" fill="#AAAAAA"/>
<path d="M208.644 59.1851H179.695C179.595 59.1851 179.515 59.1043 179.515 59.0048C179.515 58.9052 179.595 58.8245 179.695 58.8245H208.644C208.744 58.8245 208.824 58.9052 208.824 59.0048C208.824 59.1043 208.744 59.1851 208.644 59.1851Z" fill="#AAAAAA"/>
<path d="M162.753 59.1851H98.2605C98.1608 59.1851 98.0802 59.1043 98.0802 59.0048C98.0802 58.9052 98.1608 58.8245 98.2605 58.8245H162.753C162.853 58.8245 162.933 58.9052 162.933 59.0048C162.933 59.1043 162.853 59.1851 162.753 59.1851Z" fill="#AAAAAA"/>
<path d="M208.644 65.2278H154.05C153.95 65.2278 153.87 65.1471 153.87 65.0475C153.87 64.948 153.95 64.8672 154.05 64.8672H208.644C208.743 64.8672 208.824 64.948 208.824 65.0475C208.824 65.1471 208.743 65.2278 208.644 65.2278Z" fill="#AAAAAA"/>
<path d="M140.803 65.2278H98.2605C98.1608 65.2278 98.0802 65.1471 98.0802 65.0475C98.0802 64.948 98.1608 64.8672 98.2605 64.8672H140.803C140.903 64.8672 140.984 64.948 140.984 65.0475C140.984 65.1471 140.903 65.2278 140.803 65.2278Z" fill="#AAAAAA"/>
<path d="M208.644 73.9144H141.876C141.776 73.9144 141.695 73.8336 141.695 73.734C141.695 73.6345 141.776 73.5537 141.876 73.5537H208.644C208.744 73.5537 208.824 73.6345 208.824 73.734C208.824 73.8336 208.743 73.9144 208.644 73.9144Z" fill="#AAAAAA"/>
<path d="M208.644 79.9571H182.305C182.205 79.9571 182.124 79.8763 182.124 79.7768C182.124 79.6772 182.205 79.5964 182.305 79.5964H208.644C208.744 79.5964 208.824 79.6772 208.824 79.7768C208.824 79.8765 208.743 79.9571 208.644 79.9571Z" fill="#AAAAAA"/>
<path d="M171.961 79.9571H135.278C135.178 79.9571 135.098 79.8763 135.098 79.7768C135.098 79.6772 135.178 79.5964 135.278 79.5964H171.961C172.061 79.5964 172.141 79.6772 172.141 79.7768C172.141 79.8765 172.061 79.9571 171.961 79.9571Z" fill="#AAAAAA"/>
<path d="M224.294 50.9823L224.305 59.3616C224.311 63.9895 228.065 67.7362 232.689 67.7302C237.314 67.7243 241.058 63.9677 241.052 59.3399L241.041 50.9604L224.294 50.9823Z" fill="#333333"/>
<path d="M232.645 54.874C244.618 54.874 254.324 45.161 254.324 33.1793C254.324 21.1977 244.618 11.4846 232.645 11.4846C220.672 11.4846 210.966 21.1977 210.966 33.1793C210.966 45.161 220.672 54.874 232.645 54.874Z" fill="#E16A4B"/>
<path d="M232.626 62.4008C229.772 62.4008 224.473 62.1269 224.471 61.0833C224.471 60.9838 224.552 60.9028 224.651 60.9026C224.751 60.9026 224.832 60.9832 224.832 61.0826C224.914 61.4266 227.58 62.0399 232.602 62.0401C232.629 62.0401 232.655 62.0401 232.682 62.0401C237.756 62.0334 240.448 61.4084 240.53 61.0602C240.53 60.9607 240.61 60.8808 240.71 60.8806C240.71 60.8806 240.71 60.8806 240.71 60.8806C240.81 60.8806 240.89 60.9621 240.89 61.0617C240.892 62.1122 235.522 62.3968 232.682 62.4006C232.664 62.4008 232.645 62.4008 232.626 62.4008Z" fill="white"/>
<path d="M232.621 58.7278C229.767 58.7278 224.468 58.4539 224.466 57.4103C224.466 57.3108 224.547 57.23 224.646 57.2298C224.746 57.2298 224.827 57.3104 224.827 57.41C224.91 57.7558 227.605 58.3672 232.677 58.3673C237.751 58.3608 240.443 57.7357 240.525 57.3876C240.525 57.2879 240.605 57.2082 240.705 57.208C240.705 57.208 240.705 57.208 240.705 57.208C240.805 57.208 240.885 57.2895 240.886 57.3891C240.887 58.4397 235.517 58.7242 232.678 58.7278C232.659 58.7278 232.64 58.7278 232.621 58.7278Z" fill="white"/>
<path d="M229.771 49.778C229.701 49.778 229.634 49.7369 229.605 49.6684L222.771 33.6558C222.732 33.5642 222.775 33.4582 222.866 33.419C222.957 33.3801 223.064 33.4223 223.103 33.5141L229.937 49.5266C229.976 49.6183 229.933 49.7243 229.842 49.7634C229.818 49.7735 229.795 49.778 229.771 49.778Z" fill="#333333"/>
<path d="M235.561 49.7707C235.538 49.7707 235.514 49.766 235.491 49.7562C235.399 49.7173 235.357 49.6114 235.395 49.5198L242.187 33.4896C242.226 33.3976 242.333 33.3554 242.424 33.3938C242.515 33.4328 242.558 33.5386 242.519 33.6302L235.728 49.6603C235.698 49.7294 235.632 49.7707 235.561 49.7707Z" fill="#333333"/>
<path d="M228.75 35.698C227.904 35.698 227.059 35.4935 226.322 35.0735C226.235 35.0243 226.205 34.9141 226.254 34.8276C226.304 34.7408 226.414 34.7107 226.5 34.7599C228.051 35.643 230.112 35.4991 231.545 34.4456C230.251 33.7503 229.206 32.581 228.764 31.1705C228.447 30.158 228.474 29.1683 228.84 28.3837C229.284 27.4336 230.246 26.8344 231.181 26.9269C232.268 27.0342 233.032 27.9877 233.385 28.8443C234.148 30.6948 233.649 32.9857 232.203 34.3632C232.988 34.6918 233.846 34.8389 234.699 34.7522C237.109 34.508 239.191 32.4279 239.438 30.0164C239.448 29.9174 239.539 29.8453 239.636 29.8554C239.735 29.8655 239.807 29.954 239.797 30.0532C239.533 32.6286 237.31 34.8503 234.736 35.111C233.765 35.2091 232.788 35.0245 231.905 34.6236C231.019 35.3316 229.883 35.698 228.75 35.698ZM230.996 27.2787C230.268 27.2787 229.517 27.7872 229.167 28.5365C228.839 29.2392 228.818 30.1365 229.108 31.0627C229.538 32.4325 230.574 33.5593 231.848 34.2C233.272 32.935 233.778 30.7433 233.052 28.9819C232.739 28.222 232.073 27.3775 231.146 27.2859C231.096 27.2812 231.046 27.2787 230.996 27.2787Z" fill="white"/>
<path d="M19.3515 307.121L3.60559 306.884L8.29718 286.59L24.3431 289.263L19.3515 307.121Z" fill="#FEBBBA"/>
<path d="M41.3508 317.569H0.576172L4.33059 301.988H20.3046L31.8558 305.51C37.5171 307.043 41.4029 311.978 41.3508 317.569Z" fill="#333333"/>
<path d="M22.8201 306.112C22.774 306.112 22.7278 306.094 22.6927 306.059C22.6221 305.989 22.6221 305.875 22.6927 305.804L25.245 303.253C25.3155 303.182 25.4295 303.182 25.5 303.253C25.5705 303.323 25.5705 303.437 25.5 303.508L22.9476 306.059C22.9125 306.094 22.8663 306.112 22.8201 306.112Z" fill="#363E44"/>
<path d="M25.7219 306.982C25.6757 306.982 25.6295 306.964 25.5944 306.929C25.5239 306.859 25.5239 306.744 25.5944 306.674L28.1469 304.122C28.2174 304.052 28.3314 304.052 28.4019 304.122C28.4724 304.193 28.4724 304.307 28.4019 304.377L25.8494 306.929C25.814 306.964 25.768 306.982 25.7219 306.982Z" fill="#363E44"/>
<path d="M92.8463 310.157L77.1006 309.921L77.5869 286.59L93.6329 289.263L92.8463 310.157Z" fill="#FEBBBA"/>
<path d="M114.531 317.569H73.7561L77.2675 301.988H93.4845L105.036 305.51C110.697 307.043 114.583 311.978 114.531 317.569Z" fill="#333333"/>
<path d="M96.0108 306.37C95.9647 306.37 95.9185 306.352 95.8833 306.317C95.8128 306.247 95.8128 306.133 95.8833 306.062L98.4359 303.511C98.5064 303.44 98.6203 303.44 98.6909 303.511C98.7614 303.581 98.7614 303.695 98.6909 303.766L96.1383 306.317C96.1031 306.353 96.057 306.37 96.0108 306.37Z" fill="#363E44"/>
<path d="M98.9129 307.24C98.8668 307.24 98.8206 307.223 98.7854 307.188C98.7149 307.117 98.7149 307.003 98.7854 306.933L101.338 304.381C101.408 304.31 101.522 304.31 101.593 304.381C101.663 304.452 101.663 304.566 101.593 304.636L99.0404 307.188C99.0052 307.223 98.9591 307.24 98.9129 307.24Z" fill="#363E44"/>
<path d="M40.1461 153.166C40.1461 153.166 30.4212 174.795 23.8569 201.043C17.2926 227.29 5.62268 293.151 5.62268 293.151H23.6136C23.6136 293.151 59.1094 252.565 62.27 196.911L73.2105 152.922L40.1461 153.166Z" fill="#333333"/>
<path d="M54.7334 205.174C54.7334 205.174 73.2107 231.908 74.6694 291.693H95.3347C95.3347 291.693 110.408 258.155 101.899 222.916C93.3897 187.676 79.5319 149.763 79.5319 149.763H57.4077L54.7334 205.174Z" fill="#333333"/>
<path d="M60.6573 211.872C60.6452 211.872 60.6328 211.871 60.6205 211.868C60.5231 211.848 60.4604 211.753 60.4806 211.655L64.1804 193.791C64.1899 193.745 64.217 193.704 64.2559 193.678L69.6391 190.036C69.722 189.98 69.8338 190.002 69.8896 190.084C69.9455 190.167 69.9238 190.279 69.8412 190.335L64.5185 193.936L60.8337 211.728C60.8162 211.813 60.741 211.872 60.6573 211.872Z" fill="#F2E6DC"/>
<path d="M78.487 104.967C73.5256 103.907 65.5281 102.514 58.2612 103.297C49.7912 104.21 36.9845 108.346 31.462 111.641C19.1158 119.006 14.2163 125.38 14.2163 125.38L32.9383 129.589L24.156 155.121C21.1086 163.981 22.4232 174.072 27.5609 181.908L40.7972 181.722L38.7478 167.557L45.1297 180.348L81.8503 155.665L83.226 132.947L106.949 126.35C106.949 126.35 87.191 106.828 78.487 104.967Z" fill="#007BFF"/>
<path d="M82.5119 140.885C82.5119 140.885 93.0014 148.61 101.015 146.112C109.029 143.614 110.596 137.866 110.105 134.385C109.613 130.904 96.5705 108.475 76.5247 104.324C76.5247 104.324 74.6345 129.835 82.5119 140.885Z" fill="#007BFF"/>
<path d="M82.7271 140.926C82.726 140.926 82.7251 140.926 82.724 140.926C82.6243 140.924 82.5452 140.842 82.5468 140.743L82.6016 137.496C82.6036 137.397 82.6946 137.318 82.785 137.319C82.8847 137.321 82.9639 137.403 82.9623 137.502L82.9074 140.749C82.9056 140.847 82.8254 140.926 82.7271 140.926Z" fill="#363E44"/>
<path d="M33.2448 185.21L44.9123 172.604L40.8766 157.296L28.52 157.41L16.8524 170.017L23.082 183.06L33.2448 185.21Z" fill="white"/>
<path d="M128.051 82.7728L44.9124 172.603L28.52 157.41L111.658 67.5796L122.646 72.1597L128.051 82.7728Z" fill="#E16A4B"/>
<path d="M7.27763 180.363C-0.453749 188.717 -1.53193 197.801 2.99484 201.996C7.52143 206.192 15.9386 203.91 23.67 195.556L33.4874 184.948L17.095 169.755L7.27763 180.363Z" fill="#363E44"/>
<path d="M111.658 67.5798L128.051 82.7729L133.048 70.4134L131.398 64.1946L123.59 61.647L111.658 67.5798Z" fill="#F2E6DC"/>
<path d="M123.59 61.647L133.048 70.4135L139.866 53.5544L123.59 61.647Z" fill="#40484C"/>
<path d="M66.1275 136.26C64.2957 136.814 56.3141 137.904 55.0626 141.44C53.8023 145.002 55.2375 148.91 57.6009 151.841C57.616 151.843 57.633 151.845 57.6479 151.848C58.5842 152.308 60.0564 152.854 61.7764 152.651C63.7371 152.42 64.1417 151.437 66.1742 150.872C69.6049 149.917 71.8608 151.868 72.439 150.747C72.8359 149.978 71.5709 148.785 70.1319 147.997C68.6546 147.189 67.3554 147.288 67.3559 147.012C67.3566 146.709 68.6887 146.778 70.3538 146.713C71.1275 146.682 73.2973 147.904 73.9941 146.932C74.5497 146.158 72.6152 144.322 70.3317 143.852C68.7163 143.52 67.3099 144.294 67.2208 144.007C67.1539 143.792 68.0033 143.351 68.8476 143.189C70.2406 142.92 72.474 144.146 73.0981 143.24C73.7094 142.351 71.9916 140.778 69.9192 140.213C68.1721 139.737 66.6449 140.674 66.532 140.318C66.4526 140.068 67.0497 139.507 68.5915 138.753C69.8785 138.124 72.7836 137.728 72.332 136.288C71.9524 135.078 68.8923 135.422 66.1275 136.26Z" fill="#FEBBBA"/>
<path d="M26.9228 144.333C22.8939 145.606 20.0912 149.347 20.1846 153.551C20.2458 156.308 21.5609 159.168 25.8477 160.937C36.285 165.244 59.9377 150.557 59.9377 150.557L62.8509 137.032C49.236 139.29 38.0122 140.83 26.9228 144.333Z" fill="#FEBBBA"/>
<path d="M40.754 140.836L42.7087 161.024L24.8045 163.792C13.3064 165.569 0.332745 154.097 3.0245 142.782C5.37994 132.882 11.2015 127.338 22.8965 117.406L38.1796 121.948L31.6157 141.199L40.754 140.836Z" fill="#007BFF"/>
<path d="M31.6156 141.379C31.5964 141.379 31.5767 141.376 31.5576 141.37C31.4633 141.338 31.4128 141.235 31.4451 141.141L34.4109 132.442C34.443 132.348 34.5462 132.297 34.6397 132.33C34.7341 132.362 34.7846 132.464 34.7523 132.558L31.7864 141.257C31.7608 141.332 31.6907 141.379 31.6156 141.379Z" fill="#363E44"/>
<path d="M22.2382 164.171C21.1529 164.171 20.0762 164.064 19.0164 163.852C18.9187 163.833 18.8554 163.738 18.875 163.64C18.8945 163.542 18.9894 163.479 19.0873 163.498C20.947 163.871 22.8612 163.91 24.777 163.613L42.513 160.872L42.0611 156.205C42.0513 156.106 42.124 156.018 42.223 156.008C42.3234 155.999 42.4102 156.071 42.4199 156.17L42.8884 161.007C42.8978 161.102 42.8311 161.187 42.7364 161.202L24.832 163.97C23.9657 164.104 23.0992 164.171 22.2382 164.171Z" fill="#363E44"/>
<path d="M28.9074 141.487C28.8111 141.487 28.7312 141.411 28.7274 141.314C28.7235 141.214 28.8008 141.13 28.9004 141.126L40.7467 140.656C40.8484 140.652 40.9302 140.729 40.934 140.829C40.9382 140.928 40.8606 141.012 40.7611 141.016L28.9148 141.487C28.9123 141.487 28.9097 141.487 28.9074 141.487Z" fill="#363E44"/>
<path d="M82.42 126.078L95.1319 140.154C98.5725 143.964 104.476 144.196 108.205 140.666C112.251 136.836 111.958 130.309 107.584 126.857L92.9063 115.274L82.42 126.078Z" fill="#FEBBBA"/>
<path d="M90.7179 122.45C92.8126 122.789 93.4515 123.861 93.2632 125.027C93.075 126.192 92.1308 127.01 90.0361 126.672C87.9414 126.333 85.4893 124.968 85.6776 123.803C85.8658 122.637 88.6232 122.112 90.7179 122.45Z" fill="#FEBBBA"/>
<path d="M90.91 118.346C93.3377 118.738 94.0783 119.981 93.8601 121.332C93.6419 122.683 92.5477 123.63 90.1198 123.238C87.692 122.846 84.85 121.264 85.0682 119.913C85.2864 118.562 88.482 117.954 90.91 118.346Z" fill="#FEBBBA"/>
<path d="M91.8098 115.69C93.9045 116.028 94.8487 115.211 95.0369 114.045C95.2252 112.88 94.5863 111.807 92.4916 111.469C90.3969 111.131 87.6397 111.656 87.4513 112.821C87.2628 113.987 89.7149 115.352 91.8098 115.69Z" fill="#FEBBBA"/>
<path d="M90.6998 119.647C93.1276 120.039 94.222 119.092 94.4402 117.741C94.6584 116.39 93.9178 115.147 91.49 114.755C89.0623 114.363 85.8665 114.971 85.6483 116.322C85.4301 117.673 88.2721 119.255 90.6998 119.647Z" fill="#FEBBBA"/>
<path d="M45.7191 112.738L44.7812 112.724C41.9971 112.679 39.7762 110.386 39.8207 107.602L40.1038 89.896C40.1484 87.1119 42.4413 84.8912 45.2253 84.9357L46.1632 84.9507C48.9473 84.9952 51.1682 87.2881 51.1237 90.0722L50.8406 107.778C50.796 110.562 48.503 112.783 45.7191 112.738Z" fill="#FEBBBA"/>
<path d="M58.6626 95.8673C57.9621 99.2933 48.0341 99.7762 48.0341 99.7762L38.3691 96.8814C35.0087 93.2873 35.1991 87.6508 38.7945 84.2915C42.3899 80.9323 48.0287 81.1228 51.3891 84.7169C51.3891 84.7169 59.3762 92.3777 58.6626 95.8673Z" fill="#FEBBBA"/>
<path d="M52.241 87.1273C52.241 87.1273 55.8549 87.3336 56.2298 87.9292C56.6774 88.6402 54.987 90.9082 54.987 90.9082C54.987 90.9082 52.2938 87.0865 52.241 87.1273Z" fill="#FEBBBA"/>
<path d="M45.3342 90.7033C45.3342 90.7033 46.0691 89.4186 47.4026 88.5867C47.6863 88.4098 48.5677 91.0131 48.2182 91.0526C46.6815 91.2262 45.3342 90.7033 45.3342 90.7033Z" fill="white"/>
<mask id="mask0_33_2435" style="mask-type:luminance" maskUnits="userSpaceOnUse" x="45" y="87" width="8" height="5">
<path d="M45.3342 90.7031C45.3342 90.7031 46.4151 88.8136 48.3336 88.1342C50.2521 87.4547 52.2821 88.2425 52.2821 88.2425C52.2821 88.2425 51.2012 90.132 49.2827 90.8115C47.364 91.491 45.3342 90.7031 45.3342 90.7031Z" fill="white"/>
</mask>
<g mask="url(#mask0_33_2435)">
<path d="M47.4226 88.4933C47.7542 87.0617 49.184 86.1696 50.6162 86.501C52.0484 86.8325 52.9406 88.2617 52.609 89.6935C52.2774 91.1252 50.8476 92.0171 49.4154 91.6858C47.9832 91.3544 47.091 89.9249 47.4226 88.4933Z" fill="#363E44"/>
</g>
<path d="M30.8081 90.5886C30.8081 90.5886 34.1335 100.367 41.2289 98.8207L41.6141 96.6389L45.7227 95.4212L41.4882 92.777C40.0093 91.6271 39.9523 89.4123 41.3699 88.1881L47.5586 82.8433L44.5058 79.7043C38.2187 80.8511 33.4079 84.1262 30.8081 90.5886Z" fill="#363E44"/>
<path d="M36.7547 83.6169C36.2161 84.3847 35.1568 84.5708 34.3886 84.0325C33.6204 83.4942 33.0324 82.1535 33.5708 81.3857C34.1095 80.6178 35.5709 80.7136 36.3389 81.2519C37.1071 81.7901 37.2932 82.849 36.7547 83.6169Z" fill="#363E44"/>
<path d="M38.0242 83.1266C37.1803 83.5361 36.164 83.1841 35.7543 82.3406C35.3446 81.497 35.4822 80.0394 36.3263 79.6299C37.1702 79.2204 38.401 80.0138 38.8107 80.8576C39.2202 81.7011 38.8682 82.7171 38.0242 83.1266Z" fill="#363E44"/>
<path d="M40.7614 82.1012C39.5382 82.4483 38.2651 81.7385 37.9178 80.5159C37.5705 79.2933 38.0986 77.3806 39.3218 77.0334C40.545 76.6863 41.9999 78.0359 42.3472 79.2587C42.6945 80.4815 41.9845 81.7541 40.7614 82.1012Z" fill="#363E44"/>
<path d="M34.874 85.5473C34.3604 86.3321 33.3076 86.5523 32.5225 86.0391C31.7373 85.5259 31.1062 84.2048 31.6197 83.4198C32.1333 82.635 33.5969 82.6836 34.3822 83.1968C35.1672 83.7102 35.3875 84.7626 34.874 85.5473Z" fill="#363E44"/>
<path d="M42.6251 81.0125C41.592 80.5505 41.1291 79.3389 41.5913 78.3062C42.0534 77.2734 43.5074 76.2703 44.5405 76.7324C45.5736 77.1944 45.7945 78.9467 45.3323 79.9794C44.8703 81.0118 43.6582 81.4745 42.6251 81.0125Z" fill="#363E44"/>
<path d="M33.692 87.4336C33.243 88.5123 32.0042 89.023 30.9249 88.574C29.8458 88.1252 28.7701 86.6517 29.2192 85.573C29.6682 84.4943 31.4718 84.2185 32.5511 84.6676C33.6303 85.1166 34.141 86.3549 33.692 87.4336Z" fill="#363E44"/>
<path d="M32.3254 89.0688C32.3843 89.979 31.6942 90.7647 30.7837 90.8236C29.8733 90.8826 28.611 90.2237 28.5518 89.3136C28.4929 88.4034 29.6594 87.5869 30.5699 87.528C31.4804 87.4688 32.2662 88.1587 32.3254 89.0688Z" fill="#363E44"/>
<path d="M44.709 82.5725C43.69 81.6427 43.618 80.063 44.5481 79.0445C45.4783 78.026 47.5454 77.4209 48.5642 78.3508C49.5832 79.2806 49.1683 81.3933 48.2382 82.412C47.3081 83.4305 45.728 83.5024 44.709 82.5725Z" fill="#363E44"/>
<path d="M37.1306 98.0874C37.712 99.6815 39.4761 100.503 41.0709 99.9215C42.6658 99.3403 43.4873 97.5769 42.9058 95.9828C42.3244 94.3887 40.5603 93.5675 38.9656 94.1485C37.3706 94.7299 36.5492 96.4933 37.1306 98.0874Z" fill="#FEBBBA"/>
<path d="M55.8058 89.6309L60.1779 95.7007C60.7867 96.5457 60.5669 97.7256 59.6964 98.2976C59.4775 98.4415 59.2389 98.5946 58.9829 98.754C54.5531 101.512 49.0109 101.789 44.331 99.4802C42.7633 98.7068 41.836 97.0459 42.0003 95.3061L42.0544 94.7327L43.6701 94.3425C43.6701 94.3425 47.2069 96.5991 48.5356 95.7993C49.8642 94.9996 51.1263 92.198 55.8058 89.6309Z" fill="#363E44"/>
<path d="M53.5843 94.056C53.1338 94.056 52.6967 93.8404 52.4246 93.47C52.3656 93.3897 52.3827 93.2768 52.4632 93.2179C52.5432 93.1585 52.6561 93.176 52.7151 93.2563C52.9558 93.5838 53.3679 93.7498 53.7657 93.6793C54.1781 93.6059 54.5115 93.2941 54.615 92.885C54.6395 92.7885 54.7375 92.7297 54.8341 92.7544C54.9308 92.7788 54.989 92.8769 54.9649 92.9735C54.8264 93.5197 54.3806 93.9361 53.8288 94.0344C53.7475 94.049 53.6656 94.056 53.5843 94.056Z" fill="#FEBBBA"/>
<path d="M35.3986 90.3025C35.3042 90.3025 35.2246 90.229 35.2189 90.1334C35.2127 90.034 35.2885 89.9484 35.3876 89.9422L39.8881 89.6658C39.9923 89.6604 40.0729 89.7352 40.0792 89.8348C40.0854 89.9341 40.0096 90.0198 39.9104 90.0259L35.41 90.3024C35.406 90.3025 35.4022 90.3025 35.3986 90.3025Z" fill="#FEBBBA"/>
<path d="M314.368 108.372H146.592V201.794H314.368V108.372Z" fill="white"/>
<path d="M318.445 205.955H150.67C150.57 205.955 150.49 205.874 150.49 205.774V112.352C150.49 112.252 150.57 112.172 150.67 112.172H318.445C318.545 112.172 318.626 112.252 318.626 112.352V205.774C318.626 205.874 318.545 205.955 318.445 205.955ZM150.85 205.594H318.265V112.532H150.85V205.594Z" fill="#333333"/>
<path d="M249.361 125.373H160.48V189.229H249.361V125.373Z" fill="#F2F2F2"/>
<path d="M245.437 179.245H165.034V183.41H245.437V179.245Z" fill="#333333"/>
<path d="M293.835 146.989H262.846C258.342 146.989 254.677 143.325 254.677 138.82C254.677 134.3 258.341 130.635 262.846 130.635H293.835C298.339 130.635 302.004 134.3 302.004 138.804C302.004 143.324 298.339 146.989 293.835 146.989ZM262.846 130.996C258.54 130.996 255.037 134.499 255.037 138.804C255.037 143.126 258.54 146.629 262.846 146.629H293.835C298.14 146.629 301.644 143.126 301.644 138.82C301.644 134.499 298.14 130.996 293.835 130.996H262.846Z" fill="#007BFF"/>
<path d="M293.835 173.331H262.846C258.434 173.331 254.857 169.754 254.857 165.342V165.326C254.857 160.914 258.434 157.337 262.846 157.337H293.835C298.247 157.337 301.824 160.914 301.824 165.326V165.342C301.824 169.754 298.247 173.331 293.835 173.331Z" fill="#007BFF"/>
<path d="M288.424 189.083C288.405 189.083 288.387 189.08 288.368 189.074C288.298 189.051 288.249 188.988 288.244 188.913L286.752 163.715C286.748 163.642 286.788 163.573 286.854 163.542C286.92 163.51 287 163.522 287.054 163.571L305.66 180.616C305.715 180.665 305.733 180.744 305.706 180.813C305.68 180.882 305.614 180.928 305.539 180.929L295.166 181.01L288.563 189.018C288.529 189.06 288.477 189.083 288.424 189.083ZM287.138 164.138L288.577 188.434L294.942 180.716C294.976 180.675 295.026 180.651 295.079 180.65L305.079 180.572L287.138 164.138Z" fill="#776E42"/>
<path opacity="0.5" d="M78.7037 1.72461H155.548V22.7869H148.305V38.2354L132.851 22.7869H78.7037V1.72461Z" fill="white"/>
<path d="M145.927 40.7923C145.88 40.7923 145.834 40.774 145.8 40.7395L130.399 25.3438H76.326C76.2262 25.3438 76.1456 25.2631 76.1456 25.1635V4.10123C76.1456 4.00169 76.2262 3.9209 76.326 3.9209H153.17C153.27 3.9209 153.35 4.00169 153.35 4.10123V25.1635C153.35 25.2631 153.27 25.3438 153.17 25.3438H146.108V40.612C146.108 40.6849 146.064 40.7507 145.996 40.7786C145.974 40.788 145.95 40.7923 145.927 40.7923ZM76.5063 24.9832H130.473C130.521 24.9832 130.567 25.0021 130.601 25.036L145.747 40.1767V25.1635C145.747 25.064 145.828 24.9832 145.927 24.9832H152.99V4.28155H76.5063V24.9832Z" fill="#333333"/>
<path d="M144.207 12.0174L140.785 12.4503L143.21 14.9023L142.565 18.2897L145.647 16.7416L148.67 18.4021L148.15 14.9932L150.664 12.6321L147.26 12.0735L145.79 8.95361L144.207 12.0174Z" fill="#E16A4B"/>
<path d="M129.941 12.0174L126.518 12.4503L128.944 14.9023L128.298 18.2897L131.381 16.7416L134.404 18.4021L133.883 14.9932L136.398 12.6321L132.994 12.0735L131.524 8.95361L129.941 12.0174Z" fill="#E16A4B"/>
<path d="M115.675 12.0174L112.252 12.4503L114.678 14.9023L114.032 18.2897L117.114 16.7416L120.138 18.4021L119.617 14.9932L122.131 12.6321L118.727 12.0735L117.258 8.95361L115.675 12.0174Z" fill="#E16A4B"/>
<path d="M101.408 12.0174L97.9857 12.4503L100.411 14.9023L99.7656 18.2897L102.848 16.7416L105.871 18.4021L105.351 14.9932L107.865 12.6321L104.461 12.0735L102.991 8.95361L101.408 12.0174Z" fill="#E16A4B"/>
<path d="M87.1418 12.0174L83.7194 12.4503L86.1449 14.9023L85.4992 18.2897L88.5817 16.7416L91.6049 18.4021L91.0845 14.9932L93.5986 12.6321L90.1946 12.0735L88.7251 8.95361L87.1418 12.0174Z" fill="#E16A4B"/>
</svg>
