<svg width="332" height="330" viewBox="0 0 332 330" fill="none" xmlns="http://www.w3.org/2000/svg">
<path d="M166.467 330C257.594 330 331.467 256.127 331.467 165C331.467 73.873 257.594 0 166.467 0C75.3398 0 1.4668 73.873 1.4668 165C1.4668 256.127 75.3398 330 166.467 330Z" fill="#F2F2F2"/>
<path d="M161.394 261.899H307.176V84.5742L161.394 84.5742L161.394 261.899Z" fill="white"/>
<path d="M161.449 234.001L307.23 234.001V207.263L161.449 207.263V234.001Z" fill="#F7F1EB"/>
<path d="M256.07 146.432H212.611C212.391 146.432 212.213 146.254 212.213 146.034C212.213 145.815 212.391 145.637 212.611 145.637H256.07C256.289 145.637 256.467 145.815 256.467 146.034C256.467 146.254 256.289 146.432 256.07 146.432Z" fill="#8B865C"/>
<path d="M271.271 155.576H211.632C211.412 155.576 211.234 155.399 211.234 155.179C211.234 154.959 211.412 154.781 211.632 154.781H271.271C271.49 154.781 271.668 154.959 271.668 155.179C271.668 155.399 271.49 155.576 271.271 155.576Z" fill="#AAAAAA"/>
<path d="M206.86 155.576H197.409C197.19 155.576 197.012 155.399 197.012 155.179C197.012 154.959 197.19 154.781 197.409 154.781H206.86C207.08 154.781 207.258 154.959 207.258 155.179C207.258 155.399 207.08 155.576 206.86 155.576Z" fill="#AAAAAA"/>
<path d="M271.27 163.329H254.55C254.33 163.329 254.152 163.152 254.152 162.932C254.152 162.712 254.33 162.534 254.55 162.534H271.27C271.489 162.534 271.667 162.712 271.667 162.932C271.667 163.152 271.489 163.329 271.27 163.329Z" fill="#AAAAAA"/>
<path d="M241.451 163.329H197.409C197.19 163.329 197.012 163.152 197.012 162.932C197.012 162.712 197.19 162.534 197.409 162.534H241.451C241.67 162.534 241.848 162.712 241.848 162.932C241.848 163.152 241.67 163.329 241.451 163.329Z" fill="#AAAAAA"/>
<path d="M271.27 171.082H217.197C216.978 171.082 216.8 170.905 216.8 170.685C216.8 170.465 216.978 170.287 217.197 170.287H271.27C271.489 170.287 271.667 170.465 271.667 170.685C271.667 170.905 271.489 171.082 271.27 171.082Z" fill="#AAAAAA"/>
<path d="M207.854 171.082H197.409C197.19 171.082 197.012 170.905 197.012 170.685C197.012 170.465 197.19 170.287 197.409 170.287H207.854C208.074 170.287 208.252 170.465 208.252 170.685C208.252 170.905 208.074 171.082 207.854 171.082Z" fill="#AAAAAA"/>
<path d="M303.264 43.3936C309.639 37.0186 309.639 26.6826 303.264 20.3076C296.889 13.9325 286.553 13.9325 280.178 20.3076C273.803 26.6826 273.803 37.0186 280.178 43.3936C286.553 49.7686 296.889 49.7686 303.264 43.3936Z" fill="#E14C62"/>
<path d="M248.531 48.1552C257.529 47.5953 264.37 39.8466 263.81 30.848C263.25 21.8494 255.502 15.0084 246.503 15.5683C237.505 16.1282 230.664 23.8768 231.224 32.8755C231.784 41.8741 239.532 48.715 248.531 48.1552Z" fill="#AAAAAA"/>
<path d="M214.841 43.3936C221.216 37.0186 221.216 26.6826 214.841 20.3076C208.466 13.9325 198.13 13.9325 191.755 20.3076C185.38 26.6826 185.38 37.0186 191.755 43.3936C198.13 49.7686 208.466 49.7686 214.841 43.3936Z" fill="#FF7701"/>
<path d="M170.629 43.3926C177.004 37.0176 177.004 26.6816 170.629 20.3066C164.254 13.9315 153.918 13.9316 147.543 20.3066C141.168 26.6816 141.168 37.0176 147.543 43.3926C153.918 49.7677 164.254 49.7677 170.629 43.3926Z" fill="#FFB300"/>
<path d="M208.416 301.288C208.394 301.288 208.372 301.286 208.351 301.282L158.803 293.061L108.177 301.283C108.061 301.302 107.944 301.269 107.856 301.193C107.767 301.117 107.716 301.006 107.716 300.89V233.843C107.716 233.623 107.894 233.445 108.113 233.445H117.014L119.758 229.159C119.831 229.045 119.957 228.976 120.093 228.976H138.383C138.524 228.976 138.655 229.05 138.726 229.172L141.239 233.445H208.416C208.635 233.445 208.813 233.623 208.813 233.843V300.89C208.813 301.007 208.762 301.118 208.673 301.193C208.601 301.255 208.509 301.288 208.416 301.288ZM108.511 234.24V300.423L158.74 292.265C158.782 292.258 158.826 292.259 158.869 292.266L208.018 300.421V234.241H141.011C140.87 234.241 140.74 234.166 140.669 234.045L138.156 229.771H120.31L117.567 234.057C117.494 234.172 117.368 234.241 117.232 234.241H108.511V234.24Z" fill="#AAAAAA"/>
<path d="M193.498 265.529H124.212C123.992 265.529 123.814 265.351 123.814 265.131V202.047C123.814 201.941 123.857 201.84 123.931 201.765L144.582 181.196C144.656 181.122 144.757 181.08 144.863 181.08H193.498C193.717 181.08 193.895 181.258 193.895 181.478V265.131C193.895 265.351 193.717 265.529 193.498 265.529ZM124.61 264.734H193.1V181.875H145.027L124.61 202.212V264.734Z" fill="#F7F1EB"/>
<path d="M144.862 202.445H127.912C127.693 202.445 127.515 202.267 127.515 202.047C127.515 201.827 127.693 201.649 127.912 201.649H144.465V184.688C144.465 184.468 144.643 184.29 144.862 184.29C145.082 184.29 145.26 184.468 145.26 184.688V202.047C145.26 202.267 145.082 202.445 144.862 202.445Z" fill="white"/>
<path d="M219.755 280.807H150.47C150.25 280.807 150.072 280.629 150.072 280.409V217.325C150.072 217.219 150.114 217.118 150.189 217.043L170.84 196.474C170.914 196.4 171.015 196.358 171.12 196.358H219.755C219.975 196.358 220.153 196.536 220.153 196.756V280.409C220.153 280.629 219.975 280.807 219.755 280.807ZM150.867 280.012H219.358V197.154H171.285L150.867 217.49V280.012Z" fill="#E6D0BE"/>
<path d="M171.12 217.722H154.077C153.858 217.722 153.68 217.544 153.68 217.324C153.68 217.105 153.858 216.927 154.077 216.927H170.723V201.154C170.723 200.935 170.901 200.757 171.12 200.757C171.34 200.757 171.518 200.935 171.518 201.154V217.324C171.518 217.544 171.34 217.722 171.12 217.722Z" fill="white"/>
<path d="M208.35 300.89H108.048L146.757 233.843H155.876L161.317 229.373H179.608L179.655 233.843H247.06L208.35 300.89Z" fill="#AAAAAA"/>
<path d="M216.07 97.3672H142.835V139.127H216.07V97.3672Z" fill="white"/>
<path d="M206.206 122.711C208.347 120.57 208.347 117.098 206.206 114.957C204.065 112.817 200.594 112.817 198.453 114.957C196.312 117.098 196.312 120.57 198.453 122.711C200.594 124.851 204.065 124.851 206.206 122.711Z" fill="#E14C62"/>
<path d="M187.825 124.31C190.847 124.122 193.144 121.52 192.956 118.498C192.768 115.476 190.166 113.179 187.144 113.367C184.122 113.555 181.824 116.157 182.012 119.179C182.2 122.201 184.803 124.498 187.825 124.31Z" fill="#AAAAAA"/>
<path d="M176.51 122.711C178.651 120.57 178.651 117.098 176.51 114.957C174.369 112.817 170.898 112.817 168.757 114.957C166.616 117.098 166.616 120.57 168.757 122.711C170.898 124.851 174.369 124.851 176.51 122.711Z" fill="#FF7701"/>
<path d="M161.663 122.711C163.804 120.57 163.804 117.098 161.663 114.957C159.522 112.817 156.051 112.817 153.91 114.957C151.769 117.098 151.769 120.57 153.91 122.711C156.051 124.851 159.522 124.851 161.663 122.711Z" fill="#FFB300"/>
<path d="M216.07 139.525H142.835C142.615 139.525 142.438 139.347 142.438 139.127V122.791C142.438 122.571 142.615 122.394 142.835 122.394C143.055 122.394 143.233 122.571 143.233 122.791V138.73H216.07C216.29 138.73 216.468 138.908 216.468 139.127C216.468 139.347 216.29 139.525 216.07 139.525Z" fill="#8B865C"/>
<path d="M216.07 131.357C215.85 131.357 215.672 131.179 215.672 130.959V97.765H172.194C171.974 97.765 171.796 97.5872 171.796 97.3674C171.796 97.1475 171.974 96.9697 172.194 96.9697H216.07C216.29 96.9697 216.468 97.1475 216.468 97.3674V130.959C216.468 131.179 216.29 131.357 216.07 131.357Z" fill="#F7F1EB"/>
<path d="M109.617 100.347C109.617 100.347 135.621 80.5143 144.646 74.5098C154.125 68.2039 169.037 60.2736 170.119 62.3739C170.736 63.5702 168.926 65.0723 163.821 68.7653C164.265 68.8367 165.559 69.3861 165.949 70.5896C166.526 72.3706 165.215 73.2318 165.136 73.362C165.289 73.3739 167.022 73.6036 167.61 74.7305C168.273 75.9996 167.875 77.1478 167.165 78.0191C167.544 78.0608 169.118 78.5019 169.628 79.6123C170.292 81.0559 169.287 82.4996 168.185 83.2099C166.162 84.5129 160.546 87.9357 157.807 90.1254C152.417 94.434 135.331 112.304 125.896 116.472C125.194 107.571 109.617 100.347 109.617 100.347Z" fill="#FEBBBA"/>
<path d="M151.766 85.0368C151.683 85.0368 151.599 85.0108 151.527 84.9563C151.352 84.824 151.317 84.5746 151.449 84.3995C152.902 82.4763 153.249 80.5365 153.528 78.9776C153.818 77.3557 154.069 75.9553 155.581 75.6671C156.456 75.5005 157.44 74.8495 158.427 73.7839C158.703 73.4857 158.573 73.1611 158.526 73.0691C158.428 72.8755 158.206 72.6829 157.879 72.7177L150.525 73.5405C150.303 73.5607 150.11 73.4078 150.086 73.1896C150.061 72.9714 150.218 72.7745 150.436 72.7501L157.791 71.9273C158.394 71.8593 158.962 72.1673 159.236 72.7108C159.508 73.2498 159.419 73.8829 159.01 74.3244C157.891 75.5322 156.787 76.2467 155.73 76.4483C154.797 76.6257 154.611 77.4403 154.311 79.1177C154.032 80.6735 153.651 82.8036 152.084 84.8784C152.006 84.9825 151.887 85.0368 151.766 85.0368Z" fill="#363E44"/>
<path d="M163.941 84.6445C163.811 84.6445 163.683 84.5804 163.607 84.4632C162.687 83.0426 162.761 81.2352 163.678 79.9038L163.532 79.9714C162.32 80.5314 160.883 80.1465 160.113 79.0559C159.68 78.4417 159.517 77.6966 159.655 76.9578C159.792 76.2188 160.212 75.5817 160.837 75.1644L161.388 74.7968C160.71 74.6893 160.086 74.2819 159.734 73.6412C159.173 72.6197 159.468 71.3422 160.421 70.6698L162.636 69.1078C162.815 68.9815 163.064 69.0239 163.19 69.2037C163.317 69.3831 163.274 69.6313 163.094 69.7578L160.88 71.3198C160.258 71.7582 160.065 72.5919 160.431 73.2586C160.82 73.9667 161.718 74.2366 162.433 73.863L164.089 72.9964C164.276 72.8984 164.507 72.9637 164.615 73.1458C164.723 73.3276 164.67 73.5617 164.494 73.6793L161.279 75.8261C160.833 76.1231 160.535 76.5769 160.437 77.1031C160.339 77.6297 160.455 78.1604 160.763 78.5981C161.311 79.3751 162.335 79.6495 163.199 79.2503L165.834 78.0311C166.019 77.9449 166.238 78.0129 166.342 78.1876C166.447 78.362 166.403 78.5872 166.24 78.7095L165.06 79.5983C163.681 80.6358 163.336 82.5829 164.275 84.0313C164.394 84.2158 164.341 84.462 164.157 84.5812C164.091 84.6239 164.016 84.6445 163.941 84.6445Z" fill="#363E44"/>
<path d="M138.327 76.5574L150.934 98.6524L130.404 115.244C125.216 119.437 117.959 119.936 112.247 116.492L80.4087 104.665L85.7767 70.9531C96.4806 73.8074 108.473 81.1568 120.81 89.7054L138.327 76.5574Z" fill="#E14C62"/>
<path d="M167.166 78.0191C167.875 77.148 168.273 75.9997 167.611 74.7305C167.023 73.6038 165.29 73.3741 165.137 73.3622C165.216 73.2318 166.527 72.3706 165.95 70.5896C165.56 69.3861 164.266 68.8367 163.821 68.7654C168.926 65.0723 170.736 63.5704 170.12 62.3739C169.037 60.2736 154.125 68.2039 144.647 74.5098C143.991 74.9464 143.243 75.4578 142.424 76.0274C146.269 81.8967 150.008 87.8355 153.606 93.8584C155.339 92.2504 156.785 90.9431 157.807 90.1255C160.546 87.9357 166.162 84.5129 168.185 83.2099C169.288 82.4996 170.292 81.056 169.629 79.6123C169.118 78.5019 167.544 78.0606 167.166 78.0191Z" fill="#FEBBBA"/>
<path d="M151.766 85.0368C151.683 85.0368 151.599 85.0108 151.527 84.9563C151.352 84.824 151.317 84.5746 151.449 84.3995C152.902 82.4763 153.249 80.5365 153.528 78.9776C153.818 77.3557 154.069 75.9553 155.581 75.6671C156.456 75.5005 157.44 74.8495 158.427 73.7839C158.703 73.4857 158.573 73.1611 158.526 73.0691C158.428 72.8755 158.206 72.6829 157.879 72.7177L150.525 73.5405C150.303 73.5607 150.11 73.4078 150.086 73.1896C150.061 72.9714 150.218 72.7745 150.436 72.7501L157.791 71.9273C158.394 71.8593 158.962 72.1673 159.236 72.7108C159.508 73.2498 159.419 73.8829 159.01 74.3244C157.891 75.5322 156.787 76.2467 155.73 76.4483C154.797 76.6257 154.611 77.4403 154.311 79.1177C154.032 80.6735 153.651 82.8036 152.084 84.8784C152.006 84.9825 151.887 85.0368 151.766 85.0368Z" fill="#363E44"/>
<path d="M163.942 84.6435C163.812 84.6435 163.684 84.5795 163.608 84.4622C162.688 83.0416 162.762 81.2342 163.679 79.9028L163.533 79.9705C162.321 80.5304 160.884 80.1456 160.114 79.0549C159.681 78.4407 159.518 77.6956 159.656 76.9568C159.793 76.2178 160.213 75.5807 160.838 75.1635L161.389 74.7958C160.711 74.6883 160.087 74.2809 159.735 73.6402C159.174 72.6187 159.469 71.3412 160.422 70.6688L162.637 69.1068C162.816 68.9806 163.065 69.0229 163.191 69.2027C163.318 69.3821 163.275 69.6303 163.095 69.7569L160.881 71.3189C160.259 71.7573 160.066 72.5909 160.432 73.2576C160.821 73.9657 161.719 74.2357 162.434 73.862L164.09 72.9954C164.277 72.8975 164.508 72.9627 164.616 73.1449C164.724 73.3266 164.671 73.5607 164.495 73.6783L161.28 75.8251C160.834 76.1221 160.535 76.576 160.438 77.1022C160.339 77.6287 160.456 78.1594 160.764 78.5971C161.312 79.3741 162.336 79.6486 163.199 79.2493L165.835 78.0301C166.02 77.9439 166.239 78.0119 166.343 78.1867C166.448 78.361 166.404 78.5863 166.241 78.7085L165.061 79.5974C163.682 80.6348 163.337 82.582 164.276 84.0304C164.395 84.2148 164.342 84.461 164.158 84.5802C164.092 84.6229 164.017 84.6435 163.942 84.6435Z" fill="#363E44"/>
<path d="M36.5173 73.1897C34.3959 73.8547 25.4683 161.577 25.4683 161.577L30.9318 175.803H46.3214H101.685L109.685 161.577L102.419 105.193C102.419 105.193 88.026 75.5444 85.7768 70.9523C85.7768 70.9523 53.5823 67.8392 36.5173 73.1897Z" fill="#E14C62"/>
<path d="M54.6648 128.49C54.6207 128.49 54.5756 128.483 54.5314 128.467C54.3244 128.394 54.2165 128.166 54.2903 127.959L66.459 93.7933C66.5154 93.635 66.6653 93.5293 66.8336 93.5293C66.8346 93.5293 66.8359 93.5293 66.837 93.5293L93.5143 93.7626C93.734 93.7646 93.9103 93.9439 93.9083 94.1637C93.9064 94.3819 93.7287 94.5577 93.5107 94.5577C93.5096 94.5577 93.5084 94.5577 93.5073 94.5577L67.1129 94.3267L55.0392 128.226C54.9815 128.389 54.8282 128.49 54.6648 128.49Z" fill="white"/>
<path d="M83.3468 130.426H56.6694L68.838 96.2598H95.5153L83.3468 130.426Z" fill="#FFB300"/>
<path d="M4.08878 132.468C4.08878 132.468 19.632 141.091 27.8603 128.021L39.6857 102.966L36.8044 73.127L36.5173 73.1903C29.0153 74.8433 22.3668 79.1595 17.8036 85.3391C17.8036 85.3391 11.5805 94.8291 9.63008 98.0696C5.13811 105.532 -5.96919 125.325 4.08878 132.468Z" fill="#E14C62"/>
<path d="M17.1836 111.751C26.3105 112.361 47.8752 112.735 49.9788 112.855C53.9112 113.08 74.9834 114.834 75.06 117.902C75.0966 119.369 71.0218 119.214 69.6457 119.122C70.7203 119.744 75.106 121.688 74.7192 123.285C74.2649 125.163 68.6845 123.647 68.5826 123.678C69.738 124.2 74.4244 126.09 74.1811 127.299C73.8646 128.873 68.9772 128.421 67.5205 128.218C67.6457 128.439 72.3549 129.585 72.0574 131.477C71.8388 132.866 67.3557 132.445 65.4103 132.268C61.9165 132.071 21.1566 131.977 13.5835 130.993C10.619 130.608 13.174 114.609 17.1836 111.751Z" fill="#FEBBBA"/>
<path d="M22.3104 112.202C22.3044 112.202 22.2983 112.202 22.2923 112.202C18.146 112.018 14.1307 111.838 12.8365 111.766C12.6174 111.753 12.4493 111.566 12.4616 111.347C12.4738 111.128 12.6637 110.965 12.8807 110.972C14.1709 111.044 18.1836 111.223 22.3275 111.407C22.5468 111.417 22.7168 111.603 22.7071 111.822C22.6977 112.035 22.5219 112.202 22.3104 112.202Z" fill="#363E44"/>
<path d="M69.7024 119.376C69.6499 119.376 69.5965 119.366 69.5453 119.344C68.8052 119.025 68.0365 118.755 67.2603 118.542C65.8666 118.159 64.4211 117.948 62.9642 117.915C62.7446 117.91 62.5707 117.728 62.5758 117.509C62.5805 117.289 62.7628 117.129 62.9821 117.12C64.5042 117.154 66.0146 117.375 67.4713 117.776C68.2826 117.999 69.0863 118.281 69.86 118.613C70.0617 118.7 70.1546 118.934 70.0679 119.136C70.0031 119.286 69.8564 119.376 69.7024 119.376Z" fill="#363E44"/>
<path d="M68.6672 123.979C68.6285 123.979 68.5892 123.974 68.5502 123.962C68.3886 123.912 68.2234 123.864 68.0548 123.818C66.662 123.434 65.2165 123.223 63.7582 123.191C63.5385 123.186 63.3647 123.003 63.3697 122.784C63.3746 122.565 63.5553 122.402 63.776 122.396C65.2996 122.43 66.81 122.65 68.2655 123.051C68.4418 123.099 68.6148 123.149 68.7841 123.201C68.994 123.266 69.1117 123.488 69.0474 123.698C68.9945 123.869 68.8371 123.979 68.6672 123.979Z" fill="#363E44"/>
<path d="M67.4281 128.568C67.4043 128.568 67.38 128.566 67.3555 128.562C66.4253 128.39 65.4721 128.292 64.5225 128.271C64.3029 128.266 64.1288 128.084 64.1339 127.864C64.1388 127.645 64.3337 127.457 64.54 127.476C65.5323 127.498 66.5283 127.6 67.4999 127.78C67.7159 127.82 67.8584 128.027 67.8187 128.243C67.7834 128.434 67.6162 128.568 67.4281 128.568Z" fill="#363E44"/>
<path d="M53.645 77.058L65.7692 75.096L70.5421 58.5028L59.8656 55.4316L53.645 77.058Z" fill="#FEBBBA"/>
<path d="M48.6205 74.7599C48.7175 76.9897 54.1275 78.5652 60.7039 78.279C67.2804 77.9927 72.5328 75.9532 72.4358 73.7234C72.3388 71.4937 66.9288 69.9181 60.3524 70.2045C53.776 70.4905 48.5233 72.5302 48.6205 74.7599Z" fill="#FEBBBA"/>
<path d="M77.2288 59.2939C76.2913 62.2442 67.6682 62.6469 67.6682 62.6469L59.2759 58.2857C56.6556 54.807 57.3514 49.8629 60.8302 47.2426C64.3089 44.6224 69.2529 45.3183 71.8733 48.7968C71.8733 48.7968 78.1838 56.2889 77.2288 59.2939Z" fill="#FEBBBA"/>
<path d="M72.397 50.9982C72.397 50.9982 75.5579 51.5185 75.8319 52.078C76.159 52.7458 74.4592 54.5841 74.4592 54.5841C74.4592 54.5841 72.4473 50.9674 72.397 50.9982Z" fill="#FEBBBA"/>
<path d="M66.5098 55.0101C66.5098 55.0101 67.1369 53.6486 68.4083 52.6913C68.6788 52.4875 69.7986 55.0361 69.4496 55.107C67.9149 55.4182 66.5098 55.0101 66.5098 55.0101Z" fill="white"/>
<mask id="mask0_193_1059" style="mask-type:luminance" maskUnits="userSpaceOnUse" x="66" y="51" width="8" height="5">
<path d="M66.5098 55.01C66.5098 55.01 67.4323 53.0077 69.3072 52.1518C71.1821 51.2962 73.2993 51.9111 73.2993 51.9111C73.2993 51.9111 72.3767 53.9135 70.5017 54.7693C68.6268 55.625 66.5098 55.01 66.5098 55.01Z" fill="white"/>
</mask>
<g mask="url(#mask0_193_1059)">
<path d="M68.4202 52.5953C68.6278 51.1213 69.9907 50.0945 71.4647 50.3021C72.9387 50.5096 73.9655 51.8727 73.7579 53.3467C73.5505 54.8207 72.1874 55.8473 70.7134 55.6399C69.2394 55.4324 68.2127 54.0693 68.4202 52.5953Z" fill="#363E44"/>
</g>
<path d="M73.0616 57.4684C72.5314 57.4684 72.0279 57.1815 71.7582 56.7182C71.6476 56.5287 71.712 56.2853 71.9017 56.1747C72.0921 56.0645 72.3349 56.1286 72.4456 56.3184C72.5814 56.5514 72.8441 56.6959 73.1081 56.6713C73.3844 56.6524 73.6258 56.4699 73.7232 56.2066C73.7997 56.0009 74.0289 55.8968 74.2341 55.9713C74.44 56.0478 74.5453 56.2761 74.4692 56.4824C74.2638 57.038 73.7515 57.4235 73.1636 57.4646C73.1294 57.4671 73.0953 57.4684 73.0616 57.4684Z" fill="#363E44"/>
<path d="M67.7494 63.1528C67.5384 63.1528 67.3626 62.9871 67.3525 62.7738C67.3422 62.5545 67.5117 62.3684 67.731 62.358C67.7802 62.3556 72.692 62.1111 75.3798 60.7478C75.576 60.6468 75.8147 60.7273 75.9143 60.9226C76.0135 61.1182 75.9352 61.3575 75.7394 61.4569C72.8988 62.8977 67.9764 63.1427 67.7683 63.1525C67.762 63.1528 67.7557 63.1528 67.7494 63.1528Z" fill="#363E44"/>
<path d="M67.4682 47.0694C68.7435 46.6168 69.641 45.4632 69.7555 44.1147C69.96 41.7068 69.9308 38.0151 68.126 36.4154C67.7823 36.1109 67.4832 35.9648 67.0663 35.8965C64.7438 35.5169 63.9554 39.8366 59.9036 42.8551C55.9994 45.7638 52.3546 45.0129 51.4093 47.8226C50.9936 49.058 51.3617 50.243 51.4401 50.5337C52.4758 54.3737 56.1835 55.0264 56.1835 55.0264C56.1835 55.0264 53.722 54.8085 53.8719 58.0775C54.0221 61.3465 63.8775 58.5621 63.8775 58.5621L64.6773 57.0143L62.5312 54.2574C60.8992 52.1606 61.7987 49.0817 64.3026 48.193L67.4682 47.0694Z" fill="#363E44"/>
<path d="M58.073 59.2308C58.4353 60.6886 59.9108 61.5767 61.3685 61.2146C62.8263 60.8525 63.7146 59.3771 63.3523 57.9191C62.99 56.4614 61.5148 55.5732 60.0568 55.9353C58.5991 56.2974 57.7109 57.7729 58.073 59.2308Z" fill="#FEBBBA"/>
<path d="M25.9365 329.999H60.6799C60.6799 329.999 57.5177 302.036 46.3314 295.545H36.3052C36.3052 295.545 26.9015 311.281 25.9365 329.999Z" fill="#E6D0BE"/>
<path d="M32.3721 279.84C32.5322 280.357 34.3187 291.101 35.4283 297.817C35.9357 300.888 38.5914 303.14 41.7046 303.14C45.2181 303.14 48.0662 300.292 48.0662 296.779V281.596L32.3721 279.84Z" fill="#FEBBBA"/>
<path d="M72.6481 294.578C72.6481 294.578 70.0063 311.885 71.032 329.999H124.025C124.025 329.999 118.713 305.334 89.5751 294.578H72.6481Z" fill="#E6D0BE"/>
<path d="M74.7881 280.326C74.5351 280.744 73.6798 287.631 72.9681 293.685C72.3945 298.563 76.2275 302.838 81.1391 302.798C84.7902 302.768 87.977 300.317 88.9424 296.795L94.5546 276.325L74.7881 280.326Z" fill="#FEBBBA"/>
<path d="M38.7795 145.405C30.721 171.788 15.2141 234.261 31.1854 282.843H51.6282C51.6282 282.843 64.7649 194.805 66.2986 179.324H69.2814C69.2814 179.324 70.5749 236.771 72.6481 281.596H95.5702C95.5702 281.596 115.72 212.398 97.6639 145.405L90.9132 139.678H48.0321L38.7795 145.405Z" fill="#333333"/>
<path d="M254.437 115.575C266.244 115.575 275.815 106.004 275.815 94.197C275.815 82.3905 266.244 72.8193 254.437 72.8193C242.631 72.8193 233.06 82.3905 233.06 94.197C233.06 106.004 242.631 115.575 254.437 115.575Z" fill="#E14C62"/>
<path d="M256.727 134.212H293.571V97.368H256.727V134.212Z" fill="#FFB300"/>
</svg>
