<svg width="429" height="330" viewBox="0 0 429 330" fill="none" xmlns="http://www.w3.org/2000/svg">
<path d="M428.305 291.312H0V291.527H428.305V291.312Z" fill="#F2F2F2"/>
<path d="M385.39 305.101H357.017V305.315H385.39V305.101Z" fill="#F2F2F2"/>
<path d="M283.727 307.425H276.28V307.639H283.727V307.425Z" fill="#F2F2F2"/>
<path d="M356.16 297.146H339.72V297.36H356.16V297.146Z" fill="#F2F2F2"/>
<path d="M81.9365 298.586H44.9369V298.8H81.9365V298.586Z" fill="#F2F2F2"/>
<path d="M94.9888 298.586H89.5638V298.8H94.9888V298.586Z" fill="#F2F2F2"/>
<path d="M192.863 302.203H112.62V302.417H192.863V302.203Z" fill="#F2F2F2"/>
<path d="M203.029 253.109H37.618C34.9223 253.109 32.7285 250.916 32.7285 248.22V15.7084C32.7285 13.0126 34.9223 10.8188 37.618 10.8188H203.029C205.724 10.8188 207.917 13.0126 207.917 15.7084V248.22C207.917 250.916 205.724 253.109 203.029 253.109ZM37.618 11.0339C35.0397 11.0339 32.9427 13.1308 32.9427 15.7092V248.221C32.9427 250.799 35.0397 252.896 37.618 252.896H203.029C205.606 252.896 207.703 250.799 207.703 248.221V15.7084C207.703 13.1308 205.606 11.033 203.029 11.033L37.618 11.0339Z" fill="#F2F2F2"/>
<path d="M388.31 253.109H222.9C220.205 253.109 218.012 250.916 218.012 248.22V15.7084C218.012 13.0126 220.205 10.8188 222.9 10.8188H388.31C391.007 10.8188 393.2 13.0126 393.2 15.7084V248.22C393.201 250.916 391.007 253.109 388.31 253.109ZM222.9 11.0339C220.323 11.0339 218.226 13.1308 218.226 15.7092V248.221C218.226 250.799 220.323 252.896 222.9 252.896H388.31C390.889 252.896 392.986 250.799 392.986 248.221V15.7084C392.986 13.1308 390.889 11.033 388.31 11.033L222.9 11.0339Z" fill="#F2F2F2"/>
<path d="M237.905 101.397L237.519 90.1405L244.43 87.8825C244.715 84.0363 245.357 80.2381 246.273 76.5786L240.415 72.2596L244.394 61.6865L251.64 62.2698C253.367 58.8511 255.396 55.5985 257.67 52.5473L253.917 46.2829L261.634 38.05L268.111 41.3668C271.029 38.8869 274.104 36.6417 277.397 34.6561L276.348 27.4657L286.625 22.8015L291.334 28.3198C294.922 27.1556 298.638 26.2853 302.484 25.708L304.235 18.6598L315.521 18.2734L317.75 25.1854C321.626 25.4981 325.395 26.1123 329.053 27.028L333.403 21.1988L343.975 25.1486L343.391 32.3947C346.811 34.1507 350.062 36.1792 353.114 38.4543L359.348 34.7024L367.611 42.387L364.295 48.8938C366.773 51.7823 369.02 54.8884 370.977 58.1812L378.166 57.1027L382.86 67.3786L377.312 72.0883C378.475 75.6766 379.377 79.4226 379.924 83.2396L387.003 85.018L387.388 96.2747L380.448 98.5353C380.165 102.41 379.52 106.18 378.606 109.838L384.462 114.157L380.483 124.731L373.238 124.146C371.511 127.565 369.482 130.817 367.208 133.869L370.961 140.133L363.244 148.367L356.767 145.049C353.879 147.528 350.773 149.776 347.482 151.762L348.561 158.949L338.283 163.614L333.544 158.096C329.957 159.26 326.24 160.131 322.394 160.708L320.643 167.756L309.356 168.143L307.127 161.231C303.25 160.918 299.483 160.303 295.824 159.388L291.505 165.216L280.932 161.267L281.487 154.023C278.067 152.267 274.845 150.236 271.765 147.962L265.53 151.715L257.268 144.029L260.583 137.522C258.104 134.634 255.858 131.528 253.901 128.235L246.712 129.314L242.019 119.037L247.567 114.328C246.403 110.74 245.503 107.024 244.956 103.178L237.905 101.397ZM313.969 137.864C338.621 137.019 357.924 116.346 357.08 91.6935C356.234 67.012 335.561 47.71 310.909 48.5546C286.258 49.3992 266.954 70.071 267.8 94.7525C268.644 119.405 289.318 138.709 313.969 137.864Z" fill="#F2F2F2"/>
<path d="M102.6 234.808L102.426 229.733L105.542 228.714C105.671 226.98 105.96 225.267 106.373 223.617L103.732 221.669L105.526 216.902L108.793 217.165C109.572 215.623 110.486 214.157 111.512 212.781L109.82 209.957L113.3 206.244L116.221 207.74C117.536 206.622 118.922 205.61 120.408 204.714L119.935 201.471L124.569 199.368L126.693 201.857C128.311 201.332 129.986 200.939 131.72 200.679L132.51 197.501L137.599 197.326L138.604 200.443C140.351 200.584 142.051 200.861 143.701 201.273L145.662 198.645L150.429 200.426L150.166 203.693C151.707 204.485 153.174 205.4 154.55 206.426L157.361 204.734L161.086 208.199L159.591 211.133C160.708 212.436 161.721 213.836 162.604 215.321L165.845 214.834L167.962 219.468L165.46 221.591C165.985 223.21 166.391 224.899 166.638 226.62L169.83 227.421L170.004 232.497L166.875 233.516C166.747 235.264 166.457 236.963 166.044 238.612L168.685 240.56L166.891 245.328L163.624 245.064C162.845 246.606 161.93 248.073 160.905 249.448L162.598 252.273L159.118 255.985L156.198 254.49C154.896 255.607 153.495 256.621 152.011 257.516L152.497 260.757L147.863 262.86L145.727 260.373C144.108 260.898 142.433 261.29 140.698 261.551L139.909 264.729L134.82 264.902L133.815 261.786C132.067 261.645 130.368 261.368 128.718 260.955L126.77 263.583L122.003 261.802L122.253 258.536C120.71 257.745 119.258 256.829 117.869 255.803L115.057 257.495L111.332 254.03L112.827 251.096C111.71 249.793 110.696 248.393 109.814 246.908L106.573 247.394L104.456 242.76L106.958 240.636C106.433 239.019 106.027 237.343 105.78 235.609L102.6 234.808ZM136.898 251.251C148.013 250.869 156.717 241.548 156.337 230.432C155.955 219.303 146.634 210.6 135.518 210.981C124.402 211.362 115.697 220.683 116.079 231.812C116.46 242.928 125.782 251.632 136.898 251.251Z" fill="#AAAAAA"/>
<path d="M100.817 46.0163L97.9783 43.365L99.1133 41.1293C98.2447 40.1219 97.4755 39.0392 96.8065 37.9239L94.3248 38.2991L92.717 34.751L94.6264 33.1268C94.2135 31.8719 93.9154 30.5844 93.7261 29.2858L91.2839 28.6733L91.158 24.7843L93.5462 24.0134C93.6533 22.6976 93.8554 21.3998 94.1741 20.1132L92.1653 18.6159L93.5342 14.9727L96.0278 15.1697C96.6188 14.0107 97.3127 12.892 98.1094 11.8144L96.8176 9.66856L99.4756 6.82205L101.705 7.96391C102.726 7.09531 103.795 6.32607 104.91 5.65706L104.549 3.1746L108.091 1.55989L109.715 3.46928C110.977 3.06324 112.264 2.76514 113.563 2.57583L114.169 0.140485L118.058 0L118.836 2.39508C120.145 2.49531 121.449 2.70432 122.73 3.03069L124.22 1.01508L127.87 2.37624L127.666 4.87754C128.825 5.4686 129.958 6.16246 131.022 6.95996L133.182 5.66734L136.02 8.31855L134.879 10.562C135.755 11.5762 136.517 12.6521 137.186 13.7674L139.668 13.3923L141.276 16.9412L139.366 18.5653C139.779 19.8203 140.077 21.1077 140.267 22.4064L142.71 23.0188L142.836 26.9087L140.447 27.6788C140.347 28.9877 140.138 30.2932 139.82 31.5798L141.836 33.0695L140.467 36.7126L137.966 36.5224C137.375 37.6814 136.681 38.8002 135.884 39.8786L137.176 42.0245L134.518 44.871L132.289 43.7291C131.268 44.5977 130.199 45.367 129.084 46.036L129.451 48.5107L125.91 50.1254L124.279 48.2237C123.017 48.6298 121.736 48.9202 120.43 49.1163L119.825 51.5517L115.936 51.6922L115.158 49.2971C113.85 49.1969 112.545 48.9878 111.264 48.6615L109.775 50.6779L106.125 49.3168L106.329 46.8155C105.171 46.2244 104.045 45.5383 102.973 44.7339L100.817 46.0163ZM121.047 29.6284C123.135 27.3918 123.015 23.884 120.779 21.7956C118.54 19.7046 115.032 19.8245 112.943 22.0611C110.855 24.2978 110.975 27.8047 113.214 29.8966C115.451 31.985 118.958 31.8651 121.047 29.6284Z" fill="#F2F2F2"/>
<path d="M179.357 230.172L185.835 225.698C185.837 225.693 185.837 225.687 185.838 225.683C186.479 223.33 187.363 221.064 188.443 218.935L186.784 212.422L196.18 202.358L202.794 203.57C204.842 202.347 207.04 201.312 209.343 200.511C209.348 200.51 209.354 200.509 209.359 200.506L213.381 193.735L227.14 193.264L231.614 199.741C231.622 199.744 231.631 199.746 231.64 199.747C233.991 200.388 236.253 201.27 238.38 202.349L244.89 200.69L254.953 210.087L253.744 216.688C253.746 216.69 253.747 216.691 253.748 216.694C254.996 218.765 256.008 220.965 256.808 223.267L263.578 227.287L264.049 241.047L257.566 245.525C256.926 247.894 256.069 250.154 254.968 252.301C254.968 252.301 254.967 252.302 254.967 252.304L256.622 258.797L247.226 268.859L240.653 267.656C238.578 268.883 236.377 269.92 234.047 270.721C234.045 270.722 234.043 270.723 234.041 270.723L230.026 277.485L216.267 277.956L211.796 271.482C209.417 270.843 207.151 269.959 204.999 268.878L204.997 268.877L198.516 270.528L188.454 261.133L189.662 254.531C188.414 252.46 187.402 250.259 186.602 247.957L186.602 247.956L179.829 243.934L179.357 230.172ZM222.237 251.088C230.79 250.795 237.471 243.614 237.178 235.086C236.885 226.533 229.729 219.85 221.176 220.143C212.623 220.436 205.94 227.592 206.234 236.146C206.526 244.675 213.683 251.381 222.237 251.088Z" fill="#F2F2F2"/>
<path d="M63.4749 67.3551C63.1562 67.3551 62.8573 67.1983 62.6748 66.9353L60.2849 63.4746C59.119 63.1397 57.9635 62.6968 56.8387 62.1537L53.4311 63.0215C53.1091 63.102 52.7698 63.0155 52.5283 62.7893L46.699 57.3464C46.4566 57.1203 46.347 56.7871 46.4061 56.4616L47.0408 52.9931C46.4403 51.9524 45.9204 50.8336 45.4912 49.6592L41.8686 47.5074C41.5834 47.3387 41.4043 47.0363 41.3932 46.7048L41.1199 38.7332C41.1088 38.4016 41.2664 38.0881 41.5388 37.8997L45.003 35.5072C45.3327 34.361 45.779 33.2003 46.3238 32.0799L45.451 28.656C45.3696 28.3348 45.457 27.9947 45.6822 27.7523L51.1251 21.9222C51.3513 21.6797 51.6845 21.5718 52.0109 21.6292L55.4879 22.2657C56.5552 21.6532 57.6714 21.1324 58.8141 20.7135L60.965 17.0917C61.1338 16.8073 61.4362 16.6283 61.7677 16.6172L69.7384 16.3439C70.0682 16.3379 70.3835 16.4904 70.5711 16.7628L72.9644 20.2278C74.1466 20.5713 75.2918 21.0133 76.3926 21.5487L79.8148 20.6758C80.1351 20.5953 80.4761 20.6809 80.7185 20.9079L86.5477 26.3517C86.7901 26.5778 86.8998 26.9111 86.8407 27.2366L86.2051 30.7059C86.8158 31.7646 87.3315 32.8765 87.7572 34.0406L91.3781 36.1899C91.6625 36.3586 91.8424 36.661 91.8536 36.9925L92.1268 44.9641C92.1379 45.2956 91.9803 45.6092 91.7079 45.7976L88.2412 48.1918C87.8952 49.3962 87.454 50.5492 86.9255 51.6294L87.7941 55.0413C87.8755 55.3617 87.7881 55.7017 87.5628 55.9442L82.1199 61.7734C81.8937 62.0158 81.5605 62.1255 81.2342 62.0664L77.7794 61.4342C76.6924 62.0535 75.5677 62.5752 74.4267 62.9889L72.2809 66.603C72.1121 66.8882 71.8097 67.0673 71.4782 67.0784L63.5075 67.3516C63.4972 67.3551 63.486 67.3551 63.4749 67.3551ZM56.9467 60.1518C57.0974 60.1518 57.2465 60.187 57.3835 60.2555C58.6042 60.8688 59.8669 61.3537 61.1381 61.6946C61.3608 61.7546 61.5544 61.8908 61.6854 62.0809L63.9735 65.3943L70.882 65.1579L72.9362 61.698C73.0595 61.4899 73.2548 61.3382 73.4784 61.2671C74.7153 60.8414 75.936 60.2735 77.107 59.5813C77.3083 59.4623 77.5464 59.4203 77.7769 59.4614L81.062 60.0628L85.7802 55.0105L84.9527 51.7631C84.8944 51.5335 84.9219 51.2902 85.0298 51.0795C85.6226 49.9231 86.104 48.6664 86.462 47.3421C86.522 47.1202 86.6591 46.9266 86.8484 46.7956L90.1677 44.5033L89.9313 37.5939L86.4663 35.5371C86.2693 35.4198 86.1194 35.2365 86.0449 35.0197C85.5986 33.7357 85.0358 32.5227 84.3711 31.416C84.2374 31.2087 84.1877 30.9577 84.2323 30.7153L84.8371 27.4139L79.7848 22.6957L76.5279 23.5257C76.2992 23.5831 76.0577 23.5574 75.8478 23.4504C74.6545 22.8447 73.403 22.3616 72.1275 22.0138C71.9065 21.9539 71.6984 21.8134 71.5682 21.6249L69.2784 18.309L62.3699 18.5454L60.3114 22.0113C60.2206 22.1637 60.0896 22.2888 59.9328 22.3719C59.8711 22.4053 59.7975 22.4344 59.7298 22.4533C58.5365 22.8696 57.321 23.4375 56.1706 24.1245C55.9684 24.2462 55.7294 24.289 55.4973 24.2462L52.1882 23.6405L47.47 28.6928L48.3 31.9514C48.3583 32.1801 48.3317 32.4216 48.2247 32.6315C47.6173 33.8273 47.1342 35.0806 46.7864 36.3561C46.7265 36.5771 46.5877 36.7792 46.3992 36.9094L43.0841 39.1991L43.3206 46.1086L46.7873 48.167C46.9843 48.2844 47.1333 48.4668 47.2087 48.6835C47.6584 49.9779 48.2264 51.1985 48.8963 52.3104C49.0187 52.5134 49.0624 52.7542 49.0196 52.9871L48.4157 56.2894L53.468 61.0067L56.7077 60.181C56.7848 60.1613 56.8662 60.1518 56.9467 60.1518ZM66.6144 56.4273C62.9104 56.4273 59.3992 55.0439 56.6786 52.5006C53.8355 49.8425 52.1968 46.2396 52.0631 42.3549C51.9295 38.4616 53.3181 34.7508 55.9727 31.9085C58.6273 29.0654 62.2337 27.4259 66.127 27.2931C70.0228 27.1578 73.7302 28.5481 76.5733 31.2027C79.4164 33.8573 81.056 37.4637 81.1888 41.3569C81.3224 45.2425 79.933 48.9491 77.2792 51.7956C74.622 54.6447 71.0156 56.2868 67.1249 56.4196C66.9545 56.4239 66.784 56.4273 66.6144 56.4273ZM66.6392 29.2273C66.491 29.2273 66.3428 29.2299 66.1946 29.235C62.8205 29.3507 59.6947 30.771 57.3947 33.2346C55.0938 35.6982 53.8911 38.913 54.0068 42.2872C54.1224 45.6537 55.5427 48.7769 58.0063 51.0795C60.4725 53.3846 63.6856 54.595 67.059 54.4751C70.4306 54.3594 73.5555 52.9366 75.8581 50.4679C78.1589 48.0017 79.3625 44.7894 79.2468 41.4221C79.1312 38.0479 77.7109 34.9221 75.2473 32.6221C72.8925 30.424 69.8507 29.2273 66.6392 29.2273Z" fill="#F2F2F2"/>
<path d="M214.153 330C305.88 330 380.24 325.657 380.24 320.3C380.24 314.944 305.88 310.601 214.153 310.601C122.425 310.601 48.0653 314.944 48.0653 320.3C48.0653 325.657 122.425 330 214.153 330Z" fill="#F2F2F2"/>
<path d="M356.704 242.032H71.6014C64.5952 242.032 58.915 236.353 58.915 229.346V47.0682C58.915 40.062 64.5944 34.3818 71.6014 34.3818H356.703C363.709 34.3818 369.389 40.062 369.389 47.0682V229.346C369.389 236.353 363.71 242.032 356.704 242.032Z" fill="white"/>
<path d="M372.851 175.886H371.994V168.143H372.851V175.886ZM372.851 162.095H371.994V146.109H372.851V162.095Z" fill="#407BFF"/>
<path d="M356.704 242.496H71.6015C64.3511 242.496 58.4525 236.597 58.4525 229.347V47.0684C58.4525 39.8181 64.3511 33.9194 71.6015 33.9194H356.703C363.953 33.9194 369.852 39.8181 369.852 47.0684V229.347C369.853 236.597 363.953 242.496 356.704 242.496ZM71.6015 34.8446C64.8617 34.8446 59.3785 40.3277 59.3785 47.0675V229.346C59.3785 236.086 64.8617 241.569 71.6015 241.569H356.703C363.443 241.569 368.926 236.086 368.926 229.346V47.0684C368.926 40.3286 363.443 34.8454 356.703 34.8454L71.6015 34.8446Z" fill="#407BFF"/>
<path opacity="0.5" d="M162.587 199.098H158.267V198.172H162.587L162.664 199.098H162.587ZM153.947 199.098H149.628V198.172H153.947V199.098ZM145.308 199.098H140.988V198.172H145.308V199.098ZM136.669 199.098H132.349V198.172H136.669V199.098ZM128.029 199.098H123.709V198.172H128.029V199.098ZM119.39 199.098H115.07V198.172H119.39V199.098ZM110.75 199.098H106.43V198.172H110.75V199.098ZM102.111 199.098H97.7915V198.172H102.111V199.098ZM93.4716 199.098H89.1517V198.172H93.4716V199.098ZM84.8327 199.098H83.2223C82.2312 199.098 81.282 198.875 80.4023 198.433L80.8169 197.606C81.5673 197.982 82.3759 198.172 83.2223 198.172H84.8327V199.098ZM166.888 197.402L166.256 196.725C167.24 195.806 167.841 194.564 167.948 193.227L168.871 193.301C168.746 194.868 168.042 196.325 166.888 197.402ZM77.3382 195.062C77.0589 194.339 76.9176 193.576 76.9176 192.793V190.625H77.8436V192.793C77.8436 193.461 77.9644 194.112 78.2017 194.729L77.3382 195.062ZM168.891 188.946H167.965V184.626H168.891V188.946ZM77.8436 186.305H76.9176V181.986H77.8436V186.305ZM168.891 180.306H167.965V175.986H168.891V180.306ZM77.8436 177.666H76.9176V173.347H77.8436V177.666ZM168.891 171.667H167.965V167.347H168.891V171.667ZM77.8436 169.026H76.9176V164.706H77.8436V169.026ZM168.891 163.027H167.965V158.707H168.891V163.027ZM77.8436 160.387H76.9176V156.067H77.8436V160.387ZM168.891 154.387H167.965V150.067H168.891V154.387ZM77.8436 151.747H76.9176V147.428H77.8436V151.747ZM168.891 145.748H167.965V141.429H168.891V145.748ZM77.8436 143.107H76.9176V138.788H77.8436V143.107ZM168.891 137.109H167.965V132.789H168.891V137.109ZM77.8436 134.469H76.9176V130.149H77.8436V134.469ZM168.891 128.469H167.965V124.15H168.891V128.469ZM77.8436 125.829H76.9176V121.509H77.8436V125.829ZM168.891 119.83H167.965V115.51H168.891V119.83ZM77.8436 117.19H76.9176V112.87H77.8436V117.19ZM168.891 111.19H167.965V106.87H168.891V111.19ZM77.8436 108.55H76.9176V104.23H77.8436V108.55ZM168.891 102.551H167.965V98.2314H168.891V102.551ZM77.8436 99.9103H76.9176V95.5913H77.8436V99.9103ZM168.891 93.9123H167.965V91.7768C167.965 91.0984 167.84 90.4379 167.595 89.8126L168.457 89.4742C168.745 90.2075 168.891 90.9819 168.891 91.7768V93.9123ZM77.8633 91.3117L76.9407 91.2329C77.0752 89.6661 77.7871 88.2133 78.9478 87.1434L79.5757 87.8236C78.5854 88.7376 77.9772 89.9754 77.8633 91.3117ZM164.964 86.9507C164.222 86.584 163.422 86.3982 162.587 86.3982H160.943V85.4722H162.587C163.565 85.4722 164.503 85.6897 165.375 86.1198L164.964 86.9507ZM156.622 86.399H152.302V85.473H156.622V86.399ZM147.983 86.399H143.663V85.473H147.983V86.399ZM139.343 86.399H135.023V85.473H139.343V86.399ZM130.704 86.399H126.384V85.473H130.704V86.399ZM122.064 86.399H117.745V85.473H122.064V86.399ZM113.425 86.399H109.106V85.473H113.425V86.399ZM104.786 86.399H100.466V85.473H104.786V86.399ZM96.1468 86.399H91.8269V85.473H96.1468V86.399ZM87.507 86.399H83.2214L83.1871 85.473H87.507V86.399Z" fill="#407BFF"/>
<path d="M83.451 47.7433C83.451 50.0013 81.6204 51.8327 79.3616 51.8327C77.1027 51.8327 75.2721 50.0022 75.2721 47.7433C75.2721 45.4844 77.1027 43.6538 79.3616 43.6538C81.6204 43.6538 83.451 45.4852 83.451 47.7433Z" fill="#407BFF"/>
<path opacity="0.2" d="M110.301 50.1354H90.2413C88.9255 50.1354 87.8496 49.0586 87.8496 47.7437C87.8496 46.428 88.9264 45.3521 90.2413 45.3521H110.301C111.617 45.3521 112.693 46.4288 112.693 47.7437C112.693 49.0595 111.617 50.1354 110.301 50.1354Z" fill="#407BFF"/>
<path opacity="0.2" d="M207.01 49.0546H192.935C192.211 49.0546 191.624 48.4669 191.624 47.7431C191.624 47.0184 192.211 46.4316 192.935 46.4316H207.01C207.735 46.4316 208.322 47.0193 208.322 47.7431C208.322 48.4678 207.735 49.0546 207.01 49.0546Z" fill="#407BFF"/>
<path opacity="0.2" d="M238.594 49.0546H224.519C223.794 49.0546 223.207 48.4669 223.207 47.7431C223.207 47.0184 223.795 46.4316 224.519 46.4316H238.594C239.319 46.4316 239.906 47.0193 239.906 47.7431C239.906 48.4678 239.319 49.0546 238.594 49.0546Z" fill="#407BFF"/>
<path opacity="0.2" d="M270.178 49.0546H256.102C255.378 49.0546 254.791 48.4669 254.791 47.7431C254.791 47.0184 255.379 46.4316 256.102 46.4316H270.178C270.903 46.4316 271.49 47.0193 271.49 47.7431C271.49 48.4678 270.903 49.0546 270.178 49.0546Z" fill="#407BFF"/>
<path opacity="0.2" d="M301.762 49.0546H287.687C286.963 49.0546 286.376 48.4669 286.376 47.7431C286.376 47.0184 286.964 46.4316 287.687 46.4316H301.762C302.487 46.4316 303.074 47.0193 303.074 47.7431C303.074 48.4678 302.487 49.0546 301.762 49.0546Z" fill="#407BFF"/>
<path opacity="0.7" d="M342.178 50.0586H320.885C319.606 50.0586 318.569 49.0221 318.569 47.7432C318.569 46.4642 319.606 45.4277 320.885 45.4277H342.178C343.457 45.4277 344.494 46.4642 344.494 47.7432C344.494 49.0221 343.457 50.0586 342.178 50.0586Z" fill="#407BFF"/>
<path opacity="0.7" d="M236.448 206.607H196.553C193.83 206.607 191.623 204.399 191.623 201.676V200.596C191.623 197.873 193.83 195.665 196.553 195.665H236.448C239.171 195.665 241.378 197.873 241.378 200.596V201.676C241.379 204.399 239.171 206.607 236.448 206.607Z" fill="#407BFF"/>
<path opacity="0.2" d="M341.871 146.798V105.147C341.871 104.423 342.458 103.836 343.182 103.836C343.907 103.836 344.494 104.424 344.494 105.147V146.798C344.494 147.523 343.907 148.11 343.182 148.11C342.458 148.11 341.871 147.522 341.871 146.798Z" fill="#407BFF"/>
<path opacity="0.2" d="M343.182 159.992C343.906 159.992 344.494 159.405 344.494 158.681C344.494 157.956 343.906 157.369 343.182 157.369C342.458 157.369 341.871 157.956 341.871 158.681C341.871 159.405 342.458 159.992 343.182 159.992Z" fill="#407BFF"/>
<path opacity="0.2" d="M343.182 178.509C343.906 178.509 344.494 177.922 344.494 177.198C344.494 176.473 343.906 175.886 343.182 175.886C342.458 175.886 341.871 176.473 341.871 177.198C341.871 177.922 342.458 178.509 343.182 178.509Z" fill="#407BFF"/>
<path opacity="0.2" d="M343.182 197.027C343.906 197.027 344.494 196.44 344.494 195.715C344.494 194.991 343.906 194.404 343.182 194.404C342.458 194.404 341.871 194.991 341.871 195.715C341.871 196.44 342.458 197.027 343.182 197.027Z" fill="#407BFF"/>
<path opacity="0.2" d="M303.615 106.969H202.139C196.356 106.969 191.623 102.236 191.623 96.4522C191.623 90.6683 196.356 85.9355 202.139 85.9355H303.615C309.399 85.9355 314.132 90.6683 314.132 96.4522C314.132 102.236 309.399 106.969 303.615 106.969Z" fill="#407BFF"/>
<path opacity="0.2" d="M266.37 137.5H202.14C196.357 137.5 191.624 132.767 191.624 126.983C191.624 121.2 196.357 116.467 202.14 116.467H266.37C272.154 116.467 276.886 121.2 276.886 126.983C276.886 132.768 272.154 137.5 266.37 137.5Z" fill="#407BFF"/>
<path d="M285.282 162.095H194.083C192.731 162.095 191.624 160.988 191.624 159.636C191.624 158.283 192.731 157.176 194.083 157.176H285.283C286.636 157.176 287.742 158.283 287.742 159.636C287.741 160.988 286.635 162.095 285.282 162.095Z" fill="#F2F2F2"/>
<path d="M306.711 162.095H297.382C296.029 162.095 294.922 160.988 294.922 159.636C294.922 158.283 296.029 157.176 297.382 157.176H306.711C308.064 157.176 309.17 158.283 309.17 159.636C309.17 160.988 308.064 162.095 306.711 162.095Z" fill="#F2F2F2"/>
<path d="M234.255 167.354H273.465C274.818 167.354 275.925 168.46 275.925 169.813C275.925 171.165 274.818 172.272 273.465 172.272H234.255C232.902 172.272 231.795 171.165 231.795 169.813C231.795 168.46 232.902 167.354 234.255 167.354Z" fill="#F2F2F2"/>
<path d="M194.083 167.354H222.155C223.508 167.354 224.614 168.46 224.614 169.813C224.614 171.165 223.508 172.272 222.155 172.272H194.083C192.731 172.272 191.624 171.165 191.624 169.813C191.623 168.46 192.73 167.354 194.083 167.354Z" fill="#F2F2F2"/>
<path d="M249.322 182.449H194.082C192.73 182.449 191.623 181.343 191.623 179.99C191.623 178.637 192.73 177.531 194.082 177.531H249.322C250.675 177.531 251.782 178.637 251.782 179.99C251.782 181.343 250.675 182.449 249.322 182.449Z" fill="#F2F2F2"/>
<path d="M289.494 182.449H261.422C260.07 182.449 258.963 181.343 258.963 179.99C258.963 178.637 260.07 177.531 261.422 177.531H289.494C290.847 177.531 291.954 178.637 291.954 179.99C291.954 181.343 290.848 182.449 289.494 182.449Z" fill="#F2F2F2"/>
<path d="M188.332 183.145L110.167 198.027C107.053 198.619 104.048 196.576 103.456 193.462L84.5244 94.0273C83.9316 90.9135 85.9755 87.9085 89.0893 87.3157L167.254 72.4338C170.368 71.8411 173.373 73.8849 173.966 76.9987L192.897 176.433C193.49 179.547 191.446 182.552 188.332 183.145Z" fill="#407BFF"/>
<g opacity="0.2">
<path d="M107.176 194.583C107.107 194.583 107.039 194.567 106.974 194.532C106.765 194.421 106.688 194.16 106.799 193.952L169.869 76.1033C169.98 75.8943 170.24 75.8163 170.448 75.9277C170.657 76.039 170.735 76.2994 170.624 76.5076L107.554 194.357C107.476 194.501 107.328 194.583 107.176 194.583Z" fill="white"/>
<path d="M189.691 178.873C189.594 178.873 189.495 178.839 189.415 178.771L87.4532 92.3429C87.2725 92.1895 87.2502 91.9197 87.4035 91.739C87.556 91.5582 87.8267 91.536 88.0074 91.6893L189.969 178.118C190.15 178.271 190.172 178.541 190.019 178.722C189.934 178.821 189.813 178.873 189.691 178.873Z" fill="white"/>
</g>
<path d="M179.688 189.95C179.688 189.95 190.865 228.783 195.4 247.852C200.162 267.879 214.327 298.152 215.505 311.427C216.73 311.915 220.698 311.367 222.816 310.343C222.816 310.343 220.874 268.018 209.364 248.738C211.963 201.298 199.087 189.95 199.087 189.95H179.688Z" fill="#407BFF"/>
<path opacity="0.1" d="M194.167 209.456L187.882 219.11C189.875 226.392 191.913 233.982 193.579 240.512C195.327 229.208 194.167 209.456 194.167 209.456Z" fill="#333333"/>
<path d="M202.752 156.49C202.934 157.023 203.056 157.403 203.19 157.842C203.321 158.268 203.431 158.691 203.546 159.113C203.776 159.956 203.957 160.805 204.141 161.652C204.482 163.351 204.75 165.066 204.912 166.801C205.096 168.533 205.163 170.289 205.133 172.055C205.137 173.818 204.945 175.607 204.705 177.386L204.666 177.677C204.639 177.874 204.587 178.076 204.521 178.256C204.104 179.381 203.49 180.332 202.818 181.073C202.146 181.82 201.439 182.395 200.741 182.875C199.344 183.814 197.952 184.372 196.608 184.816C195.253 185.241 193.925 185.521 192.602 185.703C191.261 185.878 190.003 185.972 188.59 185.935C187.3 185.901 186.283 184.829 186.316 183.539C186.34 182.62 186.893 181.839 187.675 181.478L187.871 181.389C188.85 180.941 189.955 180.469 190.948 179.976C191.954 179.482 192.928 178.97 193.794 178.417C194.67 177.887 195.428 177.278 195.957 176.738C196.487 176.191 196.63 175.7 196.544 175.663L196.361 176.532C196.387 175.117 196.381 173.7 196.271 172.257C196.162 170.82 196.005 169.373 195.779 167.924C195.547 166.478 195.294 165.027 194.972 163.589C194.816 162.869 194.642 162.155 194.469 161.446L194.2 160.396L193.943 159.445L193.878 159.198C193.212 156.722 194.679 154.176 197.155 153.51C199.525 152.875 201.964 154.207 202.752 156.49Z" fill="#FEBBBA"/>
<path d="M191.518 181.535L185.924 179.94C185.123 179.711 184.266 179.776 183.509 180.123L181.419 181.08C180.393 181.549 179.953 182.77 180.444 183.786L181.422 185.81C181.828 186.647 182.753 187.099 183.662 186.901L187.414 186.086C187.414 186.086 191.627 186.362 193.115 183.86L191.518 181.535Z" fill="#FEBBBA"/>
<path d="M196.586 148.634C193.585 151.751 191.984 156.433 194.413 165.384C197.617 166.973 205.379 164.912 205.379 164.912C205.379 164.912 205.489 151.46 196.586 148.634Z" fill="#407BFF"/>
<path opacity="0.7" d="M196.586 148.634C193.585 151.751 191.984 156.433 194.413 165.384C197.617 166.973 205.379 164.912 205.379 164.912C205.379 164.912 205.489 151.46 196.586 148.634Z" fill="white"/>
<path d="M202.02 154.88C201.864 154.885 201.743 155.016 201.748 155.171C201.753 155.323 201.878 155.443 202.029 155.443C202.032 155.443 202.036 155.443 202.039 155.442L203.44 155.391C203.359 155.205 203.275 155.021 203.188 154.838L202.02 154.88Z" fill="#333333"/>
<path d="M201.696 160.419C201.578 160.318 201.399 160.334 201.3 160.453C201.2 160.572 201.215 160.749 201.334 160.85L205.363 164.24C205.354 164.026 205.339 163.765 205.318 163.466L201.696 160.419Z" fill="#333333"/>
<path d="M193.556 161.413L198.088 158.565C198.22 158.481 198.259 158.308 198.177 158.177C198.094 158.045 197.92 158.006 197.789 158.087L193.46 160.808C193.486 161.004 193.525 161.212 193.556 161.413Z" fill="#407BFF"/>
<path d="M188.906 135.23C188.344 139.166 187.938 146.3 190.726 148.536C190.726 148.536 187.052 148.439 179.977 154.118C177.367 151.211 178.89 149.993 178.89 149.993C183.088 148.447 182.826 145.281 181.942 142.386L188.906 135.23Z" fill="#FEBBBA"/>
<path d="M177.796 130.429C177.667 130.943 177.294 131.31 176.963 131.251C176.631 131.192 176.468 130.727 176.597 130.214C176.726 129.7 177.099 129.332 177.431 129.391C177.762 129.451 177.926 129.916 177.796 130.429Z" fill="#333333"/>
<path d="M177.57 129.446L176.442 128.872C176.442 128.872 176.824 129.948 177.57 129.446Z" fill="#333333"/>
<path d="M177.578 131.401C177.578 131.401 176.162 133.458 174.947 134.355C175.457 135.108 176.667 135.023 176.667 135.023L177.578 131.401Z" fill="#E16A4B"/>
<path d="M177.359 126.186C177.327 126.116 177.32 126.038 177.347 125.963C177.404 125.811 177.583 125.737 177.748 125.799C179.392 126.42 179.763 127.77 179.778 127.828C179.82 127.99 179.718 128.147 179.549 128.178C179.381 128.21 179.211 128.105 179.167 127.943C179.153 127.89 178.85 126.845 177.542 126.352C177.458 126.32 177.394 126.259 177.359 126.186Z" fill="#333333"/>
<path d="M194.995 131.558C193.195 137.6 192.562 140.188 188.737 142.778C182.985 146.673 175.962 143.564 175.922 137.209C175.886 131.489 178.835 122.57 185.398 121.197C191.863 119.843 196.794 125.516 194.995 131.558Z" fill="#FEBBBA"/>
<path d="M181.01 131.935C177.431 129.391 179.174 124.718 182.458 124.575C178.175 121.577 180.409 116.152 185.645 116.367C190.882 116.581 191.624 119.793 191.624 119.793C191.624 119.793 200.067 120.221 201.252 126.361C202.647 133.584 198.234 138.21 192.809 140.352C196.498 143.378 187.794 145.502 183.465 143.064C179.026 140.566 177.491 135.154 181.01 131.935Z" fill="#333333"/>
<path d="M200.877 123.82C196.272 122.969 193.963 129.335 196.96 133.054C197.483 133.703 198.002 134.175 198.502 134.512C200.38 135.775 202.932 134.481 203.116 132.225C203.365 129.166 203.362 124.279 200.877 123.82Z" fill="white"/>
<path d="M213.376 127.076C213.716 126.821 213.941 126.502 213.985 126.097C214.181 124.298 212.818 123.132 211.178 122.875C210.193 119.742 206.038 119.685 203.699 121.928C201.787 120.952 199.656 123.101 199.917 125.345C197.899 126.251 197.378 129.595 199.212 131.531C199.597 131.938 199.971 132.226 200.325 132.426C200.415 132.476 200.508 132.5 200.601 132.535C200.763 133.826 201.81 135.146 203.31 135.44C203.753 135.528 204.134 135.543 204.46 135.508C205.072 135.443 205.53 135.051 205.746 134.552C207.086 135.653 208.515 136.369 209.535 135.658C210.604 134.913 211.033 133.844 210.994 132.74C211.7 133.019 212.367 133.049 212.913 132.668C214.879 131.3 214.713 128.85 213.376 127.076Z" fill="#333333"/>
<path d="M182.975 132.84C182.228 134.048 181.12 134.733 180.143 134.9C178.672 135.15 178.199 133.447 178.827 131.847C179.392 130.406 180.838 128.539 182.209 129.025C183.558 129.503 183.829 131.459 182.975 132.84Z" fill="#FEBBBA"/>
<path d="M181.01 128.359C182.268 125.956 189.168 119.383 193.76 119.626C194.949 119.947 195.92 120.411 196.471 120.707C196.622 120.789 196.578 121.012 196.407 121.033C194.606 121.243 188.759 122.593 183.279 131.214C182.03 130.394 181.01 128.359 181.01 128.359Z" fill="#407BFF"/>
<path d="M183.763 133.251C182.656 135.712 180.434 137.112 178.8 136.378C177.166 135.643 176.739 133.053 177.845 130.591C178.952 128.129 181.174 126.729 182.808 127.463C184.441 128.197 184.869 130.789 183.763 133.251Z" fill="white"/>
<path d="M182.408 132.642C181.409 134.864 179.494 136.17 178.131 135.557C176.769 134.945 176.474 132.646 177.474 130.423C178.472 128.2 180.388 126.895 181.751 127.507C183.113 128.119 183.407 130.419 182.408 132.642Z" fill="#407BFF"/>
<path d="M211.81 320.274C216.622 319.561 216.715 318.761 219.296 317.856C221.505 317.077 222.127 317.189 223.909 316.587C225.399 316.085 224.894 314.666 223.914 313.16C223.423 312.403 223.352 311.683 222.816 310.343L215.505 311.427C214.793 313.469 214.542 316.079 210.37 317.573C207.884 318.463 209.892 320.56 211.81 320.274Z" fill="#333333"/>
<path d="M167.234 320.293C172.016 320.285 172.936 319.979 175.623 319.887C177.927 319.803 178.305 320.293 180.64 320.293C182.187 320.293 182.401 318.551 181.834 317.245C181.393 316.227 181.326 315.01 181.005 313.689H174.411C173.221 315.779 169.979 317.326 166.354 317.585C163.764 317.777 165.32 320.293 167.234 320.293Z" fill="#333333"/>
<path d="M172.825 189.95C172.825 189.95 171.871 224.355 173.909 246.204C173.781 266.716 174.413 313.689 174.413 313.689C174.572 314.736 180.074 314.318 181.007 313.689C181.007 313.689 191.309 279.475 186.736 246.204C198.185 211.505 195.716 189.95 195.716 189.95H172.825Z" fill="#407BFF"/>
<path d="M214.546 308.768C214.623 309.435 214.734 310.6 214.693 311.508C214.679 311.836 214.937 312.1 215.265 312.103C218.004 312.135 221.784 310.94 222.98 310.536C223.209 310.459 223.36 310.246 223.362 310.004L223.385 307.416C223.389 307.063 223.072 306.792 222.722 306.85L215.016 308.145C214.719 308.196 214.512 308.467 214.546 308.768Z" fill="#407BFF"/>
<path opacity="0.5" d="M214.546 308.768C214.623 309.435 214.734 310.6 214.693 311.508C214.679 311.836 214.937 312.1 215.265 312.103C218.004 312.135 221.784 310.94 222.98 310.536C223.209 310.459 223.36 310.246 223.362 310.004L223.385 307.416C223.389 307.063 223.072 306.792 222.722 306.85L215.016 308.145C214.719 308.196 214.512 308.467 214.546 308.768Z" fill="white"/>
<path d="M173.657 310.798C173.638 311.51 173.596 312.78 173.53 313.718C173.509 314.028 173.739 314.302 174.051 314.345C176.385 314.666 180.106 314.375 181.326 314.264C181.568 314.242 181.76 314.067 181.805 313.83L182.296 311.276C182.363 310.927 182.091 310.589 181.732 310.575L174.223 310.276C173.915 310.264 173.666 310.492 173.657 310.798Z" fill="#407BFF"/>
<path opacity="0.5" d="M173.657 310.798C173.638 311.51 173.596 312.78 173.53 313.718C173.509 314.028 173.739 314.302 174.051 314.345C176.385 314.666 180.106 314.375 181.326 314.264C181.568 314.242 181.76 314.067 181.805 313.83L182.296 311.276C182.363 310.927 182.091 310.589 181.732 310.575L174.223 310.276C173.915 310.264 173.666 310.492 173.657 310.798Z" fill="white"/>
<path d="M168.466 161.116C168.703 163.689 168.997 166.946 170.105 173.02C170.944 178.173 171.562 183.2 172.782 191.699C184.587 192.939 198.478 191.939 199.087 189.95C198.155 182.592 198.183 172.662 200.831 155.565C201.444 151.6 198.572 148.219 194.659 148.303C193.613 148.326 192.507 148.373 191.376 148.457C186.979 148.784 183.379 149.085 179.54 149.915C178.268 150.19 176.954 150.515 175.701 150.849C171.18 152.054 168.043 156.506 168.466 161.116Z" fill="#407BFF"/>
<path opacity="0.8" d="M168.466 161.116C168.703 163.689 168.997 166.946 170.105 173.02C170.944 178.173 171.562 183.2 172.782 191.699C184.587 192.939 198.478 191.939 199.087 189.95C198.155 182.592 198.183 172.662 200.831 155.565C201.444 151.6 198.572 148.219 194.659 148.303C193.613 148.326 192.507 148.373 191.376 148.457C186.979 148.784 183.379 149.085 179.54 149.915C178.268 150.19 176.954 150.515 175.701 150.849C171.18 152.054 168.043 156.506 168.466 161.116Z" fill="white"/>
<path d="M170.581 154.248L171.953 155.97C172.009 156.04 172.091 156.076 172.174 156.076C172.235 156.076 172.297 156.057 172.348 156.015C172.47 155.918 172.491 155.741 172.394 155.62L170.951 153.808C170.824 153.952 170.7 154.098 170.581 154.248Z" fill="#333333"/>
<path d="M176.863 153.236C176.869 153.236 176.875 153.237 176.881 153.237C177.028 153.237 177.152 153.122 177.162 152.973L177.321 150.434C177.128 150.482 176.94 150.532 176.748 150.581L176.6 152.938C176.589 153.092 176.708 153.226 176.863 153.236Z" fill="#407BFF"/>
<path d="M189.178 155.506C189.226 155.538 189.28 155.553 189.333 155.553C189.424 155.553 189.514 155.508 189.568 155.427C189.654 155.298 189.618 155.123 189.488 155.037L182.285 150.28C182.156 150.194 181.982 150.229 181.895 150.359C181.81 150.489 181.845 150.663 181.975 150.749L189.178 155.506Z" fill="#407BFF"/>
<path d="M176.889 157.101C176.833 157.246 176.904 157.408 177.049 157.465L185.088 160.611C185.122 160.625 185.156 160.631 185.191 160.631C185.303 160.631 185.409 160.563 185.453 160.452C185.509 160.307 185.437 160.144 185.293 160.088L177.254 156.942C177.109 156.883 176.946 156.955 176.889 157.101Z" fill="#333333"/>
<path d="M172.246 171.411C172.293 171.441 172.346 171.456 172.398 171.456C172.49 171.456 172.581 171.411 172.634 171.327L177.318 164.076C177.402 163.946 177.366 163.771 177.234 163.687C177.104 163.603 176.93 163.641 176.846 163.771L172.162 171.022C172.078 171.153 172.115 171.327 172.246 171.411Z" fill="#407BFF"/>
<path d="M169.953 165.078C170.008 165.129 170.077 165.154 170.146 165.154C170.221 165.154 170.296 165.124 170.352 165.065C170.458 164.952 170.452 164.774 170.339 164.667L168.656 163.091C168.683 163.365 168.713 163.651 168.745 163.947L169.953 165.078Z" fill="#407BFF"/>
<path d="M195.363 169.877C195.217 169.93 195.142 170.092 195.195 170.237C195.237 170.351 195.345 170.422 195.46 170.422C195.492 170.422 195.525 170.417 195.556 170.405L199.117 169.103C199.136 168.899 199.158 168.688 199.177 168.482L195.363 169.877Z" fill="#407BFF"/>
<path d="M193.84 164.072C193.891 164.072 193.943 164.058 193.989 164.029L200.164 160.148C200.198 159.906 200.23 159.666 200.265 159.42L193.69 163.552C193.559 163.635 193.519 163.808 193.602 163.94C193.654 164.026 193.746 164.072 193.84 164.072Z" fill="#407BFF"/>
<path d="M189.625 165.156C189.541 165.025 189.368 164.985 189.236 165.067L181.928 169.661C181.796 169.744 181.757 169.917 181.839 170.049C181.893 170.134 181.984 170.181 182.077 170.181C182.128 170.181 182.181 170.166 182.227 170.138L189.535 165.544C189.667 165.461 189.707 165.287 189.625 165.156Z" fill="#407BFF"/>
<path d="M195.787 155.428C195.82 155.428 195.854 155.422 195.886 155.41C196.032 155.355 196.105 155.193 196.05 155.048L193.52 148.34C193.323 148.348 193.128 148.354 192.928 148.363L195.523 155.246C195.566 155.359 195.673 155.428 195.787 155.428Z" fill="#333333"/>
<path d="M188.533 190.526C188.404 190.439 188.229 190.475 188.143 190.605C188.058 190.735 188.093 190.91 188.223 190.995L189.826 192.053C190.138 192.032 190.446 192.011 190.748 191.988L188.533 190.526Z" fill="#407BFF"/>
<path d="M198.861 187.862L192.623 185.421C192.479 185.363 192.316 185.435 192.259 185.58C192.203 185.725 192.274 185.887 192.419 185.944L198.92 188.488C198.898 188.284 198.881 188.07 198.861 187.862Z" fill="#407BFF"/>
<path d="M172.501 189.723C172.525 189.896 172.549 190.064 172.574 190.24C172.676 190.196 172.756 190.11 172.753 189.991C172.748 189.849 172.634 189.722 172.501 189.723Z" fill="#333333"/>
<path d="M172.424 181.102C172.504 181.102 172.584 181.067 172.639 181.001C172.739 180.882 172.723 180.705 172.604 180.605L171.047 179.295C171.086 179.571 171.125 179.847 171.164 180.129L172.242 181.036C172.295 181.08 172.359 181.102 172.424 181.102Z" fill="#407BFF"/>
<path d="M185.585 178.285C185.697 178.285 185.803 178.217 185.847 178.106C185.903 177.961 185.832 177.799 185.688 177.742L177.65 174.593C177.506 174.537 177.342 174.608 177.285 174.752C177.229 174.897 177.3 175.06 177.444 175.117L185.482 178.265C185.516 178.279 185.55 178.285 185.585 178.285Z" fill="#333333"/>
<path d="M183.722 182.003L176.413 186.597C176.282 186.68 176.242 186.853 176.325 186.985C176.378 187.07 176.469 187.117 176.563 187.117C176.614 187.117 176.666 187.102 176.712 187.074L184.021 182.48C184.152 182.397 184.193 182.224 184.11 182.092C184.027 181.96 183.853 181.922 183.722 182.003Z" fill="#407BFF"/>
<path d="M190.471 179.819C190.524 179.904 190.616 179.951 190.709 179.951C190.76 179.951 190.812 179.936 190.858 179.908L198.167 175.314C198.299 175.231 198.339 175.058 198.256 174.926C198.173 174.794 197.999 174.755 197.868 174.837L190.558 179.431C190.427 179.514 190.388 179.687 190.471 179.819Z" fill="#333333"/>
<path d="M182.188 190.786C182.133 190.641 181.972 190.568 181.826 190.623C181.681 190.678 181.607 190.839 181.662 190.985L182.133 192.232C182.334 192.235 182.536 192.237 182.736 192.239L182.188 190.786Z" fill="#333333"/>
<path d="M176.239 161.286C176.174 161.845 176.12 162.24 176.051 162.694C175.986 163.134 175.899 163.563 175.818 163.993C175.652 164.851 175.464 165.697 175.265 166.542C174.847 168.224 174.346 169.886 173.745 171.522C173.165 173.163 172.469 174.777 171.681 176.359C170.925 177.951 169.98 179.483 168.997 180.985L168.82 181.257C168.716 181.415 168.588 181.566 168.457 181.691C166.887 183.177 165.465 184.167 163.999 185.199C162.546 186.212 161.068 187.14 159.593 188.051C158.107 188.946 156.615 189.817 155.1 190.645C153.57 191.455 152.063 192.271 150.477 193.012C149.312 193.557 147.926 193.054 147.382 191.889C146.946 190.957 147.18 189.884 147.887 189.213L147.908 189.195C149.136 188.032 150.422 186.913 151.671 185.77L155.455 182.419C156.72 181.321 157.95 180.197 159.163 179.106C159.769 178.557 160.352 178.008 160.909 177.459L161.704 176.657C161.96 176.395 162.15 176.16 162.377 175.915L161.837 176.62C162.47 175.354 163.076 174.073 163.597 172.723C164.118 171.379 164.6 170.006 165.021 168.601C165.436 167.197 165.829 165.777 166.164 164.342C166.334 163.626 166.497 162.908 166.638 162.193L167.019 160.159L167.067 159.899C167.538 157.379 169.964 155.719 172.483 156.191C174.891 156.639 176.511 158.889 176.239 161.286Z" fill="#FEBBBA"/>
<path d="M150.144 189.011L145.339 187.589C144.54 187.352 143.684 187.409 142.923 187.748L140.823 188.683C139.793 189.142 139.341 190.359 139.822 191.379L140.781 193.414C141.177 194.255 142.098 194.715 143.009 194.526L146.768 193.749C146.768 193.749 148.634 193.89 150.328 193.251C151.67 192.745 152.169 191.1 151.369 189.91C151.077 189.477 150.644 189.159 150.144 189.011Z" fill="#FEBBBA"/>
<path d="M174.061 151.54C170.011 153.059 166.547 156.594 164.882 165.718C167.089 168.531 174.982 170.017 174.982 170.017C174.982 170.017 180.877 157.926 174.061 151.54Z" fill="#407BFF"/>
<path opacity="0.8" d="M174.061 151.54C170.011 153.059 166.547 156.594 164.882 165.718C167.089 168.531 174.982 170.017 174.982 170.017C174.982 170.017 180.877 157.926 174.061 151.54Z" fill="white"/>
<path d="M171.953 155.971C172.009 156.04 172.091 156.077 172.174 156.077C172.235 156.077 172.297 156.057 172.348 156.015C172.47 155.918 172.49 155.742 172.394 155.62L170.693 153.485C170.55 153.604 170.41 153.728 170.269 153.857L171.953 155.971Z" fill="#333333"/>
<path d="M176.889 157.101C176.833 157.246 176.904 157.409 177.048 157.465L177.144 157.503C177.112 157.316 177.078 157.13 177.038 156.945C176.973 156.974 176.917 157.028 176.889 157.101Z" fill="#333333"/>
<path d="M173.667 169.729L176.696 165.039C176.803 164.6 176.901 164.144 176.988 163.673C176.934 163.694 176.879 163.72 176.845 163.772L173.088 169.588C173.296 169.64 173.487 169.686 173.667 169.729Z" fill="#407BFF"/>
<path d="M169.953 165.078C170.008 165.13 170.077 165.154 170.146 165.154C170.221 165.154 170.296 165.124 170.352 165.065C170.458 164.952 170.452 164.774 170.339 164.668L166.145 160.741C166.079 160.936 166.013 161.128 165.949 161.329L169.953 165.078Z" fill="#407BFF"/>
<path d="M286.118 244.564C284.923 239.923 286.364 238.154 288.055 236.303C289.746 234.451 289.548 231.356 289.548 231.356C289.548 231.356 292.176 236.583 291.405 242.763C290.635 248.944 286.991 247.952 286.118 244.564Z" fill="#333333"/>
<path d="M293.463 281.998C291.689 279.026 284.141 272.755 278.409 275.218C282.992 277.122 288.047 288.707 294.829 288.221C293.662 282.906 293.463 281.998 293.463 281.998Z" fill="#333333"/>
<path d="M298.799 307.73C298.436 307.73 298.106 307.482 298.017 307.115C296.912 302.58 287.12 261.973 283.285 233.147C283.225 232.706 283.536 232.301 283.977 232.243C284.42 232.178 284.823 232.494 284.881 232.935C288.706 261.678 298.48 302.207 299.582 306.734C299.688 307.166 299.422 307.602 298.991 307.708C298.925 307.722 298.861 307.73 298.799 307.73Z" fill="#407BFF"/>
<path d="M285.271 234.898C285.376 231.497 283.787 229.404 279.802 229.038C275.817 228.672 274.557 227.011 273.813 225.461C275.157 233.29 284.545 235.249 285.459 239.114C285.271 236.218 285.271 234.898 285.271 234.898Z" fill="#407BFF"/>
<path d="M287.058 247.817C286.73 244.251 283.853 243.761 280.575 243.331C277.298 242.901 276.21 240.799 276.21 240.799C276.21 240.799 274.719 245.401 278.584 249.067C282.449 252.734 287.298 250.42 287.058 247.817Z" fill="#407BFF"/>
<path d="M292.51 279.278C291.945 275.296 294.676 273.648 294.253 267.803C302.076 281.176 293.398 285.526 292.51 279.278Z" fill="#407BFF"/>
<path d="M288.849 263.034C286.642 259.673 283.503 260.242 279.958 255.576C282.926 270.781 292.313 268.308 288.849 263.034Z" fill="#407BFF"/>
<path d="M305.34 263.831C305.534 258.455 300.549 255.619 296.734 250.246C299.054 260.939 305.035 272.267 305.34 263.831Z" fill="#333333"/>
<path d="M302.887 302.889C302.862 302.889 302.838 302.889 302.812 302.887C302.291 302.846 301.901 302.39 301.942 301.868C302.834 290.574 305.986 241.892 305.103 210.061C305.089 209.539 305.501 209.103 306.023 209.089C306.578 209.083 306.981 209.486 306.996 210.009C307.88 241.924 304.723 290.702 303.83 302.017C303.791 302.513 303.376 302.889 302.887 302.889Z" fill="#407BFF"/>
<path d="M305.329 212.614C304.133 206.101 306.577 201.608 314.138 199.738C321.699 197.867 323.637 194.304 324.615 191.103C324.32 206.56 306.828 213.075 306.2 220.78C305.716 215.153 305.329 212.614 305.329 212.614Z" fill="#407BFF"/>
<path d="M305.91 225.781C307.12 217.974 301.226 215.383 294.443 212.705C287.661 210.027 286.461 204.944 286.461 204.944C286.461 204.944 280.802 213.993 287.107 223.911C293.411 233.83 305.026 231.48 305.91 225.781Z" fill="#407BFF"/>
<path d="M305.875 245.726C307.176 239.532 312.328 239.257 318.17 239.169C324.012 239.08 326.35 235.609 326.35 235.609C326.35 235.609 328.031 243.993 320.5 249.644C312.967 255.296 304.925 250.248 305.875 245.726Z" fill="#407BFF"/>
<path d="M304.786 275.816C306.203 272.005 313.593 263.158 320.738 264.786C315.848 267.959 312.467 282.417 304.528 283.296C304.748 276.907 304.786 275.816 304.786 275.816Z" fill="#407BFF"/>
<path d="M311.618 294.528H287.779C286.457 294.528 285.507 295.8 285.883 297.067L292.335 318.875C292.583 319.715 293.355 320.292 294.231 320.292H305.166C306.042 320.292 306.814 319.715 307.062 318.875L313.514 297.067C313.889 295.8 312.94 294.528 311.618 294.528Z" fill="#407BFF"/>
<path opacity="0.2" d="M311.618 294.528H287.779C286.457 294.528 285.507 295.8 285.883 297.067L292.335 318.875C292.583 319.715 293.355 320.292 294.231 320.292H305.166C306.042 320.292 306.814 319.715 307.062 318.875L313.514 297.067C313.889 295.8 312.94 294.528 311.618 294.528Z" fill="#407BFF"/>
<path opacity="0.7" d="M311.618 294.528H287.779C286.457 294.528 285.507 295.8 285.883 297.067L292.335 318.875C292.583 319.715 293.355 320.292 294.231 320.292H305.166C306.042 320.292 306.814 319.715 307.062 318.875L313.514 297.067C313.889 295.8 312.94 294.528 311.618 294.528Z" fill="white"/>
<path d="M267.039 133.482C265.777 134.294 264.919 134.314 263.831 133.303C262.825 132.368 261.893 131.322 261.088 130.21C259.936 128.617 259.149 126.822 258.799 124.869C258.499 123.195 258.82 122.519 260.249 121.745C260.842 122.769 261.442 123.792 262.019 124.829C262.063 124.908 261.939 125.073 261.907 125.201C261.785 125.692 261.52 126.203 261.578 126.674C261.722 127.845 262.274 128.865 263.127 129.699C263.627 130.189 264.192 130.509 264.94 130.34C265.051 130.316 265.257 130.417 265.319 130.52C265.899 131.49 266.457 132.473 267.039 133.482Z" fill="#333333"/>
<path d="M268.976 132.492C268.892 132.595 268.799 132.755 268.664 132.861C268.483 133.001 268.261 133.087 268.071 133.218C267.621 133.529 267.321 133.425 267.062 132.947C266.591 132.081 266.091 131.23 265.584 130.384C265.31 129.927 265.365 129.602 265.867 129.372C266.076 129.276 266.257 129.079 266.47 129.045C266.675 129.012 267.02 129.056 267.105 129.192C267.729 130.187 268.304 131.213 268.892 132.231C268.922 132.284 268.93 132.35 268.976 132.492Z" fill="#333333"/>
<path d="M264.11 124.076C263.957 124.213 263.813 124.386 263.632 124.497C262.572 125.149 262.57 125.143 261.95 124.071C261.53 123.344 261.121 122.61 260.68 121.896C260.401 121.445 260.511 121.156 260.961 120.937C261.149 120.846 261.329 120.735 261.508 120.626C261.839 120.423 262.092 120.473 262.293 120.822C262.836 121.769 263.391 122.71 263.936 123.655C263.998 123.762 264.032 123.885 264.11 124.076Z" fill="#333333"/>
<path d="M220.112 94.432C212.602 96.93 209.966 94.2585 209.966 94.2585C208.047 95.5304 205.746 96.2727 203.271 96.2727C196.569 96.2727 191.135 90.8392 191.135 84.1364C191.135 77.4335 196.569 72 203.271 72C209.974 72 215.408 77.4335 215.408 84.1364C215.408 86.0605 214.958 87.8782 214.161 89.4951C214.161 89.4951 215.202 93.5092 220.112 94.432Z" fill="#F2F2F2"/>
<path d="M210.691 82.5871C210.691 83.571 210.49 84.4797 210.087 85.313C209.685 86.1463 209.132 86.7975 208.429 87.2661C207.726 87.7347 206.955 87.9692 206.115 87.9692C205.131 87.9692 204.498 87.5958 204.214 86.8494H204.127C203.849 87.2254 203.527 87.5062 203.159 87.6914C202.792 87.8766 202.338 87.9692 201.801 87.9692C201.123 87.9692 200.571 87.7276 200.143 87.2442C199.714 86.7609 199.5 86.1199 199.5 85.3211C199.5 84.4181 199.714 83.5659 200.143 82.7646C200.571 81.9629 201.139 81.3523 201.848 80.9331C202.558 80.5134 203.357 80.3038 204.249 80.3038C205.146 80.3038 206.118 80.5063 207.165 80.9113L206.297 84.5051C206.164 85.049 206.098 85.4458 206.098 85.6946C206.098 85.9317 206.211 86.0507 206.436 86.0507C206.807 86.0507 207.142 85.9103 207.443 85.6294C207.744 85.3486 207.98 84.9477 208.151 84.4273C208.322 83.9063 208.407 83.3105 208.407 82.639C208.407 81.4063 208.021 80.4732 207.248 79.8393C206.475 79.2054 205.368 78.8889 203.927 78.8889C202.845 78.8889 201.871 79.154 201.006 79.6831C200.14 80.2127 199.469 80.9591 198.992 81.9227C198.514 82.8862 198.275 83.9846 198.275 85.2173C198.275 86.0563 198.435 86.7914 198.753 87.4223C199.071 88.0532 199.515 88.539 200.085 88.8809C200.655 89.2223 201.302 89.3932 202.025 89.3932C202.622 89.3932 203.299 89.3225 204.057 89.1806C204.815 89.0386 205.524 88.8377 206.184 88.5772V90.5303C205.663 90.7791 205.016 90.9831 204.244 91.1423C203.471 91.3015 202.743 91.3809 202.061 91.3809C200.851 91.3809 199.787 91.1393 198.87 90.6559C197.953 90.1726 197.245 89.4782 196.748 88.5726C196.25 87.667 196.001 86.618 196.001 85.4259C196.001 83.7593 196.34 82.2803 197.016 80.9896C197.693 79.6989 198.664 78.6936 199.929 77.9727C201.194 77.2523 202.598 76.8921 204.143 76.8921C206.198 76.8921 207.802 77.3958 208.957 78.4026C210.113 79.4099 210.691 80.8044 210.691 82.5871ZM204.075 82.2315C203.653 82.2315 203.281 82.3688 202.959 82.6436C202.638 82.9183 202.385 83.2861 202.2 83.746C202.015 84.2059 201.922 84.6735 201.922 85.1482C201.922 85.75 202.148 86.0512 202.599 86.0512C202.952 86.0512 203.24 85.9021 203.463 85.604C203.686 85.3059 203.902 84.7605 204.11 83.9679L204.518 82.3185C204.385 82.26 204.237 82.2315 204.075 82.2315Z" fill="#333333"/>
</svg>
