<svg width="429" height="330" viewBox="0 0 429 330" fill="none" xmlns="http://www.w3.org/2000/svg">
<path d="M428.305 291.312H0V291.527H428.305V291.312Z" fill="#F2F2F2"/>
<path d="M385.39 305.102H357.018V305.316H385.39V305.102Z" fill="#F2F2F2"/>
<path d="M283.727 307.426H276.28V307.64H283.727V307.426Z" fill="#F2F2F2"/>
<path d="M356.16 297.146H339.72V297.361H356.16V297.146Z" fill="#F2F2F2"/>
<path d="M81.9361 298.587H44.9365V298.801H81.9361V298.587Z" fill="#F2F2F2"/>
<path d="M94.9884 298.587H89.5635V298.801H94.9884V298.587Z" fill="#F2F2F2"/>
<path d="M192.863 302.203H112.619V302.417H192.863V302.203Z" fill="#F2F2F2"/>
<path d="M203.029 253.11H37.618C34.9223 253.11 32.7285 250.916 32.7285 248.22V15.7089C32.7285 13.0131 34.9223 10.8193 37.618 10.8193H203.029C205.724 10.8193 207.917 13.0131 207.917 15.7089V248.22C207.917 250.916 205.724 253.11 203.029 253.11ZM37.618 11.0343C35.0397 11.0343 32.9427 13.1313 32.9427 15.7097V248.221C32.9427 250.8 35.0397 252.897 37.618 252.897H203.029C205.606 252.897 207.703 250.8 207.703 248.221V15.7089C207.703 13.1313 205.606 11.0335 203.029 11.0335L37.618 11.0343Z" fill="#F2F2F2"/>
<path d="M388.31 253.11H222.9C220.205 253.11 218.012 250.916 218.012 248.22V15.7089C218.012 13.0131 220.205 10.8193 222.9 10.8193H388.31C391.007 10.8193 393.2 13.0131 393.2 15.7089V248.22C393.201 250.916 391.007 253.11 388.31 253.11ZM222.9 11.0343C220.323 11.0343 218.226 13.1313 218.226 15.7097V248.221C218.226 250.8 220.323 252.897 222.9 252.897H388.31C390.889 252.897 392.986 250.8 392.986 248.221V15.7089C392.986 13.1313 390.889 11.0335 388.31 11.0335L222.9 11.0343Z" fill="#F2F2F2"/>
<path d="M237.905 101.397L237.52 90.1405L244.431 87.8825C244.715 84.0363 245.358 80.2381 246.273 76.5786L240.416 72.2596L244.395 61.6865L251.64 62.2698C253.367 58.8511 255.396 55.5985 257.67 52.5473L253.918 46.2829L261.634 38.05L268.112 41.3668C271.029 38.8869 274.104 36.6417 277.397 34.6561L276.348 27.4657L286.626 22.8015L291.334 28.3198C294.922 27.1556 298.639 26.2853 302.484 25.708L304.235 18.6598L315.522 18.2734L317.751 25.1854C321.627 25.4981 325.395 26.1123 329.053 27.028L333.403 21.1988L343.976 25.1486L343.391 32.3947C346.811 34.1507 350.063 36.1792 353.114 38.4543L359.348 34.7024L367.611 42.387L364.295 48.8938C366.773 51.7823 369.02 54.8884 370.978 58.1812L378.166 57.1027L382.86 67.3786L377.312 72.0883C378.476 75.6766 379.378 79.4226 379.924 83.2396L387.003 85.018L387.389 96.2747L380.448 98.5353C380.165 102.41 379.521 106.18 378.606 109.838L384.462 114.157L380.484 124.731L373.238 124.146C371.511 127.565 369.482 130.817 367.208 133.869L370.961 140.133L363.244 148.367L356.767 145.049C353.879 147.528 350.774 149.776 347.483 151.762L348.561 158.949L338.283 163.614L333.545 158.096C329.957 159.26 326.24 160.131 322.394 160.708L320.643 167.756L309.357 168.143L307.127 161.231C303.251 160.918 299.483 160.303 295.825 159.388L291.505 165.216L280.933 161.267L281.488 154.023C278.067 152.267 274.845 150.236 271.765 147.962L265.53 151.715L257.268 144.029L260.583 137.522C258.105 134.634 255.858 131.528 253.901 128.235L246.713 129.314L242.019 119.037L247.568 114.328C246.403 110.74 245.503 107.024 244.956 103.178L237.905 101.397ZM313.969 137.864C338.621 137.019 357.925 116.346 357.08 91.6935C356.235 67.012 335.561 47.71 310.91 48.5546C286.258 49.3992 266.954 70.071 267.8 94.7525C268.644 119.405 289.318 138.709 313.969 137.864Z" fill="#F2F2F2"/>
<path d="M102.6 234.808L102.426 229.733L105.542 228.714C105.671 226.98 105.96 225.267 106.373 223.617L103.732 221.669L105.526 216.902L108.793 217.165C109.572 215.623 110.486 214.157 111.512 212.781L109.82 209.957L113.3 206.244L116.221 207.74C117.536 206.622 118.922 205.61 120.408 204.714L119.935 201.471L124.569 199.368L126.693 201.857C128.311 201.332 129.986 200.939 131.72 200.679L132.51 197.501L137.599 197.326L138.604 200.443C140.351 200.584 142.051 200.861 143.701 201.273L145.662 198.645L150.429 200.426L150.166 203.693C151.707 204.485 153.174 205.4 154.55 206.426L157.361 204.734L161.086 208.199L159.591 211.133C160.708 212.436 161.721 213.836 162.604 215.321L165.845 214.834L167.962 219.468L165.46 221.591C165.985 223.21 166.391 224.899 166.638 226.62L169.83 227.421L170.004 232.497L166.875 233.516C166.747 235.264 166.457 236.963 166.044 238.612L168.685 240.56L166.891 245.328L163.624 245.064C162.845 246.606 161.93 248.073 160.905 249.448L162.598 252.273L159.118 255.985L156.198 254.49C154.896 255.607 153.495 256.621 152.011 257.516L152.497 260.757L147.863 262.86L145.727 260.373C144.108 260.898 142.433 261.29 140.698 261.551L139.909 264.729L134.82 264.902L133.815 261.786C132.067 261.645 130.368 261.368 128.718 260.955L126.77 263.583L122.003 261.802L122.253 258.536C120.71 257.745 119.258 256.829 117.869 255.803L115.057 257.495L111.332 254.03L112.827 251.096C111.71 249.793 110.696 248.393 109.814 246.908L106.573 247.394L104.456 242.76L106.958 240.636C106.433 239.019 106.027 237.343 105.78 235.609L102.6 234.808ZM136.898 251.251C148.013 250.869 156.717 241.548 156.337 230.432C155.955 219.303 146.634 210.6 135.518 210.981C124.402 211.362 115.697 220.683 116.079 231.812C116.46 242.928 125.782 251.632 136.898 251.251Z" fill="#AAAAAA"/>
<path d="M100.817 46.0163L97.9785 43.365L99.1135 41.1293C98.2449 40.1219 97.4757 39.0392 96.8067 37.9239L94.3251 38.2991L92.7172 34.751L94.6266 33.1268C94.2137 31.8719 93.9156 30.5844 93.7263 29.2858L91.2841 28.6733L91.1582 24.7843L93.5464 24.0134C93.6535 22.6976 93.8557 21.3998 94.1743 20.1132L92.1656 18.6159L93.5344 14.9727L96.028 15.1697C96.6191 14.0107 97.3129 12.892 98.1096 11.8144L96.8178 9.66856L99.4759 6.82205L101.705 7.96391C102.727 7.09531 103.795 6.32607 104.91 5.65706L104.55 3.1746L108.091 1.55989L109.715 3.46927C110.977 3.06324 112.264 2.76514 113.564 2.57583L114.169 0.140485L118.058 0L118.836 2.39508C120.145 2.49531 121.45 2.70432 122.73 3.03069L124.22 1.01508L127.87 2.37624L127.666 4.87754C128.825 5.4686 129.958 6.16246 131.022 6.95996L133.182 5.66734L136.021 8.31855L134.88 10.562C135.755 11.5762 136.517 12.6521 137.186 13.7674L139.668 13.3923L141.276 16.9412L139.367 18.5653C139.779 19.8203 140.078 21.1077 140.267 22.4064L142.71 23.0188L142.836 26.9087L140.448 27.6788C140.347 28.9877 140.138 30.2932 139.821 31.5798L141.836 33.0695L140.467 36.7126L137.966 36.5224C137.375 37.6814 136.681 38.8002 135.884 39.8786L137.176 42.0245L134.518 44.871L132.289 43.7291C131.268 44.5977 130.199 45.367 129.084 46.036L129.451 48.5107L125.91 50.1254L124.279 48.2237C123.017 48.6298 121.736 48.9202 120.43 49.1163L119.826 51.5517L115.937 51.6922L115.159 49.2971C113.85 49.1969 112.545 48.9878 111.265 48.6615L109.775 50.6779L106.125 49.3168L106.33 46.8155C105.171 46.2244 104.045 45.5383 102.973 44.7339L100.817 46.0163ZM121.047 29.6284C123.135 27.3918 123.016 23.884 120.779 21.7956C118.54 19.7046 115.032 19.8245 112.944 22.0611C110.855 24.2978 110.975 27.8047 113.214 29.8966C115.451 31.985 118.959 31.8651 121.047 29.6284Z" fill="#F2F2F2"/>
<path d="M179.356 230.172L185.834 225.698C185.836 225.693 185.836 225.687 185.838 225.683C186.478 223.33 187.362 221.064 188.443 218.935L186.783 212.422L196.179 202.358L202.793 203.57C204.841 202.347 207.04 201.312 209.342 200.511C209.347 200.51 209.353 200.509 209.358 200.506L213.38 193.735L227.139 193.264L231.613 199.741C231.622 199.744 231.63 199.746 231.639 199.747C233.99 200.388 236.253 201.27 238.379 202.349L244.89 200.69L254.952 210.087L253.744 216.688C253.745 216.69 253.746 216.691 253.747 216.694C254.995 218.765 256.007 220.965 256.807 223.267L263.578 227.287L264.049 241.047L257.565 245.525C256.925 247.894 256.068 250.154 254.967 252.301C254.967 252.301 254.966 252.302 254.966 252.304L256.621 258.797L247.225 268.859L240.652 267.656C238.577 268.883 236.377 269.92 234.046 270.721C234.044 270.722 234.042 270.723 234.04 270.723L230.025 277.485L216.266 277.956L211.795 271.482C209.417 270.843 207.15 269.959 204.998 268.878L204.997 268.877L198.515 270.528L188.453 261.133L189.661 254.531C188.413 252.46 187.402 250.259 186.602 247.957L186.601 247.956L179.828 243.934L179.356 230.172ZM222.236 251.088C230.789 250.795 237.471 243.614 237.178 235.086C236.885 226.533 229.729 219.85 221.175 220.143C212.622 220.436 205.94 227.592 206.233 236.146C206.526 244.675 213.683 251.381 222.236 251.088Z" fill="#F2F2F2"/>
<path d="M63.4747 67.3551C63.156 67.3551 62.857 67.1983 62.6746 66.9353L60.2846 63.4746C59.1188 63.1397 57.9632 62.6968 56.8385 62.1537L53.4309 63.0215C53.1088 63.102 52.7696 63.0155 52.528 62.7893L46.6988 57.3464C46.4564 57.1203 46.3467 56.7871 46.4058 56.4616L47.0406 52.9931C46.4401 51.9524 45.9201 50.8336 45.491 49.6592L41.8684 47.5074C41.5831 47.3387 41.4041 47.0363 41.393 46.7048L41.1197 38.7332C41.1086 38.4016 41.2662 38.0881 41.5386 37.8997L45.0027 35.5072C45.3325 34.361 45.7788 33.2003 46.3236 32.0799L45.4507 28.656C45.3693 28.3348 45.4567 27.9947 45.682 27.7523L51.1249 21.9222C51.3511 21.6797 51.6843 21.5718 52.0106 21.6292L55.4876 22.2657C56.555 21.6532 57.6711 21.1324 58.8138 20.7135L60.9648 17.0917C61.1335 16.8073 61.4359 16.6283 61.7674 16.6172L69.7382 16.3439C70.068 16.3379 70.3832 16.4904 70.5708 16.7628L72.9642 20.2278C74.1463 20.5713 75.2916 21.0133 76.3923 21.5487L79.8145 20.6758C80.1349 20.5953 80.4758 20.6809 80.7182 20.9079L86.5475 26.3517C86.7899 26.5778 86.8995 26.9111 86.8404 27.2366L86.2048 30.7059C86.8156 31.7646 87.3313 32.8765 87.757 34.0406L91.3779 36.1899C91.6623 36.3586 91.8422 36.661 91.8533 36.9925L92.1266 44.9641C92.1377 45.2956 91.9801 45.6092 91.7077 45.7976L88.241 48.1918C87.8949 49.3962 87.4538 50.5492 86.9252 51.6294L87.7938 55.0413C87.8752 55.3617 87.7878 55.7017 87.5625 55.9442L82.1196 61.7734C81.8935 62.0158 81.5603 62.1255 81.2339 62.0664L77.7792 61.4342C76.6922 62.0535 75.5674 62.5752 74.4264 62.9889L72.2806 66.603C72.1119 66.8882 71.8095 67.0673 71.478 67.0784L63.5072 67.3517C63.4969 67.3551 63.4858 67.3551 63.4747 67.3551ZM56.9464 60.1518C57.0972 60.1518 57.2462 60.187 57.3833 60.2555C58.604 60.8688 59.8666 61.3537 61.1378 61.6946C61.3605 61.7546 61.5541 61.8908 61.6852 62.0809L63.9732 65.3943L70.8818 65.1579L72.9359 61.698C73.0593 61.4899 73.2546 61.3382 73.4782 61.2671C74.7151 60.8414 75.9358 60.2735 77.1068 59.5813C77.3081 59.4623 77.5462 59.4203 77.7766 59.4614L81.0617 60.0628L85.7799 55.0105L84.9525 51.7631C84.8942 51.5335 84.9216 51.2902 85.0296 51.0795C85.6223 49.9231 86.1037 48.6664 86.4618 47.3421C86.5218 47.1202 86.6588 46.9266 86.8481 46.7956L90.1675 44.5033L89.9311 37.5939L86.4661 35.5371C86.2691 35.4198 86.1192 35.2365 86.0446 35.0197C85.5983 33.7357 85.0355 32.5227 84.3708 31.416C84.2372 31.2087 84.1875 30.9577 84.232 30.7153L84.8368 27.4139L79.7845 22.6957L76.5277 23.5257C76.299 23.5831 76.0574 23.5574 75.8475 23.4504C74.6543 22.8447 73.4028 22.3616 72.1273 22.0138C71.9063 21.9539 71.6981 21.8134 71.5679 21.6249L69.2782 18.309L62.3696 18.5454L60.3112 22.0113C60.2204 22.1637 60.0893 22.2888 59.9326 22.3719C59.8709 22.4053 59.7972 22.4344 59.7296 22.4533C58.5363 22.8696 57.3208 23.4375 56.1703 24.1245C55.9682 24.2462 55.7292 24.289 55.497 24.2462L52.188 23.6405L47.4697 28.6928L48.2998 31.9514C48.3581 32.1801 48.3315 32.4216 48.2244 32.6315C47.6171 33.8273 47.134 35.0806 46.7862 36.3561C46.7262 36.5771 46.5874 36.7792 46.399 36.9094L43.0839 39.1991L43.3203 46.1086L46.787 48.167C46.9841 48.2844 47.1331 48.4668 47.2085 48.6835C47.6582 49.9779 48.2261 51.1985 48.896 52.3104C49.0185 52.5134 49.0622 52.7542 49.0194 52.9871L48.4154 56.2894L53.4677 61.0067L56.7074 60.181C56.7845 60.1613 56.8659 60.1518 56.9464 60.1518ZM66.6141 56.4273C62.9102 56.4273 59.3989 55.0439 56.6783 52.5006C53.8352 49.8425 52.1965 46.2396 52.0629 42.3549C51.9293 38.4616 53.3178 34.7508 55.9725 31.9085C58.6271 29.0654 62.2334 27.4259 66.1267 27.2931C70.0226 27.1578 73.73 28.5481 76.5731 31.2027C79.4162 33.8573 81.0557 37.4636 81.1885 41.3569C81.3221 45.2425 79.9327 48.9491 77.2789 51.7956C74.6217 54.6447 71.0154 56.2868 67.1247 56.4196C66.9542 56.4239 66.7837 56.4273 66.6141 56.4273ZM66.639 29.2273C66.4908 29.2273 66.3426 29.2299 66.1944 29.235C62.8202 29.3507 59.6944 30.771 57.3944 33.2346C55.0936 35.6982 53.8909 38.913 54.0065 42.2872C54.1222 45.6537 55.5425 48.7769 58.0061 51.0795C60.4722 53.3846 63.6854 54.595 67.0587 54.4751C70.4303 54.3594 73.5553 52.9366 75.8578 50.4679C78.1587 48.0017 79.3622 44.7894 79.2466 41.4221C79.1309 38.0479 77.7107 34.9221 75.2471 32.6221C72.8922 30.424 69.8504 29.2273 66.639 29.2273Z" fill="#F2F2F2"/>
<path d="M214.153 330C305.88 330 380.24 325.658 380.24 320.301C380.24 314.944 305.88 310.602 214.153 310.602C122.425 310.602 48.0654 314.944 48.0654 320.301C48.0654 325.658 122.425 330 214.153 330Z" fill="#F2F2F2"/>
<path d="M356.704 242.032H71.6014C64.5952 242.032 58.915 236.353 58.915 229.346V47.0682C58.915 40.062 64.5944 34.3818 71.6014 34.3818H356.703C363.709 34.3818 369.389 40.062 369.389 47.0682V229.346C369.389 236.353 363.71 242.032 356.704 242.032Z" fill="white"/>
<path d="M372.851 175.885H371.994V168.143H372.851V175.885ZM372.851 162.094H371.994V146.108H372.851V162.094Z" fill="#E14C62"/>
<path d="M356.703 242.495H71.6011C64.3508 242.495 58.4521 236.596 58.4521 229.346V47.0679C58.4521 39.8176 64.3508 33.9189 71.6011 33.9189H356.702C363.953 33.9189 369.851 39.8176 369.851 47.0679V229.346C369.852 236.596 363.953 242.495 356.703 242.495ZM71.6011 34.8441C64.8613 34.8441 59.3781 40.3272 59.3781 47.0671V229.345C59.3781 236.085 64.8613 241.568 71.6011 241.568H356.702C363.442 241.568 368.925 236.085 368.925 229.345V47.0679C368.925 40.3281 363.442 34.8449 356.702 34.8449L71.6011 34.8441Z" fill="#E14C62"/>
<path opacity="0.5" d="M162.587 199.098H158.267V198.172H162.587L162.664 199.098H162.587ZM153.947 199.098H149.627V198.172H153.947V199.098ZM145.307 199.098H140.987V198.172H145.307V199.098ZM136.668 199.098H132.348V198.172H136.668V199.098ZM128.028 199.098H123.708V198.172H128.028V199.098ZM119.389 199.098H115.07V198.172H119.389V199.098ZM110.75 199.098H106.43V198.172H110.75V199.098ZM102.111 199.098H97.7909V198.172H102.111V199.098ZM93.471 199.098H89.1511V198.172H93.471V199.098ZM84.8321 199.098H83.2216C82.2305 199.098 81.2814 198.874 80.4017 198.433L80.8163 197.605C81.5667 197.981 82.3753 198.172 83.2216 198.172H84.8321V199.098ZM166.888 197.402L166.255 196.725C167.24 195.806 167.84 194.564 167.947 193.226L168.871 193.3C168.746 194.868 168.042 196.325 166.888 197.402ZM77.3376 195.061C77.0583 194.338 76.917 193.575 76.917 192.793V190.624H77.843V192.793C77.843 193.46 77.9638 194.111 78.2011 194.728L77.3376 195.061ZM168.89 188.945H167.964V184.625H168.89V188.945ZM77.843 186.304H76.917V181.985H77.843V186.304ZM168.89 180.305H167.964V175.985H168.89V180.305ZM77.843 177.665H76.917V173.346H77.843V177.665ZM168.89 171.666H167.964V167.347H168.89V171.666ZM77.843 169.025H76.917V164.706H77.843V169.025ZM168.89 163.027H167.964V158.707H168.89V163.027ZM77.843 160.387H76.917V156.067H77.843V160.387ZM168.89 154.387H167.964V150.067H168.89V154.387ZM77.843 151.747H76.917V147.428H77.843V151.747ZM168.89 145.748H167.964V141.428H168.89V145.748ZM77.843 143.107H76.917V138.788H77.843V143.107ZM168.89 137.108H167.964V132.788H168.89V137.108ZM77.843 134.468H76.917V130.148H77.843V134.468ZM168.89 128.468H167.964V124.149H168.89V128.468ZM77.843 125.828H76.917V121.508H77.843V125.828ZM168.89 119.829H167.964V115.51H168.89V119.829ZM77.843 117.189H76.917V112.87H77.843V117.189ZM168.89 111.19H167.964V106.87H168.89V111.19ZM77.843 108.55H76.917V104.23H77.843V108.55ZM168.89 102.551H167.964V98.2309H168.89V102.551ZM77.843 99.9098H76.917V95.5908H77.843V99.9098ZM168.89 93.9119H167.964V91.7763C167.964 91.0979 167.839 90.4375 167.594 89.8121L168.456 89.4738C168.744 90.207 168.89 90.9814 168.89 91.7763V93.9119ZM77.8627 91.3112L76.9401 91.2324C77.0746 89.6656 77.7865 88.2128 78.9472 87.1429L79.5751 87.8231C78.5848 88.7371 77.9766 89.9749 77.8627 91.3112ZM164.964 86.9502C164.221 86.5836 163.421 86.3977 162.587 86.3977H160.942V85.4717H162.587C163.565 85.4717 164.503 85.6893 165.374 86.1193L164.964 86.9502ZM156.621 86.3985H152.301V85.4725H156.621V86.3985ZM147.982 86.3985H143.662V85.4725H147.982V86.3985ZM139.342 86.3985H135.023V85.4725H139.342V86.3985ZM130.704 86.3985H126.384V85.4725H130.704V86.3985ZM122.064 86.3985H117.744V85.4725H122.064V86.3985ZM113.425 86.3985H109.105V85.4725H113.425V86.3985ZM104.785 86.3985H100.465V85.4725H104.785V86.3985ZM96.1462 86.3985H91.8263V85.4725H96.1462V86.3985ZM87.5064 86.3985H83.2208L83.1865 85.4725H87.5064V86.3985Z" fill="#E14C62"/>
<path d="M83.4504 47.7428C83.4504 50.0008 81.6198 51.8322 79.3609 51.8322C77.1021 51.8322 75.2715 50.0017 75.2715 47.7428C75.2715 45.4839 77.1021 43.6533 79.3609 43.6533C81.6198 43.6533 83.4504 45.4848 83.4504 47.7428Z" fill="#FFB300"/>
<path opacity="0.2" d="M110.301 50.1349H90.2413C88.9255 50.1349 87.8496 49.0581 87.8496 47.7432C87.8496 46.4275 88.9264 45.3516 90.2413 45.3516H110.301C111.617 45.3516 112.693 46.4283 112.693 47.7432C112.693 49.059 111.617 50.1349 110.301 50.1349Z" fill="#E14C62"/>
<path opacity="0.2" d="M207.009 49.0546H192.935C192.21 49.0546 191.623 48.4669 191.623 47.7431C191.623 47.0184 192.211 46.4316 192.935 46.4316H207.009C207.734 46.4316 208.321 47.0193 208.321 47.7431C208.321 48.4678 207.734 49.0546 207.009 49.0546Z" fill="#E14C62"/>
<path opacity="0.2" d="M238.594 49.0546H224.519C223.794 49.0546 223.207 48.4669 223.207 47.7431C223.207 47.0184 223.795 46.4316 224.519 46.4316H238.594C239.319 46.4316 239.906 47.0193 239.906 47.7431C239.906 48.4678 239.319 49.0546 238.594 49.0546Z" fill="#E14C62"/>
<path opacity="0.2" d="M270.178 49.0546H256.102C255.378 49.0546 254.791 48.4669 254.791 47.7431C254.791 47.0184 255.379 46.4316 256.102 46.4316H270.178C270.903 46.4316 271.49 47.0193 271.49 47.7431C271.49 48.4678 270.903 49.0546 270.178 49.0546Z" fill="#E14C62"/>
<path opacity="0.2" d="M301.762 49.0546H287.687C286.963 49.0546 286.376 48.4669 286.376 47.7431C286.376 47.0184 286.964 46.4316 287.687 46.4316H301.762C302.487 46.4316 303.074 47.0193 303.074 47.7431C303.074 48.4678 302.487 49.0546 301.762 49.0546Z" fill="#E14C62"/>
<path opacity="0.7" d="M342.177 50.0586H320.884C319.605 50.0586 318.568 49.0221 318.568 47.7432C318.568 46.4642 319.605 45.4277 320.884 45.4277H342.177C343.456 45.4277 344.493 46.4642 344.493 47.7432C344.493 49.0221 343.456 50.0586 342.177 50.0586Z" fill="#E14C62"/>
<path opacity="0.7" d="M236.447 206.607H196.553C193.83 206.607 191.622 204.399 191.622 201.676V200.596C191.622 197.873 193.83 195.665 196.553 195.665H236.447C239.17 195.665 241.377 197.873 241.377 200.596V201.676C241.378 204.399 239.17 206.607 236.447 206.607Z" fill="#E14C62"/>
<path opacity="0.2" d="M341.87 146.798V105.147C341.87 104.423 342.458 103.836 343.182 103.836C343.906 103.836 344.493 104.424 344.493 105.147V146.798C344.493 147.523 343.906 148.11 343.182 148.11C342.458 148.11 341.87 147.522 341.87 146.798Z" fill="#E14C62"/>
<path opacity="0.2" d="M343.182 159.992C343.906 159.992 344.493 159.405 344.493 158.681C344.493 157.956 343.906 157.369 343.182 157.369C342.457 157.369 341.87 157.956 341.87 158.681C341.87 159.405 342.457 159.992 343.182 159.992Z" fill="#E14C62"/>
<path opacity="0.2" d="M343.182 178.51C343.906 178.51 344.493 177.922 344.493 177.198C344.493 176.474 343.906 175.887 343.182 175.887C342.457 175.887 341.87 176.474 341.87 177.198C341.87 177.922 342.457 178.51 343.182 178.51Z" fill="#E14C62"/>
<path opacity="0.2" d="M343.182 197.026C343.906 197.026 344.493 196.439 344.493 195.715C344.493 194.99 343.906 194.403 343.182 194.403C342.457 194.403 341.87 194.99 341.87 195.715C341.87 196.439 342.457 197.026 343.182 197.026Z" fill="#E14C62"/>
<path opacity="0.2" d="M303.614 106.968H202.139C196.355 106.968 191.622 102.235 191.622 96.4512C191.622 90.6674 196.355 85.9346 202.139 85.9346H303.614C309.398 85.9346 314.131 90.6674 314.131 96.4512C314.131 102.235 309.398 106.968 303.614 106.968Z" fill="#E14C62"/>
<path opacity="0.2" d="M266.369 137.5H202.14C196.356 137.5 191.623 132.767 191.623 126.983C191.623 121.2 196.356 116.467 202.14 116.467H266.369C272.153 116.467 276.886 121.2 276.886 126.983C276.885 132.768 272.153 137.5 266.369 137.5Z" fill="#E14C62"/>
<path d="M285.281 162.094H194.082C192.73 162.094 191.623 160.988 191.623 159.635C191.623 158.283 192.73 157.176 194.082 157.176H285.282C286.635 157.176 287.742 158.283 287.742 159.635C287.741 160.988 286.634 162.094 285.281 162.094Z" fill="#F2F2F2"/>
<path d="M306.711 162.094H297.381C296.029 162.094 294.922 160.988 294.922 159.635C294.922 158.283 296.029 157.176 297.381 157.176H306.711C308.063 157.176 309.17 158.283 309.17 159.635C309.17 160.988 308.063 162.094 306.711 162.094Z" fill="#F2F2F2"/>
<path d="M234.254 167.354H273.465C274.817 167.354 275.924 168.46 275.924 169.813C275.924 171.165 274.817 172.272 273.465 172.272H234.254C232.902 172.272 231.795 171.165 231.795 169.813C231.795 168.46 232.902 167.354 234.254 167.354Z" fill="#F2F2F2"/>
<path d="M194.082 167.354H222.154C223.507 167.354 224.614 168.46 224.614 169.813C224.614 171.165 223.507 172.272 222.154 172.272H194.082C192.73 172.272 191.623 171.165 191.623 169.813C191.622 168.46 192.729 167.354 194.082 167.354Z" fill="#F2F2F2"/>
<path d="M249.322 182.449H194.081C192.729 182.449 191.622 181.342 191.622 179.99C191.622 178.637 192.729 177.53 194.081 177.53H249.322C250.674 177.53 251.781 178.637 251.781 179.99C251.781 181.342 250.674 182.449 249.322 182.449Z" fill="#F2F2F2"/>
<path d="M289.494 182.449H261.422C260.07 182.449 258.963 181.342 258.963 179.99C258.963 178.637 260.07 177.53 261.422 177.53H289.494C290.847 177.53 291.954 178.637 291.954 179.99C291.954 181.342 290.848 182.449 289.494 182.449Z" fill="#F2F2F2"/>
<path d="M188.332 183.144L110.167 198.026C107.053 198.619 104.048 196.575 103.455 193.461L84.5242 94.0268C83.9314 90.913 85.9753 87.908 89.0891 87.3153L167.254 72.4334C170.368 71.8406 173.373 73.8845 173.965 76.9982L192.897 176.433C193.489 179.546 191.445 182.551 188.332 183.144Z" fill="#E14C62"/>
<g opacity="0.2">
<path d="M107.176 194.583C107.107 194.583 107.039 194.567 106.974 194.532C106.765 194.421 106.687 194.16 106.799 193.952L169.868 76.1033C169.98 75.8943 170.24 75.8163 170.448 75.9277C170.657 76.039 170.735 76.2994 170.624 76.5076L107.554 194.357C107.476 194.501 107.328 194.583 107.176 194.583Z" fill="white"/>
<path d="M189.692 178.873C189.594 178.873 189.495 178.84 189.415 178.771L87.4533 92.3434C87.2726 92.19 87.2503 91.9202 87.4036 91.7395C87.5561 91.5587 87.8268 91.5364 88.0076 91.6898L189.969 178.118C190.15 178.272 190.172 178.542 190.019 178.722C189.934 178.822 189.813 178.873 189.692 178.873Z" fill="white"/>
</g>
<path d="M179.688 189.949C179.688 189.949 190.866 228.783 195.4 247.852C200.162 267.879 214.328 298.152 215.506 311.427C216.731 311.914 220.699 311.366 222.816 310.342C222.816 310.342 220.874 268.017 209.365 248.738C211.964 201.298 199.088 189.949 199.088 189.949H179.688Z" fill="#E14C62"/>
<path opacity="0.1" d="M194.168 209.455L187.883 219.11C189.875 226.392 191.913 233.982 193.579 240.511C195.328 229.208 194.168 209.455 194.168 209.455Z" fill="#333333"/>
<path d="M202.752 156.49C202.934 157.023 203.056 157.403 203.19 157.842C203.321 158.268 203.431 158.691 203.546 159.113C203.776 159.956 203.957 160.805 204.141 161.652C204.482 163.351 204.75 165.066 204.912 166.801C205.096 168.533 205.163 170.289 205.133 172.055C205.137 173.818 204.945 175.607 204.705 177.386L204.666 177.677C204.639 177.874 204.587 178.076 204.521 178.256C204.104 179.381 203.49 180.332 202.818 181.073C202.146 181.82 201.439 182.395 200.741 182.875C199.344 183.814 197.952 184.372 196.608 184.816C195.253 185.241 193.925 185.521 192.602 185.703C191.261 185.878 190.003 185.972 188.59 185.935C187.3 185.901 186.283 184.829 186.316 183.539C186.34 182.62 186.893 181.839 187.675 181.478L187.871 181.389C188.85 180.941 189.955 180.469 190.948 179.976C191.954 179.482 192.928 178.97 193.794 178.417C194.67 177.887 195.428 177.278 195.957 176.738C196.487 176.191 196.63 175.7 196.544 175.663L196.361 176.532C196.387 175.117 196.381 173.7 196.271 172.257C196.162 170.82 196.005 169.373 195.779 167.924C195.547 166.478 195.294 165.027 194.972 163.589C194.816 162.869 194.642 162.155 194.469 161.446L194.2 160.396L193.943 159.445L193.878 159.198C193.212 156.722 194.679 154.176 197.155 153.51C199.525 152.875 201.964 154.207 202.752 156.49Z" fill="#FEBBBA"/>
<path d="M191.518 181.535L185.924 179.94C185.123 179.711 184.266 179.776 183.509 180.123L181.419 181.08C180.393 181.549 179.953 182.77 180.444 183.786L181.422 185.81C181.828 186.647 182.753 187.099 183.662 186.901L187.414 186.086C187.414 186.086 191.627 186.362 193.115 183.86L191.518 181.535Z" fill="#FEBBBA"/>
<path d="M196.586 148.635C193.585 151.751 191.984 156.433 194.413 165.385C197.617 166.973 205.379 164.912 205.379 164.912C205.379 164.912 205.489 151.461 196.586 148.635Z" fill="#E14C62"/>
<path opacity="0.7" d="M196.586 148.635C193.585 151.751 191.984 156.433 194.413 165.385C197.617 166.973 205.379 164.912 205.379 164.912C205.379 164.912 205.489 151.461 196.586 148.635Z" fill="white"/>
<path d="M202.02 154.88C201.864 154.885 201.743 155.016 201.748 155.171C201.753 155.323 201.878 155.443 202.029 155.443C202.033 155.443 202.036 155.443 202.039 155.442L203.44 155.391C203.359 155.205 203.276 155.021 203.188 154.838L202.02 154.88Z" fill="#333333"/>
<path d="M201.696 160.419C201.578 160.318 201.4 160.334 201.301 160.453C201.2 160.572 201.216 160.749 201.335 160.85L205.363 164.24C205.355 164.026 205.339 163.765 205.318 163.466L201.696 160.419Z" fill="#333333"/>
<path d="M193.557 161.413L198.088 158.565C198.22 158.481 198.26 158.308 198.177 158.177C198.094 158.045 197.92 158.006 197.789 158.087L193.461 160.808C193.487 161.004 193.525 161.212 193.557 161.413Z" fill="#E14C62"/>
<path d="M188.906 135.23C188.344 139.166 187.938 146.3 190.726 148.536C190.726 148.536 187.052 148.439 179.976 154.118C177.367 151.211 178.89 149.993 178.89 149.993C183.088 148.447 182.825 145.281 181.941 142.386L188.906 135.23Z" fill="#FEBBBA"/>
<path d="M177.796 130.429C177.667 130.943 177.293 131.311 176.963 131.252C176.631 131.193 176.468 130.727 176.597 130.214C176.726 129.7 177.099 129.333 177.43 129.392C177.762 129.452 177.926 129.916 177.796 130.429Z" fill="#333333"/>
<path d="M177.571 129.446L176.442 128.872C176.442 128.872 176.824 129.948 177.571 129.446Z" fill="#333333"/>
<path d="M177.578 131.401C177.578 131.401 176.162 133.458 174.947 134.356C175.457 135.109 176.667 135.023 176.667 135.023L177.578 131.401Z" fill="#FF7701"/>
<path d="M177.36 126.186C177.328 126.117 177.321 126.038 177.348 125.964C177.405 125.811 177.584 125.737 177.748 125.799C179.393 126.42 179.764 127.77 179.778 127.828C179.82 127.99 179.718 128.147 179.55 128.179C179.382 128.211 179.211 128.105 179.168 127.943C179.154 127.89 178.851 126.846 177.543 126.353C177.459 126.321 177.394 126.259 177.36 126.186Z" fill="#333333"/>
<path d="M194.995 131.558C193.195 137.599 192.562 140.188 188.737 142.778C182.985 146.673 175.962 143.563 175.922 137.209C175.886 131.488 178.836 122.569 185.398 121.196C191.863 119.843 196.794 125.516 194.995 131.558Z" fill="#FEBBBA"/>
<path d="M181.01 131.935C177.431 129.391 179.174 124.718 182.458 124.575C178.175 121.577 180.409 116.152 185.645 116.367C190.882 116.581 191.624 119.793 191.624 119.793C191.624 119.793 200.067 120.221 201.252 126.361C202.647 133.584 198.234 138.21 192.809 140.352C196.498 143.378 187.794 145.502 183.465 143.064C179.026 140.566 177.491 135.154 181.01 131.935Z" fill="#333333"/>
<path d="M200.877 123.82C196.272 122.968 193.963 129.335 196.961 133.054C197.483 133.702 198.002 134.174 198.503 134.511C200.38 135.775 202.932 134.48 203.116 132.225C203.365 129.166 203.362 124.279 200.877 123.82Z" fill="white"/>
<path d="M213.377 127.076C213.716 126.821 213.941 126.501 213.985 126.097C214.181 124.298 212.818 123.131 211.178 122.874C210.194 119.742 206.038 119.684 203.7 121.928C201.787 120.951 199.657 123.1 199.917 125.345C197.9 126.25 197.378 129.594 199.212 131.53C199.597 131.937 199.971 132.226 200.326 132.425C200.415 132.476 200.509 132.499 200.601 132.534C200.763 133.825 201.81 135.145 203.31 135.44C203.754 135.527 204.134 135.543 204.46 135.507C205.072 135.442 205.53 135.051 205.746 134.551C207.087 135.652 208.516 136.368 209.535 135.657C210.605 134.912 211.033 133.844 210.995 132.74C211.7 133.018 212.367 133.049 212.913 132.668C214.879 131.3 214.713 128.85 213.377 127.076Z" fill="#333333"/>
<path d="M182.975 132.84C182.228 134.048 181.12 134.733 180.142 134.9C178.672 135.15 178.199 133.447 178.827 131.847C179.392 130.406 180.838 128.539 182.209 129.025C183.558 129.503 183.829 131.459 182.975 132.84Z" fill="#FEBBBA"/>
<path d="M181.01 128.36C182.268 125.956 189.168 119.383 193.76 119.627C194.949 119.948 195.92 120.411 196.471 120.708C196.622 120.789 196.578 121.013 196.407 121.033C194.606 121.244 188.76 122.593 183.279 131.215C182.03 130.394 181.01 128.36 181.01 128.36Z" fill="#E14C62"/>
<path d="M183.763 133.251C182.656 135.713 180.434 137.113 178.801 136.379C177.166 135.644 176.739 133.053 177.846 130.591C178.952 128.129 181.174 126.73 182.808 127.464C184.441 128.198 184.869 130.789 183.763 133.251Z" fill="white"/>
<path d="M182.409 132.642C181.409 134.865 179.494 136.17 178.132 135.558C176.769 134.945 176.474 132.646 177.474 130.423C178.472 128.2 180.388 126.895 181.751 127.507C183.113 128.12 183.407 130.419 182.409 132.642Z" fill="#E14C62"/>
<path d="M211.81 320.274C216.622 319.561 216.715 318.761 219.296 317.856C221.505 317.077 222.127 317.189 223.909 316.587C225.399 316.085 224.893 314.666 223.913 313.16C223.423 312.403 223.352 311.683 222.815 310.343L215.505 311.427C214.793 313.469 214.542 316.079 210.37 317.573C207.884 318.463 209.892 320.56 211.81 320.274Z" fill="#333333"/>
<path d="M167.235 320.293C172.017 320.284 172.937 319.979 175.624 319.887C177.927 319.803 178.306 320.293 180.641 320.293C182.188 320.293 182.401 318.551 181.835 317.244C181.394 316.227 181.327 315.009 181.006 313.688H174.412C173.222 315.779 169.98 317.326 166.354 317.584C163.765 317.776 165.321 320.293 167.235 320.293Z" fill="#333333"/>
<path d="M172.825 189.949C172.825 189.949 171.872 224.355 173.91 246.204C173.782 266.715 174.413 313.688 174.413 313.688C174.573 314.736 180.075 314.318 181.008 313.688C181.008 313.688 191.31 279.474 186.737 246.204C198.186 211.504 195.717 189.949 195.717 189.949H172.825Z" fill="#E14C62"/>
<path d="M214.546 308.768C214.623 309.434 214.734 310.6 214.693 311.508C214.678 311.835 214.936 312.099 215.264 312.102C218.004 312.134 221.784 310.939 222.98 310.536C223.209 310.459 223.36 310.245 223.362 310.004L223.385 307.416C223.388 307.062 223.072 306.791 222.722 306.85L215.016 308.145C214.719 308.195 214.511 308.466 214.546 308.768Z" fill="#E14C62"/>
<path opacity="0.5" d="M214.546 308.768C214.623 309.434 214.734 310.6 214.693 311.508C214.678 311.835 214.936 312.099 215.264 312.102C218.004 312.134 221.784 310.939 222.98 310.536C223.209 310.459 223.36 310.245 223.362 310.004L223.385 307.416C223.388 307.062 223.072 306.791 222.722 306.85L215.016 308.145C214.719 308.195 214.511 308.466 214.546 308.768Z" fill="white"/>
<path d="M173.657 310.798C173.638 311.51 173.596 312.78 173.531 313.718C173.509 314.028 173.74 314.302 174.051 314.345C176.385 314.666 180.106 314.375 181.327 314.264C181.568 314.242 181.76 314.067 181.806 313.83L182.296 311.276C182.363 310.927 182.092 310.589 181.733 310.575L174.223 310.276C173.915 310.264 173.666 310.492 173.657 310.798Z" fill="#E14C62"/>
<path opacity="0.5" d="M173.657 310.798C173.638 311.51 173.596 312.78 173.531 313.718C173.509 314.028 173.74 314.302 174.051 314.345C176.385 314.666 180.106 314.375 181.327 314.264C181.568 314.242 181.76 314.067 181.806 313.83L182.296 311.276C182.363 310.927 182.092 310.589 181.733 310.575L174.223 310.276C173.915 310.264 173.666 310.492 173.657 310.798Z" fill="white"/>
<path d="M168.467 161.116C168.703 163.689 168.998 166.946 170.106 173.02C170.945 178.173 171.563 183.2 172.783 191.699C184.587 192.939 198.478 191.939 199.087 189.95C198.156 182.592 198.184 172.662 200.831 155.565C201.445 151.6 198.572 148.219 194.659 148.303C193.614 148.326 192.508 148.373 191.377 148.457C186.98 148.784 183.38 149.085 179.54 149.915C178.268 150.19 176.955 150.515 175.702 150.849C171.181 152.054 168.044 156.506 168.467 161.116Z" fill="#E14C62"/>
<path opacity="0.8" d="M168.467 161.116C168.703 163.689 168.998 166.946 170.106 173.02C170.945 178.173 171.563 183.2 172.783 191.699C184.587 192.939 198.478 191.939 199.087 189.95C198.156 182.592 198.184 172.662 200.831 155.565C201.445 151.6 198.572 148.219 194.659 148.303C193.614 148.326 192.508 148.373 191.377 148.457C186.98 148.784 183.38 149.085 179.54 149.915C178.268 150.19 176.955 150.515 175.702 150.849C171.181 152.054 168.044 156.506 168.467 161.116Z" fill="white"/>
<path d="M170.581 154.248L171.953 155.971C172.009 156.04 172.091 156.077 172.174 156.077C172.235 156.077 172.297 156.057 172.348 156.015C172.47 155.918 172.49 155.742 172.394 155.62L170.951 153.809C170.823 153.953 170.7 154.098 170.581 154.248Z" fill="#333333"/>
<path d="M176.862 153.237C176.868 153.237 176.874 153.237 176.88 153.237C177.028 153.237 177.152 153.123 177.161 152.974L177.321 150.435C177.128 150.483 176.939 150.532 176.747 150.581L176.599 152.938C176.589 153.093 176.707 153.226 176.862 153.237Z" fill="#E14C62"/>
<path d="M189.178 155.506C189.226 155.538 189.28 155.553 189.333 155.553C189.424 155.553 189.514 155.509 189.568 155.428C189.654 155.298 189.618 155.123 189.488 155.038L182.285 150.28C182.156 150.195 181.982 150.23 181.895 150.36C181.81 150.489 181.845 150.664 181.975 150.75L189.178 155.506Z" fill="#E14C62"/>
<path d="M176.889 157.101C176.832 157.246 176.903 157.409 177.048 157.465L185.087 160.612C185.121 160.626 185.156 160.632 185.19 160.632C185.302 160.632 185.408 160.564 185.452 160.452C185.509 160.308 185.437 160.145 185.293 160.088L177.253 156.942C177.109 156.884 176.945 156.956 176.889 157.101Z" fill="#333333"/>
<path d="M172.245 171.411C172.292 171.442 172.345 171.457 172.398 171.457C172.489 171.457 172.58 171.411 172.634 171.328L177.318 164.077C177.402 163.947 177.365 163.772 177.234 163.688C177.104 163.604 176.93 163.642 176.845 163.772L172.161 171.023C172.077 171.154 172.114 171.328 172.245 171.411Z" fill="#E14C62"/>
<path d="M169.953 165.078C170.008 165.13 170.076 165.155 170.146 165.155C170.221 165.155 170.296 165.125 170.351 165.065C170.458 164.952 170.452 164.774 170.339 164.668L168.655 163.092C168.683 163.366 168.713 163.651 168.745 163.948L169.953 165.078Z" fill="#E14C62"/>
<path d="M195.363 169.877C195.217 169.931 195.142 170.092 195.195 170.238C195.237 170.352 195.345 170.423 195.459 170.423C195.492 170.423 195.525 170.418 195.556 170.406L199.117 169.103C199.136 168.9 199.157 168.689 199.177 168.482L195.363 169.877Z" fill="#E14C62"/>
<path d="M193.84 164.072C193.891 164.072 193.943 164.058 193.989 164.029L200.164 160.148C200.198 159.906 200.23 159.666 200.265 159.42L193.69 163.552C193.559 163.635 193.519 163.808 193.602 163.94C193.654 164.026 193.746 164.072 193.84 164.072Z" fill="#E14C62"/>
<path d="M189.625 165.156C189.541 165.025 189.368 164.985 189.236 165.067L181.928 169.661C181.796 169.744 181.757 169.917 181.839 170.049C181.893 170.134 181.984 170.181 182.077 170.181C182.128 170.181 182.181 170.166 182.227 170.138L189.535 165.544C189.667 165.461 189.707 165.287 189.625 165.156Z" fill="#E14C62"/>
<path d="M195.787 155.428C195.82 155.428 195.854 155.422 195.886 155.41C196.032 155.356 196.105 155.194 196.05 155.048L193.521 148.341C193.323 148.349 193.128 148.355 192.928 148.364L195.523 155.247C195.566 155.359 195.673 155.428 195.787 155.428Z" fill="#333333"/>
<path d="M188.533 190.527C188.404 190.44 188.229 190.476 188.143 190.606C188.058 190.736 188.093 190.911 188.223 190.996L189.826 192.054C190.139 192.033 190.446 192.012 190.748 191.989L188.533 190.527Z" fill="#E14C62"/>
<path d="M198.862 187.862L192.624 185.421C192.479 185.364 192.316 185.436 192.26 185.58C192.203 185.725 192.274 185.888 192.419 185.945L198.921 188.489C198.898 188.285 198.881 188.071 198.862 187.862Z" fill="#E14C62"/>
<path d="M172.501 189.723C172.525 189.896 172.549 190.064 172.574 190.24C172.677 190.196 172.756 190.11 172.753 189.991C172.748 189.849 172.634 189.722 172.501 189.723Z" fill="#333333"/>
<path d="M172.423 181.102C172.504 181.102 172.584 181.068 172.638 181.002C172.739 180.883 172.723 180.706 172.604 180.606L171.047 179.296C171.085 179.572 171.125 179.848 171.164 180.13L172.242 181.037C172.295 181.081 172.359 181.102 172.423 181.102Z" fill="#E14C62"/>
<path d="M185.585 178.286C185.697 178.286 185.803 178.218 185.847 178.107C185.903 177.962 185.832 177.799 185.688 177.743L177.65 174.594C177.506 174.537 177.342 174.608 177.285 174.753C177.229 174.898 177.3 175.06 177.444 175.117L185.482 178.266C185.516 178.28 185.55 178.286 185.585 178.286Z" fill="#333333"/>
<path d="M183.722 182.003L176.413 186.597C176.282 186.681 176.241 186.854 176.325 186.985C176.378 187.07 176.469 187.117 176.563 187.117C176.614 187.117 176.666 187.103 176.712 187.075L184.021 182.481C184.152 182.397 184.193 182.224 184.109 182.093C184.027 181.961 183.852 181.922 183.722 182.003Z" fill="#E14C62"/>
<path d="M190.47 179.82C190.523 179.905 190.615 179.952 190.708 179.952C190.76 179.952 190.811 179.937 190.858 179.909L198.167 175.315C198.298 175.232 198.338 175.059 198.255 174.927C198.173 174.795 197.998 174.756 197.867 174.838L190.558 179.432C190.427 179.515 190.387 179.688 190.47 179.82Z" fill="#333333"/>
<path d="M182.188 190.787C182.133 190.642 181.971 190.569 181.825 190.624C181.681 190.679 181.607 190.84 181.662 190.986L182.132 192.233C182.333 192.236 182.535 192.238 182.736 192.24L182.188 190.787Z" fill="#333333"/>
<path d="M176.24 161.286C176.174 161.845 176.12 162.24 176.052 162.694C175.986 163.134 175.899 163.563 175.819 163.993C175.653 164.851 175.464 165.697 175.266 166.542C174.848 168.224 174.346 169.886 173.746 171.522C173.165 173.163 172.47 174.777 171.682 176.359C170.925 177.951 169.98 179.483 168.998 180.985L168.82 181.257C168.717 181.415 168.588 181.566 168.457 181.691C166.887 183.177 165.466 184.167 163.999 185.199C162.547 186.212 161.068 187.14 159.594 188.051C158.108 188.946 156.615 189.817 155.101 190.645C153.57 191.455 152.063 192.271 150.478 193.012C149.313 193.557 147.927 193.054 147.382 191.889C146.946 190.957 147.181 189.884 147.887 189.213L147.908 189.195C149.136 188.032 150.422 186.913 151.671 185.77L155.456 182.419C156.721 181.321 157.95 180.197 159.164 179.106C159.77 178.557 160.352 178.008 160.91 177.459L161.705 176.657C161.961 176.395 162.15 176.16 162.378 175.915L161.837 176.62C162.47 175.354 163.076 174.073 163.598 172.723C164.119 171.379 164.601 170.006 165.021 168.601C165.437 167.197 165.829 165.777 166.164 164.342C166.335 163.626 166.497 162.908 166.639 162.193L167.019 160.159L167.068 159.899C167.539 157.379 169.964 155.719 172.483 156.191C174.891 156.639 176.512 158.889 176.24 161.286Z" fill="#FEBBBA"/>
<path d="M150.144 189.011L145.34 187.589C144.54 187.353 143.684 187.409 142.923 187.748L140.824 188.684C139.793 189.143 139.342 190.359 139.822 191.38L140.781 193.414C141.177 194.255 142.098 194.715 143.009 194.527L146.769 193.75C146.769 193.75 148.634 193.89 150.329 193.251C151.67 192.745 152.169 191.1 151.369 189.911C151.077 189.477 150.645 189.159 150.144 189.011Z" fill="#FEBBBA"/>
<path d="M174.061 151.539C170.011 153.059 166.548 156.593 164.883 165.718C167.089 168.531 174.983 170.016 174.983 170.016C174.983 170.016 180.877 157.925 174.061 151.539Z" fill="#E14C62"/>
<path opacity="0.8" d="M174.061 151.539C170.011 153.059 166.548 156.593 164.883 165.718C167.089 168.531 174.983 170.016 174.983 170.016C174.983 170.016 180.877 157.925 174.061 151.539Z" fill="white"/>
<path d="M171.954 155.97C172.009 156.04 172.092 156.076 172.174 156.076C172.235 156.076 172.297 156.057 172.349 156.015C172.47 155.918 172.491 155.742 172.394 155.62L170.694 153.484C170.551 153.603 170.41 153.728 170.27 153.856L171.954 155.97Z" fill="#333333"/>
<path d="M176.89 157.101C176.833 157.246 176.904 157.409 177.049 157.465L177.144 157.503C177.112 157.316 177.079 157.13 177.039 156.945C176.973 156.974 176.918 157.028 176.89 157.101Z" fill="#333333"/>
<path d="M173.667 169.728L176.697 165.038C176.803 164.6 176.902 164.144 176.988 163.673C176.934 163.693 176.879 163.719 176.846 163.771L173.089 169.588C173.296 169.639 173.487 169.685 173.667 169.728Z" fill="#E14C62"/>
<path d="M169.954 165.077C170.009 165.129 170.077 165.153 170.147 165.153C170.222 165.153 170.297 165.124 170.352 165.064C170.458 164.951 170.452 164.773 170.339 164.667L166.145 160.74C166.079 160.935 166.013 161.127 165.949 161.328L169.954 165.077Z" fill="#E14C62"/>
<path d="M286.117 244.564C284.922 239.923 286.363 238.154 288.054 236.303C289.745 234.451 289.547 231.356 289.547 231.356C289.547 231.356 292.175 236.583 291.404 242.763C290.634 248.944 286.99 247.952 286.117 244.564Z" fill="#FFB300"/>
<path d="M293.462 281.998C291.689 279.026 284.141 272.755 278.409 275.218C282.992 277.122 288.047 288.707 294.829 288.221C293.662 282.906 293.462 281.998 293.462 281.998Z" fill="#FFB300"/>
<path d="M298.798 307.73C298.435 307.73 298.106 307.482 298.016 307.115C296.911 302.58 287.119 261.973 283.284 233.147C283.224 232.706 283.535 232.301 283.976 232.243C284.419 232.178 284.822 232.494 284.88 232.935C288.705 261.678 298.479 302.207 299.581 306.734C299.687 307.166 299.421 307.602 298.99 307.707C298.924 307.722 298.86 307.73 298.798 307.73Z" fill="#E14C62"/>
<path d="M285.271 234.898C285.375 231.497 283.787 229.404 279.802 229.038C275.817 228.672 274.557 227.011 273.812 225.461C275.157 233.29 284.544 235.249 285.458 239.114C285.271 236.218 285.271 234.898 285.271 234.898Z" fill="#E14C62"/>
<path d="M287.057 247.816C286.729 244.251 283.852 243.761 280.575 243.331C277.297 242.901 276.209 240.799 276.209 240.799C276.209 240.799 274.719 245.401 278.584 249.067C282.449 252.733 287.297 250.419 287.057 247.816Z" fill="#E14C62"/>
<path d="M292.51 279.278C291.945 275.296 294.676 273.648 294.252 267.804C302.076 281.176 293.397 285.526 292.51 279.278Z" fill="#E14C62"/>
<path d="M288.849 263.035C286.641 259.673 283.503 260.242 279.957 255.576C282.925 270.781 292.313 268.309 288.849 263.035Z" fill="#E14C62"/>
<path d="M305.339 263.831C305.533 258.455 300.549 255.619 296.733 250.246C299.053 260.939 305.034 272.267 305.339 263.831Z" fill="#FFB300"/>
<path d="M302.886 302.889C302.861 302.889 302.837 302.889 302.811 302.887C302.29 302.846 301.9 302.39 301.941 301.868C302.833 290.574 305.985 241.892 305.102 210.061C305.088 209.539 305.5 209.103 306.022 209.089C306.577 209.083 306.98 209.486 306.995 210.009C307.879 241.924 304.722 290.702 303.829 302.017C303.79 302.513 303.375 302.889 302.886 302.889Z" fill="#E14C62"/>
<path d="M305.329 212.614C304.132 206.101 306.576 201.608 314.137 199.738C321.699 197.867 323.636 194.304 324.615 191.103C324.319 206.56 306.828 213.075 306.2 220.78C305.715 215.153 305.329 212.614 305.329 212.614Z" fill="#E14C62"/>
<path d="M305.909 225.781C307.12 217.974 301.225 215.383 294.443 212.705C287.66 210.027 286.46 204.944 286.46 204.944C286.46 204.944 280.801 213.993 287.106 223.911C293.411 233.83 305.025 231.48 305.909 225.781Z" fill="#E14C62"/>
<path d="M305.875 245.726C307.176 239.532 312.327 239.257 318.17 239.169C324.012 239.08 326.349 235.609 326.349 235.609C326.349 235.609 328.031 243.993 320.499 249.644C312.966 255.296 304.925 250.248 305.875 245.726Z" fill="#E14C62"/>
<path d="M304.785 275.816C306.202 272.005 313.592 263.158 320.737 264.787C315.847 267.96 312.466 282.417 304.527 283.296C304.747 276.908 304.785 275.816 304.785 275.816Z" fill="#E14C62"/>
<path d="M311.618 294.528H287.779C286.457 294.528 285.507 295.8 285.882 297.067L292.334 318.875C292.583 319.715 293.355 320.292 294.231 320.292H305.166C306.042 320.292 306.814 319.715 307.062 318.875L313.514 297.067C313.888 295.8 312.939 294.528 311.618 294.528Z" fill="#E14C62"/>
<path opacity="0.2" d="M311.618 294.528H287.779C286.457 294.528 285.507 295.8 285.882 297.067L292.334 318.875C292.583 319.715 293.355 320.292 294.231 320.292H305.166C306.042 320.292 306.814 319.715 307.062 318.875L313.514 297.067C313.888 295.8 312.939 294.528 311.618 294.528Z" fill="#E14C62"/>
<path opacity="0.7" d="M311.618 294.528H287.779C286.457 294.528 285.507 295.8 285.882 297.067L292.334 318.875C292.583 319.715 293.355 320.292 294.231 320.292H305.166C306.042 320.292 306.814 319.715 307.062 318.875L313.514 297.067C313.888 295.8 312.939 294.528 311.618 294.528Z" fill="white"/>
<path d="M267.039 133.482C265.777 134.294 264.919 134.314 263.831 133.303C262.825 132.368 261.893 131.322 261.088 130.21C259.936 128.617 259.149 126.822 258.799 124.869C258.499 123.195 258.82 122.519 260.249 121.745C260.842 122.769 261.442 123.792 262.019 124.829C262.063 124.908 261.939 125.073 261.907 125.201C261.785 125.692 261.52 126.203 261.578 126.674C261.722 127.845 262.274 128.865 263.127 129.699C263.627 130.189 264.192 130.509 264.94 130.34C265.051 130.316 265.257 130.417 265.319 130.52C265.899 131.49 266.457 132.473 267.039 133.482Z" fill="#333333"/>
<path d="M268.976 132.493C268.892 132.596 268.8 132.756 268.664 132.861C268.484 133.002 268.261 133.087 268.072 133.218C267.622 133.53 267.322 133.425 267.062 132.948C266.591 132.081 266.091 131.23 265.584 130.384C265.31 129.927 265.365 129.603 265.867 129.372C266.076 129.276 266.257 129.08 266.47 129.046C266.676 129.013 267.021 129.057 267.105 129.192C267.729 130.188 268.304 131.214 268.892 132.232C268.922 132.285 268.931 132.35 268.976 132.493Z" fill="#333333"/>
<path d="M264.11 124.077C263.957 124.214 263.813 124.386 263.632 124.498C262.572 125.149 262.57 125.144 261.95 124.071C261.53 123.344 261.121 122.61 260.68 121.896C260.401 121.445 260.511 121.157 260.961 120.938C261.149 120.846 261.329 120.735 261.508 120.626C261.839 120.423 262.092 120.473 262.293 120.823C262.836 121.77 263.391 122.71 263.936 123.656C263.998 123.763 264.032 123.885 264.11 124.077Z" fill="#333333"/>
<path d="M220.112 94.432C212.602 96.93 209.965 94.2585 209.965 94.2585C208.046 95.5304 205.746 96.2727 203.271 96.2727C196.568 96.2727 191.135 90.8392 191.135 84.1364C191.135 77.4335 196.568 72 203.271 72C209.974 72 215.407 77.4335 215.407 84.1364C215.407 86.0605 214.958 87.8782 214.161 89.4951C214.161 89.4951 215.202 93.5092 220.112 94.432Z" fill="#F2F2F2"/>
<path d="M210.69 82.5866C210.69 83.5705 210.489 84.4792 210.086 85.3125C209.684 86.1459 209.131 86.7971 208.428 87.2656C207.725 87.7342 206.954 87.9687 206.115 87.9687C205.131 87.9687 204.497 87.5953 204.213 86.849H204.126C203.849 87.2249 203.526 87.5058 203.158 87.6909C202.791 87.8761 202.338 87.9687 201.8 87.9687C201.123 87.9687 200.57 87.7271 200.142 87.2437C199.713 86.7604 199.499 86.1194 199.499 85.3207C199.499 84.4176 199.713 83.5655 200.142 82.7642C200.57 81.9624 201.138 81.3519 201.848 80.9326C202.557 80.5129 203.357 80.3033 204.248 80.3033C205.145 80.3033 206.117 80.5058 207.165 80.9108L206.297 84.5046C206.163 85.0485 206.097 85.4453 206.097 85.6941C206.097 85.9312 206.21 86.0502 206.436 86.0502C206.806 86.0502 207.142 85.9098 207.442 85.629C207.743 85.3481 207.979 84.9472 208.15 84.4268C208.321 83.9058 208.406 83.3101 208.406 82.6385C208.406 81.4058 208.02 80.4727 207.247 79.8388C206.474 79.2049 205.368 78.8885 203.926 78.8885C202.844 78.8885 201.871 79.1535 201.005 79.6826C200.14 80.2122 199.469 80.9586 198.991 81.9222C198.514 82.8858 198.275 83.9841 198.275 85.2169C198.275 86.0558 198.434 86.791 198.752 87.4218C199.07 88.0527 199.514 88.5385 200.084 88.8804C200.654 89.2218 201.301 89.3927 202.025 89.3927C202.621 89.3927 203.298 89.322 204.056 89.1801C204.814 89.0381 205.523 88.8372 206.183 88.5767V90.5298C205.662 90.7786 205.016 90.9826 204.243 91.1418C203.47 91.3011 202.743 91.3804 202.06 91.3804C200.85 91.3804 199.787 91.1388 198.869 90.6555C197.952 90.1721 197.244 89.4777 196.747 88.5721C196.249 87.6665 196 86.6175 196 85.4255C196 83.7588 196.339 82.2798 197.015 80.9891C197.693 79.6984 198.663 78.6931 199.928 77.9722C201.193 77.2518 202.598 76.8916 204.143 76.8916C206.197 76.8916 207.802 77.3953 208.956 78.4021C210.112 79.4094 210.69 80.8039 210.69 82.5866ZM204.074 82.231C203.652 82.231 203.28 82.3683 202.959 82.6431C202.638 82.9178 202.384 83.2856 202.199 83.7455C202.014 84.2055 201.921 84.673 201.921 85.1477C201.921 85.7495 202.147 86.0507 202.599 86.0507C202.952 86.0507 203.24 85.9017 203.462 85.6035C203.685 85.3054 203.901 84.76 204.109 83.9674L204.517 82.318C204.384 82.2595 204.237 82.231 204.074 82.231Z" fill="#333333"/>
</svg>
