<svg width="331" height="330" viewBox="0 0 331 330" fill="none" xmlns="http://www.w3.org/2000/svg">
<path d="M165.061 330C256.222 330 330.123 256.127 330.123 165C330.123 73.873 256.222 0 165.061 0C73.9005 0 0 73.873 0 165C0 256.127 73.9005 330 165.061 330Z" fill="#F2F2F2"/>
<path d="M62.7001 266.59L307.215 266.59V96.523L62.7001 96.523L62.7001 266.59Z" fill="#363E44"/>
<path d="M299.543 244.065V104.191L70.3716 104.191L70.3716 244.065L299.543 244.065Z" fill="#F2F2F2"/>
<path d="M184.971 259.018C187.513 259.011 189.568 256.946 189.562 254.405C189.555 251.864 187.489 249.81 184.947 249.816C182.405 249.823 180.35 251.888 180.356 254.429C180.363 256.97 182.429 259.025 184.971 259.018Z" fill="#F2E6DC"/>
<path d="M217.935 312.114H151.98C151.88 312.114 151.8 312.034 151.8 311.934V308.718C151.8 308.707 151.801 308.696 151.803 308.685L159.042 270.229C159.058 270.144 159.133 270.082 159.219 270.082H210.696C210.783 270.082 210.857 270.144 210.873 270.229L218.112 308.685C218.114 308.696 218.116 308.707 218.116 308.718V311.934C218.115 312.034 218.035 312.114 217.935 312.114ZM152.16 311.754H217.755V308.735L210.546 270.443H159.369L152.16 308.735L152.16 311.754Z" fill="#363E44"/>
<path d="M217.935 316.134H151.98C151.88 316.134 151.8 316.053 151.8 315.954C151.8 315.854 151.88 315.773 151.98 315.773H217.935C218.035 315.773 218.115 315.854 218.115 315.954C218.115 316.053 218.035 316.134 217.935 316.134Z" fill="#363E44"/>
<path d="M146.317 234.742L141.5 233.363C141.742 230.892 141.781 228.432 141.631 226.004L146.491 224.791L142.387 208.341L137.516 209.557C136.498 207.323 135.305 205.172 133.949 203.125L137.559 199.638L125.777 187.446L122.175 190.925C120.194 189.512 118.087 188.243 115.862 187.139L117.243 182.323L100.939 177.655L99.5579 182.471C97.0858 182.23 94.6258 182.191 92.1964 182.342L90.9846 177.484L74.5279 181.592L75.7424 186.46C73.5076 187.479 71.3557 188.672 69.3076 190.028L65.8206 186.419L53.6205 198.202L57.0997 201.802C55.6856 203.782 54.4155 205.889 53.311 208.114L48.4936 206.734H48.4934L43.8193 223.034L48.6367 224.413C48.3949 226.885 48.3554 229.344 48.5053 231.772L43.646 232.985L47.7499 249.435L52.6202 248.22C53.639 250.454 54.8319 252.604 56.1874 254.651L52.5769 258.138L64.3595 270.331L67.962 266.852C69.9427 268.265 72.05 269.534 74.2747 270.638L72.8936 275.454L89.1975 280.122L90.5787 275.306C93.0506 275.547 95.5108 275.585 97.94 275.435L99.1518 280.292L115.609 276.185L114.394 271.317C116.629 270.298 118.781 269.104 120.829 267.749L124.316 271.357L136.516 259.575L133.037 255.975C134.451 253.994 135.721 251.887 136.825 249.663L141.643 251.042L146.317 234.742ZM123.574 238.069C118.771 253.002 102.974 261.761 87.761 257.926C70.963 253.691 61.2592 236.197 66.5626 219.707C71.3655 204.774 87.1629 196.015 102.375 199.85C119.174 204.085 128.877 221.579 123.574 238.069Z" fill="white"/>
<path d="M95.0703 266.163C91.6563 266.163 88.2021 265.693 84.7937 264.717C75.221 261.976 67.29 255.673 62.4616 246.967C57.6331 238.262 56.4853 228.197 59.2299 218.627C61.7053 209.995 67.2105 202.547 74.7314 197.656C82.1775 192.814 91.1023 190.777 99.8614 191.921C99.96 191.934 100.03 192.025 100.017 192.123C100.004 192.222 99.9142 192.292 99.8145 192.279C81.872 189.936 64.5719 201.306 59.5763 218.726C56.8586 228.204 57.9952 238.171 62.7768 246.792C67.5585 255.413 75.4127 261.656 84.8927 264.37C101.063 269.001 118.32 262.131 126.859 247.665C126.91 247.58 127.021 247.551 127.106 247.602C127.192 247.652 127.221 247.763 127.17 247.849C120.348 259.407 108.011 266.163 95.0703 266.163Z" fill="#F2E6DC"/>
<path d="M256.686 32.3838H82.4199V89.279H256.686V32.3838Z" fill="white"/>
<path d="M260.921 92.7423H86.6549C86.5554 92.7423 86.4746 92.6615 86.4746 92.5619V36.1608C86.4746 36.0613 86.5554 35.9805 86.6549 35.9805H260.921C261.021 35.9805 261.101 36.0613 261.101 36.1608V92.5619C261.101 92.6617 261.021 92.7423 260.921 92.7423ZM86.8353 92.3816H260.741V36.3411H86.8353V92.3816Z" fill="#333333"/>
<path d="M208.644 47.4778H179.695C179.595 47.4778 179.515 47.3971 179.515 47.2975C179.515 47.198 179.595 47.1172 179.695 47.1172H208.644C208.743 47.1172 208.824 47.198 208.824 47.2975C208.824 47.3971 208.743 47.4778 208.644 47.4778Z" fill="#AAAAAA"/>
<path d="M162.753 47.4778H98.2604C98.1607 47.4778 98.0801 47.3971 98.0801 47.2975C98.0801 47.198 98.1607 47.1172 98.2604 47.1172H162.753C162.853 47.1172 162.933 47.198 162.933 47.2975C162.933 47.3971 162.853 47.4778 162.753 47.4778Z" fill="#AAAAAA"/>
<path d="M208.644 53.5208H132.873C132.773 53.5208 132.692 53.44 132.692 53.3405C132.692 53.2409 132.773 53.1602 132.873 53.1602H208.644C208.743 53.1602 208.824 53.2409 208.824 53.3405C208.824 53.4402 208.743 53.5208 208.644 53.5208Z" fill="#AAAAAA"/>
<path d="M123.861 53.5208H98.2604C98.1607 53.5208 98.0801 53.44 98.0801 53.3405C98.0801 53.2409 98.1607 53.1602 98.2604 53.1602H123.861C123.961 53.1602 124.042 53.2409 124.042 53.3405C124.042 53.4402 123.961 53.5208 123.861 53.5208Z" fill="#AAAAAA"/>
<path d="M208.644 59.1859H179.695C179.595 59.1859 179.515 59.1051 179.515 59.0055C179.515 58.906 179.595 58.8252 179.695 58.8252H208.644C208.743 58.8252 208.824 58.906 208.824 59.0055C208.824 59.1051 208.743 59.1859 208.644 59.1859Z" fill="#AAAAAA"/>
<path d="M162.753 59.1859H98.2604C98.1607 59.1859 98.0801 59.1051 98.0801 59.0055C98.0801 58.906 98.1607 58.8252 98.2604 58.8252H162.753C162.853 58.8252 162.933 58.906 162.933 59.0055C162.933 59.1051 162.853 59.1859 162.753 59.1859Z" fill="#AAAAAA"/>
<path d="M208.644 65.2288H154.05C153.95 65.2288 153.87 65.148 153.87 65.0485C153.87 64.949 153.95 64.8682 154.05 64.8682H208.644C208.743 64.8682 208.824 64.949 208.824 65.0485C208.824 65.148 208.743 65.2288 208.644 65.2288Z" fill="#AAAAAA"/>
<path d="M140.803 65.2288H98.2604C98.1607 65.2288 98.0801 65.148 98.0801 65.0485C98.0801 64.949 98.1607 64.8682 98.2604 64.8682H140.803C140.903 64.8682 140.984 64.949 140.984 65.0485C140.984 65.148 140.903 65.2288 140.803 65.2288Z" fill="#AAAAAA"/>
<path d="M208.644 73.9153H141.876C141.776 73.9153 141.695 73.8346 141.695 73.735C141.695 73.6355 141.776 73.5547 141.876 73.5547H208.644C208.744 73.5547 208.824 73.6355 208.824 73.735C208.824 73.8346 208.743 73.9153 208.644 73.9153Z" fill="#AAAAAA"/>
<path d="M208.644 79.9583H182.304C182.205 79.9583 182.124 79.8775 182.124 79.778C182.124 79.6784 182.205 79.5977 182.304 79.5977H208.644C208.743 79.5977 208.824 79.6784 208.824 79.778C208.824 79.8777 208.743 79.9583 208.644 79.9583Z" fill="#AAAAAA"/>
<path d="M171.96 79.9583H135.277C135.178 79.9583 135.097 79.8775 135.097 79.778C135.097 79.6784 135.178 79.5977 135.277 79.5977H171.96C172.06 79.5977 172.141 79.6784 172.141 79.778C172.141 79.8777 172.06 79.9583 171.96 79.9583Z" fill="#AAAAAA"/>
<path d="M224.294 50.9818L224.305 59.3611C224.311 63.989 228.065 67.7357 232.689 67.7297C237.314 67.7238 241.058 63.9672 241.052 59.3394L241.041 50.96L224.294 50.9818Z" fill="#333333"/>
<path d="M232.645 54.8738C244.618 54.8738 254.323 45.1607 254.323 33.1791C254.323 21.1974 244.618 11.4844 232.645 11.4844C220.672 11.4844 210.966 21.1974 210.966 33.1791C210.966 45.1607 220.672 54.8738 232.645 54.8738Z" fill="#FFB300"/>
<path d="M232.626 62.401C229.772 62.401 224.473 62.1271 224.471 61.0835C224.471 60.984 224.552 60.903 224.651 60.9029C224.751 60.9029 224.832 60.9835 224.832 61.0828C224.914 61.4269 227.58 62.0402 232.602 62.0404C232.629 62.0404 232.655 62.0404 232.682 62.0404C237.756 62.0337 240.448 61.4087 240.53 61.0605C240.53 60.9609 240.61 60.881 240.71 60.8809C240.71 60.8809 240.71 60.8809 240.71 60.8809C240.81 60.8809 240.89 60.9624 240.89 61.0619C240.892 62.1125 235.522 62.397 232.682 62.4008C232.664 62.401 232.645 62.401 232.626 62.401Z" fill="white"/>
<path d="M232.621 58.7278C229.767 58.7278 224.468 58.4539 224.466 57.4103C224.466 57.3108 224.547 57.23 224.646 57.2298C224.746 57.2298 224.827 57.3104 224.827 57.41C224.91 57.7558 227.605 58.3672 232.677 58.3673C237.751 58.3608 240.443 57.7357 240.525 57.3876C240.525 57.2879 240.605 57.2082 240.705 57.208C240.705 57.208 240.705 57.208 240.705 57.208C240.805 57.208 240.885 57.2895 240.886 57.3891C240.887 58.4397 235.517 58.7242 232.678 58.7278C232.659 58.7278 232.64 58.7278 232.621 58.7278Z" fill="white"/>
<path d="M229.77 49.7778C229.7 49.7778 229.634 49.7367 229.604 49.6681L222.771 33.6556C222.732 33.564 222.774 33.4579 222.866 33.4188C222.957 33.3798 223.063 33.422 223.103 33.5138L229.936 49.5264C229.975 49.618 229.933 49.724 229.841 49.7632C229.818 49.7733 229.794 49.7778 229.77 49.7778Z" fill="#333333"/>
<path d="M235.561 49.7699C235.537 49.7699 235.513 49.7652 235.49 49.7555C235.399 49.7165 235.356 49.6107 235.395 49.5191L242.187 33.4888C242.226 33.3969 242.332 33.3547 242.423 33.3931C242.515 33.432 242.557 33.5379 242.519 33.6295L235.727 49.6596C235.698 49.7286 235.631 49.7699 235.561 49.7699Z" fill="#333333"/>
<path d="M228.749 35.6975C227.903 35.6975 227.059 35.493 226.321 35.073C226.235 35.0238 226.204 34.9136 226.254 34.8271C226.303 34.7403 226.413 34.7102 226.5 34.7594C228.05 35.6425 230.112 35.4986 231.544 34.4451C230.25 33.7498 229.206 32.5806 228.764 31.17C228.446 30.1575 228.473 29.1678 228.84 28.3832C229.283 27.4331 230.245 26.8339 231.181 26.9264C232.267 27.0337 233.031 27.9872 233.385 28.8438C234.147 30.6943 233.648 32.9852 232.203 34.3627C232.988 34.6913 233.845 34.8384 234.699 34.7517C237.109 34.5075 239.19 32.4275 239.437 30.0159C239.448 29.9169 239.538 29.8448 239.635 29.8549C239.734 29.865 239.806 29.9535 239.796 30.0527C239.532 32.6282 237.309 34.8498 234.735 35.1106C233.764 35.2086 232.787 35.024 231.904 34.6231C231.018 35.3311 229.882 35.6975 228.749 35.6975ZM230.995 27.2782C230.267 27.2782 229.516 27.7867 229.166 28.536C228.838 29.2387 228.817 30.136 229.108 31.0622C229.537 32.432 230.573 33.5588 231.848 34.1995C233.271 32.9345 233.777 30.7428 233.051 28.9814C232.738 28.2215 232.073 27.377 231.145 27.2854C231.095 27.2807 231.045 27.2782 230.995 27.2782Z" fill="white"/>
<path d="M19.3513 307.121L3.60547 306.884L8.29706 286.59L24.343 289.263L19.3513 307.121Z" fill="#FEBBBA"/>
<path d="M41.3508 317.57H0.576172L4.33059 301.988H20.3046L31.8558 305.511C37.5171 307.043 41.4029 311.979 41.3508 317.57Z" fill="#333333"/>
<path d="M22.82 306.113C22.7739 306.113 22.7277 306.095 22.6925 306.06C22.622 305.989 22.622 305.875 22.6925 305.805L25.2449 303.253C25.3154 303.183 25.4294 303.183 25.4999 303.253C25.5704 303.324 25.5704 303.438 25.4999 303.508L22.9475 306.06C22.9123 306.095 22.8662 306.113 22.82 306.113Z" fill="#363E44"/>
<path d="M25.7219 306.983C25.6757 306.983 25.6295 306.965 25.5944 306.93C25.5239 306.859 25.5239 306.745 25.5944 306.675L28.1469 304.123C28.2174 304.053 28.3314 304.053 28.4019 304.123C28.4724 304.194 28.4724 304.308 28.4019 304.378L25.8494 306.93C25.814 306.965 25.768 306.983 25.7219 306.983Z" fill="#363E44"/>
<path d="M92.8458 310.157L77.1001 309.921L77.5864 286.59L93.6324 289.263L92.8458 310.157Z" fill="#FEBBBA"/>
<path d="M114.53 317.57H73.7559L77.2672 301.988H93.4843L105.036 305.511C110.697 307.043 114.583 311.979 114.53 317.57Z" fill="#333333"/>
<path d="M96.0105 306.37C95.9643 306.37 95.9181 306.353 95.883 306.318C95.8125 306.247 95.8125 306.133 95.883 306.063L98.4355 303.511C98.506 303.44 98.62 303.44 98.6905 303.511C98.761 303.581 98.761 303.696 98.6905 303.766L96.1379 306.318C96.1028 306.353 96.0566 306.37 96.0105 306.37Z" fill="#363E44"/>
<path d="M98.9123 307.24C98.8661 307.24 98.82 307.223 98.7848 307.188C98.7143 307.117 98.7143 307.003 98.7848 306.933L101.337 304.381C101.408 304.31 101.522 304.31 101.592 304.381C101.663 304.452 101.663 304.566 101.592 304.636L99.0398 307.188C99.0046 307.223 98.9585 307.24 98.9123 307.24Z" fill="#363E44"/>
<path d="M40.146 153.166C40.146 153.166 30.4211 174.796 23.8568 201.043C17.2925 227.291 5.62256 293.152 5.62256 293.152H23.6135C23.6135 293.152 59.1092 252.566 62.2698 196.911L73.2104 152.923L40.146 153.166Z" fill="#333333"/>
<path d="M54.7334 205.175C54.7334 205.175 73.2107 231.908 74.6694 291.694H95.3348C95.3348 291.694 110.408 258.156 101.899 222.916C93.3897 187.677 79.5319 149.764 79.5319 149.764H57.4077L54.7334 205.175Z" fill="#333333"/>
<path d="M60.6571 211.872C60.645 211.872 60.6325 211.871 60.6203 211.868C60.5229 211.848 60.4601 211.753 60.4803 211.655L64.1801 193.791C64.1897 193.745 64.2167 193.704 64.2557 193.678L69.6388 190.036C69.7218 189.98 69.8336 190.002 69.8893 190.084C69.9452 190.167 69.9236 190.279 69.841 190.335L64.5182 193.936L60.8334 211.728C60.8159 211.813 60.7407 211.872 60.6571 211.872Z" fill="#F2E6DC"/>
<path d="M78.487 104.967C73.5256 103.907 65.5281 102.514 58.2612 103.297C49.7912 104.21 36.9845 108.346 31.462 111.641C19.1158 119.006 14.2163 125.38 14.2163 125.38L32.9383 129.589L24.156 155.121C21.1086 163.981 22.4232 174.073 27.5609 181.908L40.7972 181.722L38.7478 167.558L45.1297 180.348L81.8503 155.665L83.226 132.947L106.949 126.35C106.949 126.35 87.191 106.828 78.487 104.967Z" fill="#E14C62"/>
<path d="M82.5117 140.886C82.5117 140.886 93.0012 148.611 101.015 146.113C109.028 143.615 110.596 137.867 110.104 134.386C109.613 130.905 96.5702 108.476 76.5244 104.324C76.5244 104.324 74.6343 129.836 82.5117 140.886Z" fill="#E14C62"/>
<path d="M82.7267 140.926C82.7257 140.926 82.7248 140.926 82.7237 140.926C82.6239 140.925 82.5448 140.842 82.5464 140.743L82.6012 137.497C82.6032 137.397 82.6943 137.318 82.7846 137.319C82.8843 137.321 82.9635 137.403 82.9619 137.503L82.9071 140.749C82.9053 140.847 82.825 140.926 82.7267 140.926Z" fill="#363E44"/>
<path d="M33.2449 185.211L44.9125 172.604L40.8767 157.297L28.5201 157.411L16.8525 170.018L23.0821 183.061L33.2449 185.211Z" fill="white"/>
<path d="M128.051 82.7732L44.9124 172.604L28.52 157.411L111.658 67.5801L122.646 72.1602L128.051 82.7732Z" fill="#FF7701"/>
<path d="M7.27775 180.363C-0.453627 188.717 -1.53181 197.801 2.99496 201.996C7.52155 206.192 15.9387 203.91 23.6701 195.556L33.4875 184.948L17.0952 169.755L7.27775 180.363Z" fill="#363E44"/>
<path d="M111.658 67.5803L128.051 82.7734L133.048 70.4139L131.398 64.1951L123.59 61.6475L111.658 67.5803Z" fill="#F2E6DC"/>
<path d="M123.59 61.6473L133.048 70.4137L139.866 53.5547L123.59 61.6473Z" fill="#40484C"/>
<path d="M66.1277 136.26C64.296 136.815 56.3143 137.905 55.0628 141.441C53.8025 145.003 55.2377 148.91 57.6011 151.842C57.6163 151.844 57.6332 151.846 57.6482 151.848C58.5844 152.309 60.0566 152.855 61.7766 152.652C63.7373 152.421 64.142 151.438 66.1744 150.873C69.6052 149.918 71.8611 151.868 72.4392 150.748C72.8361 149.979 71.5711 148.785 70.1321 147.998C68.6549 147.189 67.3556 147.289 67.3561 147.013C67.3569 146.71 68.6889 146.779 70.3541 146.713C71.1277 146.683 73.2976 147.905 73.9944 146.933C74.55 146.158 72.6154 144.323 70.3319 143.853C68.7165 143.521 67.3102 144.295 67.2211 144.008C67.1542 143.792 68.0035 143.352 68.8478 143.189C70.2408 142.921 72.4742 144.147 73.0983 143.24C73.7096 142.352 71.9918 140.779 69.9195 140.214C68.1723 139.738 66.6451 140.675 66.5322 140.319C66.4529 140.069 67.0499 139.507 68.5917 138.754C69.8787 138.125 72.7838 137.729 72.3323 136.289C71.9527 135.078 68.8925 135.423 66.1277 136.26Z" fill="#FEBBBA"/>
<path d="M26.923 144.334C22.8941 145.607 20.0915 149.348 20.1849 153.552C20.246 156.309 21.5611 159.169 25.8479 160.938C36.2853 165.245 59.938 150.558 59.938 150.558L62.8512 137.033C49.2362 139.291 38.0125 140.831 26.923 144.334Z" fill="#FEBBBA"/>
<path d="M40.7541 140.836L42.7088 161.024L24.8046 163.792C13.3066 165.569 0.332867 154.098 3.02462 142.783C5.38006 132.882 11.2016 127.339 22.8966 117.406L38.1797 121.948L31.6158 141.199L40.7541 140.836Z" fill="#E14C62"/>
<path d="M31.6159 141.38C31.5966 141.38 31.5769 141.377 31.5578 141.37C31.4635 141.338 31.413 141.236 31.4453 141.141L34.4112 132.443C34.4433 132.348 34.5464 132.298 34.64 132.33C34.7343 132.362 34.7848 132.465 34.7525 132.559L31.7867 141.258C31.7611 141.333 31.6909 141.38 31.6159 141.38Z" fill="#363E44"/>
<path d="M22.2383 164.171C21.1531 164.171 20.0763 164.065 19.0165 163.853C18.9188 163.833 18.8555 163.738 18.8752 163.64C18.8946 163.543 18.9895 163.479 19.0874 163.499C20.9471 163.871 22.8613 163.91 24.7771 163.614L42.5131 160.872L42.0612 156.205C42.0514 156.106 42.1241 156.018 42.2231 156.009C42.3236 155.999 42.4103 156.072 42.42 156.171L42.8885 161.007C42.8979 161.102 42.8312 161.188 42.7365 161.202L24.8321 163.97C23.9658 164.104 23.0993 164.171 22.2383 164.171Z" fill="#363E44"/>
<path d="M28.9076 141.488C28.8114 141.488 28.7315 141.412 28.7277 141.315C28.7237 141.215 28.8011 141.131 28.9006 141.127L40.7469 140.656C40.8486 140.653 40.9305 140.73 40.9343 140.829C40.9384 140.929 40.8609 141.013 40.7613 141.017L28.915 141.487C28.9125 141.487 28.91 141.488 28.9076 141.488Z" fill="#363E44"/>
<path d="M82.4199 126.078L95.1318 140.155C98.5724 143.964 104.476 144.196 108.204 140.667C112.251 136.836 111.957 130.309 107.583 126.857L92.9062 115.274L82.4199 126.078Z" fill="#FEBBBA"/>
<path d="M90.718 122.451C92.8127 122.789 93.4516 123.861 93.2634 125.027C93.0751 126.193 92.1309 127.01 90.0362 126.672C87.9415 126.334 85.4894 124.968 85.6777 123.803C85.866 122.637 88.6233 122.113 90.718 122.451Z" fill="#FEBBBA"/>
<path d="M90.9102 118.346C93.338 118.738 94.0786 119.981 93.8604 121.332C93.6422 122.683 92.5479 123.63 90.12 123.238C87.6922 122.846 84.8503 121.264 85.0685 119.913C85.2867 118.562 88.4823 117.954 90.9102 118.346Z" fill="#FEBBBA"/>
<path d="M91.8102 115.69C93.9048 116.029 94.849 115.211 95.0373 114.046C95.2256 112.88 94.5867 111.807 92.492 111.469C90.3973 111.131 87.6401 111.656 87.4516 112.821C87.2632 113.987 89.7153 115.352 91.8102 115.69Z" fill="#FEBBBA"/>
<path d="M90.7001 119.647C93.1278 120.039 94.2222 119.092 94.4404 117.741C94.6586 116.39 93.918 115.147 91.4903 114.755C89.0625 114.363 85.8667 114.971 85.6485 116.322C85.4304 117.673 88.2723 119.255 90.7001 119.647Z" fill="#FEBBBA"/>
<path d="M45.7193 112.739L44.7814 112.724C41.9974 112.679 39.7764 110.387 39.821 107.603L40.1041 89.8965C40.1486 87.1124 42.4415 84.8917 45.2256 84.9362L46.1635 84.9512C48.9476 84.9957 51.1685 87.2886 51.1239 90.0727L50.8408 107.779C50.7963 110.563 48.5032 112.784 45.7193 112.739Z" fill="#FEBBBA"/>
<path d="M58.6626 95.8673C57.9621 99.2933 48.0341 99.7762 48.0341 99.7762L38.3691 96.8814C35.0087 93.2873 35.1991 87.6508 38.7945 84.2915C42.3899 80.9323 48.0287 81.1228 51.3891 84.7169C51.3891 84.7169 59.3762 92.3777 58.6626 95.8673Z" fill="#FEBBBA"/>
<path d="M52.2412 87.1273C52.2412 87.1273 55.8552 87.3336 56.2301 87.9292C56.6776 88.6402 54.9872 90.9082 54.9872 90.9082C54.9872 90.9082 52.294 87.0865 52.2412 87.1273Z" fill="#FEBBBA"/>
<path d="M45.3345 90.7033C45.3345 90.7033 46.0693 89.4186 47.4028 88.5867C47.6865 88.4098 48.5679 91.0131 48.2185 91.0526C46.6817 91.2262 45.3345 90.7033 45.3345 90.7033Z" fill="white"/>
<mask id="mask0_167_765" style="mask-type:luminance" maskUnits="userSpaceOnUse" x="45" y="87" width="8" height="5">
<path d="M45.3345 90.7036C45.3345 90.7036 46.4154 88.8141 48.3339 88.1346C50.2524 87.4552 52.2823 88.243 52.2823 88.243C52.2823 88.243 51.2014 90.1325 49.2829 90.812C47.3642 91.4914 45.3345 90.7036 45.3345 90.7036Z" fill="white"/>
</mask>
<g mask="url(#mask0_167_765)">
<path d="M47.4227 88.494C47.7543 87.0624 49.1842 86.1703 50.6163 86.5018C52.0485 86.8332 52.9408 88.2625 52.6091 89.6943C52.2775 91.1259 50.8477 92.0178 49.4155 91.6865C47.9834 91.3551 47.0911 89.9256 47.4227 88.494Z" fill="#363E44"/>
</g>
<path d="M30.8081 90.5893C30.8081 90.5893 34.1335 100.367 41.2289 98.8215L41.6141 96.6397L45.7227 95.4219L41.4882 92.7778C40.0093 91.6278 39.9523 89.413 41.3699 88.1888L47.5586 82.8441L44.5058 79.7051C38.2187 80.8518 33.4079 84.1269 30.8081 90.5893Z" fill="#363E44"/>
<path d="M36.7551 83.6171C36.2164 84.3849 35.1572 84.571 34.389 84.0327C33.6208 83.4945 33.0327 82.1537 33.5712 81.3859C34.1098 80.6181 35.5712 80.7138 36.3392 81.2521C37.1074 81.7904 37.2935 82.8493 36.7551 83.6171Z" fill="#363E44"/>
<path d="M38.0245 83.1273C37.1806 83.5369 36.1642 83.1849 35.7545 82.3413C35.3448 81.4977 35.4824 80.0401 36.3265 79.6306C37.1705 79.2211 38.4012 80.0145 38.8109 80.8583C39.2204 81.7019 38.8684 82.7178 38.0245 83.1273Z" fill="#363E44"/>
<path d="M40.7614 82.1017C39.5382 82.4488 38.2651 81.739 37.9178 80.5164C37.5705 79.2938 38.0986 77.381 39.3218 77.0339C40.545 76.6868 41.9999 78.0364 42.3472 79.2592C42.6945 80.482 41.9845 81.7545 40.7614 82.1017Z" fill="#363E44"/>
<path d="M34.8743 85.5483C34.3607 86.3331 33.308 86.5533 32.5228 86.0401C31.7377 85.5269 31.1065 84.2058 31.6201 83.4208C32.1337 82.636 33.5972 82.6845 34.3826 83.1977C35.1675 83.7111 35.3879 84.7635 34.8743 85.5483Z" fill="#363E44"/>
<path d="M42.6251 81.013C41.592 80.551 41.1291 79.3394 41.5913 78.3066C42.0534 77.2739 43.5074 76.2707 44.5405 76.7329C45.5736 77.1949 45.7945 78.9472 45.3323 79.9799C44.8703 81.0123 43.6582 81.475 42.6251 81.013Z" fill="#363E44"/>
<path d="M33.6923 87.4343C33.2432 88.5131 32.0044 89.0238 30.9251 88.5747C29.8461 88.1259 28.7704 86.6524 29.2194 85.5737C29.6684 84.495 31.4721 84.2193 32.5513 84.6683C33.6306 85.1173 34.1413 86.3556 33.6923 87.4343Z" fill="#363E44"/>
<path d="M32.3255 89.0688C32.3845 89.979 31.6943 90.7647 30.7839 90.8236C29.8734 90.8826 28.6111 90.2237 28.552 89.3136C28.493 88.4034 29.6595 87.5869 30.57 87.528C31.4805 87.4688 32.2664 88.1587 32.3255 89.0688Z" fill="#363E44"/>
<path d="M44.709 82.5727C43.69 81.6429 43.618 80.0633 44.5481 79.0448C45.4783 78.0263 47.5454 77.4211 48.5642 78.351C49.5832 79.2808 49.1683 81.3935 48.2382 82.4122C47.3081 83.4307 45.728 83.5027 44.709 82.5727Z" fill="#363E44"/>
<path d="M37.1306 98.0874C37.712 99.6815 39.4761 100.503 41.0709 99.9215C42.6658 99.3403 43.4873 97.5769 42.9058 95.9828C42.3244 94.3887 40.5603 93.5675 38.9656 94.1485C37.3706 94.7299 36.5492 96.4933 37.1306 98.0874Z" fill="#FEBBBA"/>
<path d="M55.8062 89.6318L60.1783 95.7017C60.787 96.5467 60.5672 97.7266 59.6968 98.2986C59.4779 98.4425 59.2393 98.5956 58.9832 98.755C54.5535 101.513 49.0113 101.79 44.3314 99.4812C42.7636 98.7077 41.8364 97.0469 42.0007 95.3071L42.0548 94.7337L43.6705 94.3434C43.6705 94.3434 47.2073 96.6001 48.5359 95.8003C49.8646 95.0006 51.1267 92.199 55.8062 89.6318Z" fill="#363E44"/>
<path d="M53.5844 94.0563C53.1339 94.0563 52.6968 93.8406 52.4247 93.4702C52.3657 93.39 52.3829 93.2771 52.4633 93.2181C52.5434 93.1588 52.6562 93.1763 52.7152 93.2565C52.9559 93.584 53.368 93.7501 53.7658 93.6796C54.1782 93.6062 54.5116 93.2944 54.6151 92.8852C54.6397 92.7887 54.7376 92.73 54.8342 92.7547C54.9309 92.779 54.9891 92.8771 54.965 92.9738C54.8265 93.52 54.3807 93.9364 53.8289 94.0346C53.7476 94.0492 53.6657 94.0563 53.5844 94.0563Z" fill="#FEBBBA"/>
<path d="M35.3989 90.303C35.3044 90.303 35.2249 90.2295 35.2191 90.1339C35.213 90.0345 35.2887 89.9489 35.3879 89.9427L39.8883 89.6663C39.9926 89.6609 40.0732 89.7357 40.0795 89.8353C40.0856 89.9346 40.0099 90.0203 39.9107 90.0264L35.4102 90.3029C35.4063 90.303 35.4025 90.303 35.3989 90.303Z" fill="#FEBBBA"/>
<path d="M314.368 108.372H146.592V201.794H314.368V108.372Z" fill="white"/>
<path d="M318.445 205.955H150.67C150.57 205.955 150.49 205.874 150.49 205.774V112.352C150.49 112.253 150.57 112.172 150.67 112.172H318.445C318.545 112.172 318.626 112.253 318.626 112.352V205.774C318.626 205.874 318.545 205.955 318.445 205.955ZM150.85 205.594H318.265V112.533H150.85V205.594Z" fill="#333333"/>
<path d="M249.361 125.373H160.48V189.229H249.361V125.373Z" fill="#F2F2F2"/>
<path d="M245.437 179.245H165.035V183.41H245.437V179.245Z" fill="#333333"/>
<path d="M293.835 146.989H262.846C258.342 146.989 254.677 143.324 254.677 138.819C254.677 134.3 258.342 130.635 262.846 130.635H293.835C298.34 130.635 302.005 134.299 302.005 138.804C302.004 143.324 298.34 146.989 293.835 146.989ZM262.846 130.995C258.541 130.995 255.038 134.498 255.038 138.804C255.038 143.125 258.541 146.628 262.846 146.628H293.835C298.141 146.628 301.644 143.125 301.644 138.819C301.644 134.498 298.141 130.995 293.835 130.995H262.846Z" fill="#E14C62"/>
<path d="M293.835 173.331H262.846C258.434 173.331 254.857 169.754 254.857 165.342V165.327C254.857 160.915 258.434 157.338 262.846 157.338H293.835C298.247 157.338 301.824 160.915 301.824 165.327V165.342C301.824 169.754 298.247 173.331 293.835 173.331Z" fill="#E14C62"/>
<path d="M288.425 189.084C288.406 189.084 288.387 189.081 288.369 189.075C288.298 189.052 288.249 188.988 288.245 188.914L286.753 163.715C286.748 163.642 286.789 163.574 286.855 163.542C286.921 163.51 287 163.522 287.054 163.572L305.661 180.616C305.715 180.666 305.734 180.744 305.707 180.814C305.681 180.883 305.614 180.929 305.54 180.929L295.167 181.011L288.564 189.018C288.529 189.06 288.478 189.084 288.425 189.084ZM287.139 164.138L288.578 188.434L294.942 180.716C294.976 180.675 295.027 180.651 295.08 180.651L305.079 180.572L287.139 164.138Z" fill="#776E42"/>
<path opacity="0.5" d="M78.7036 1.72461H155.548V22.7869H148.305V38.2354L132.851 22.7869H78.7036V1.72461Z" fill="white"/>
<path d="M145.927 40.7923C145.88 40.7923 145.834 40.774 145.8 40.7395L130.398 25.3438H76.3258C76.2261 25.3438 76.1455 25.2631 76.1455 25.1635V4.10123C76.1455 4.00169 76.2261 3.9209 76.3258 3.9209H153.17C153.27 3.9209 153.35 4.00169 153.35 4.10123V25.1635C153.35 25.2631 153.27 25.3438 153.17 25.3438H146.107V40.612C146.107 40.6849 146.064 40.7507 145.996 40.7786C145.974 40.788 145.95 40.7923 145.927 40.7923ZM76.5062 24.9832H130.473C130.521 24.9832 130.567 25.0021 130.601 25.036L145.747 40.1767V25.1635C145.747 25.064 145.827 24.9832 145.927 24.9832H152.99V4.28155H76.5062V24.9832Z" fill="#333333"/>
<path d="M144.207 12.0169L140.785 12.4499L143.21 14.9018L142.565 18.2892L145.647 16.7411L148.67 18.4016L148.15 14.9927L150.664 12.6316L147.26 12.073L145.79 8.95312L144.207 12.0169Z" fill="#FF7701"/>
<path d="M129.941 12.0169L126.518 12.4499L128.944 14.9018L128.298 18.2892L131.38 16.7411L134.404 18.4016L133.883 14.9927L136.397 12.6316L132.993 12.073L131.524 8.95312L129.941 12.0169Z" fill="#FF7701"/>
<path d="M115.674 12.0169L112.252 12.4499L114.678 14.9018L114.032 18.2892L117.114 16.7411L120.138 18.4016L119.617 14.9927L122.131 12.6316L118.727 12.073L117.258 8.95312L115.674 12.0169Z" fill="#FF7701"/>
<path d="M101.408 12.0169L97.9858 12.4499L100.411 14.9018L99.7657 18.2892L102.848 16.7411L105.871 18.4016L105.351 14.9927L107.865 12.6316L104.461 12.073L102.992 8.95312L101.408 12.0169Z" fill="#FF7701"/>
<path d="M87.1417 12.0169L83.7192 12.4499L86.1448 14.9018L85.4991 18.2892L88.5816 16.7411L91.6048 18.4016L91.0844 14.9927L93.5985 12.6316L90.1945 12.073L88.725 8.95312L87.1417 12.0169Z" fill="#FF7701"/>
</svg>
