<svg width="365" height="330" viewBox="0 0 365 330" fill="none" xmlns="http://www.w3.org/2000/svg">
<path d="M320.758 280.859C311.352 289.76 309.38 291.043 302.937 294.993C240.098 333.518 149.174 324.206 126.965 320.411C91.1346 314.288 73.5381 312.126 47.5513 290.569C-11.4986 241.585 -8.62646 139.4 36.4948 76.1013C41.8448 68.5958 86.1104 10.3605 158.097 1.72022C159.858 1.50885 243.255 -8.60263 299.525 34.6831C307.58 40.8792 320.542 52.0555 332.563 69.1011C376.515 131.427 376.654 227.957 320.758 280.859Z" fill="#F2F2F2"/>
<path d="M154.886 248.929L147.704 313.341H231.03L220.176 248.929H154.886Z" fill="#333333"/>
<path d="M0 91.7052V252.457C0 265.681 10.5379 276.495 23.7575 276.836C82.4718 278.35 287.826 282.021 343.718 281.197C353.324 281.055 361.106 273.368 361.384 263.765C362.461 226.42 364.212 136.618 357.734 94.9267C356.37 86.1469 348.959 79.5816 340.079 79.2976C290.883 77.7238 73.1945 72.7265 17.3285 73.9812C7.69362 74.1974 0 82.0677 0 91.7052Z" fill="#333333"/>
<path d="M10.0869 90.9226V243.648C10.0869 251.368 16.2848 257.66 24.0047 257.775L335.677 261.626C343.331 261.74 349.605 255.582 349.634 247.928L350.155 96.5672C350.175 91.0939 345.815 86.6092 340.343 86.4762L21.2482 80.0297C15.1284 79.8808 10.0869 84.8012 10.0869 90.9226Z" fill="#FDF53F"/>
<path d="M351.98 267.859C351.978 267.859 351.975 267.859 351.973 267.859L10.08 262.034C9.8554 262.03 9.67641 261.845 9.68024 261.621C9.68394 261.396 9.85999 261.231 10.0939 261.221L351.987 267.046C352.211 267.05 352.391 267.235 352.387 267.459C352.383 267.682 352.202 267.859 351.98 267.859Z" fill="#F7E4D4"/>
<path d="M10.0869 90.9226V243.648C10.0869 251.368 16.2848 257.66 24.0047 257.775L335.677 261.626C343.331 261.74 349.605 255.582 349.634 247.928L350.155 96.5672C350.175 91.0939 345.815 86.6092 340.343 86.4762L21.2482 80.0297C15.1284 79.8808 10.0869 84.8012 10.0869 90.9226Z" fill="#AAAAAA"/>
<path d="M184.406 274.974C182.22 274.974 180.442 273.196 180.442 271.01C180.442 268.824 182.22 267.046 184.406 267.046C186.592 267.046 188.37 268.824 188.37 271.01C188.37 273.196 186.592 274.974 184.406 274.974ZM184.406 267.859C182.669 267.859 181.255 269.273 181.255 271.01C181.255 272.748 182.669 274.161 184.406 274.161C186.143 274.161 187.556 272.748 187.556 271.01C187.556 269.273 186.143 267.859 184.406 267.859Z" fill="#F7E4D4"/>
<path d="M248.978 326.521H127.026C123.713 326.521 121.225 324.162 121.865 321.629L123.43 315.44C123.901 313.579 125.948 312.213 128.38 312.137L245.947 308.468C248.487 308.389 250.737 309.738 251.291 311.672L254.112 321.529C254.845 324.09 252.345 326.521 248.978 326.521Z" fill="#333333"/>
<path d="M192.675 313.823C192.453 313.823 192.271 313.644 192.268 313.422C192.265 313.197 192.444 313.012 192.669 313.009L197.707 312.936C197.925 312.929 198.116 313.112 198.119 313.336C198.123 313.561 197.943 313.746 197.719 313.749L192.681 313.823H192.675Z" fill="#F7E4D4"/>
<path d="M126.38 323.118C126.359 323.118 126.337 323.116 126.315 323.112C126.093 323.077 125.942 322.869 125.978 322.647L126.697 318.146C127.083 315.722 129.145 313.937 131.599 313.901L185.033 313.12C185.263 313.136 185.443 313.296 185.446 313.521C185.449 313.746 185.27 313.93 185.045 313.933L131.611 314.715C129.553 314.745 127.824 316.242 127.5 318.274L126.781 322.775C126.749 322.975 126.576 323.118 126.38 323.118Z" fill="#F7E4D4"/>
<path opacity="0.5" d="M312.539 257.797L43.4425 254.696C35.6162 254.605 29.3179 248.047 29.3179 239.988V140.601C29.3179 132.386 35.8534 125.763 43.831 125.895L312.927 130.33C320.726 130.459 326.983 137.005 326.983 145.037V243.089C326.983 251.277 320.49 257.888 312.539 257.797Z" fill="white"/>
<path opacity="0.78" d="M320.355 123.287L36.2121 120.553C32.6331 120.519 29.7563 118.384 29.7563 115.763V105.989C29.7563 103.315 32.7476 101.158 36.3999 101.2L320.543 104.438C324.116 104.479 326.983 106.611 326.983 109.227V118.497C326.983 121.167 324.002 123.322 320.355 123.287Z" fill="white"/>
<path opacity="0.78" d="M217.116 244.356L55.6247 242.104C48.9434 242.011 43.5681 236.583 43.5399 229.901L43.2037 150.046C43.1751 143.257 48.6706 137.738 55.4594 137.738H217.287C224.055 137.738 229.542 143.225 229.542 149.994V232.101C229.542 238.937 223.951 244.451 217.116 244.356Z" fill="white"/>
<path opacity="0.78" d="M312.29 188.491H245.911C242.2 188.491 239.191 185.482 239.191 181.771V144.607C239.191 140.837 242.29 137.806 246.058 137.888L312.438 139.347C316.09 139.428 319.01 142.412 319.01 146.065V181.771C319.01 185.482 316.001 188.491 312.29 188.491Z" fill="white"/>
<path opacity="0.78" d="M312.575 243.6H245.625C242.072 243.6 239.191 240.719 239.191 237.166V199.281C239.191 195.727 242.072 192.847 245.625 192.847H312.575C316.129 192.847 319.01 195.727 319.01 199.281V237.166C319.01 240.719 316.129 243.6 312.575 243.6Z" fill="white"/>
<path d="M19.8549 319.551C19.8549 319.551 18.3071 321.991 17.9179 328.821C17.8816 329.458 18.3858 330 19.0232 330H31.1284C31.6154 330 31.963 329.522 31.807 329.061C31.0977 326.961 28.9529 321.843 24.1673 318.918L19.8549 319.551Z" fill="#333333"/>
<path d="M19.3286 314.923L20.0133 320.663C20.0724 321.159 20.4605 321.555 20.9561 321.612C21.6182 321.689 22.5806 321.742 23.5157 321.588C24.3659 321.448 24.9776 320.691 24.9776 319.829V314.286L19.3286 314.923Z" fill="#FEBBBA"/>
<path d="M49.8053 318.918C49.8053 318.918 47.4884 322.519 47.5379 327.463C47.5495 328.627 48.5244 329.554 49.6888 329.554H68.4894C69.3696 329.554 69.7271 328.423 69.0067 327.917C65.4491 325.419 58.4566 320.752 53.3992 318.918H49.8053Z" fill="#333333"/>
<path d="M47.8691 312.718L49.3295 319.808C49.4929 320.601 50.2686 321.134 51.0589 320.958C51.5393 320.851 52.1062 320.645 52.7117 320.267C53.2872 319.907 53.5789 319.222 53.4613 318.554L51.9508 309.964L47.8691 312.718Z" fill="#FEBBBA"/>
<path d="M22.0112 214.139C22.0112 214.139 16.9334 218.615 15.9779 224.001C15.0222 229.387 18.6854 316.928 18.6854 316.928C18.6854 316.928 23.7629 317.773 26.3804 316.187C26.3804 316.187 29.4849 259.373 31.8445 246.245C31.8445 246.245 44.2197 305.096 47.6486 315.73C47.6486 315.73 52.5403 316.325 54.1179 315.394C54.1179 315.394 50.8762 239.107 46.8029 225.544L22.0112 214.139Z" fill="#333333"/>
<path d="M31.6963 244.399C31.4514 244.399 31.2278 244.235 31.1635 243.987L29.0612 235.922L24.5828 233.049C24.3267 232.884 24.252 232.543 24.4164 232.287C24.5808 232.031 24.921 231.956 25.1781 232.121L29.8379 235.11C29.9545 235.185 30.039 235.301 30.0736 235.435L32.2302 243.709C32.3073 244.004 32.1306 244.305 31.8359 244.381C31.7891 244.393 31.7426 244.399 31.6963 244.399Z" fill="#333333"/>
<path d="M72.1202 163.556C50.7444 161.781 45.1577 166.205 45.1577 166.205L55.4301 182.422C55.4301 182.422 76.4338 182.007 91.4838 170.407C88.6671 167.374 86.711 164.021 85.4564 161.411C81.5755 163.024 77.1063 163.97 72.1202 163.556Z" fill="#E14C62"/>
<path d="M105.595 132.179C105.566 131.494 104.637 131.308 104.346 131.929L101.619 137.749C101.092 138.874 100.923 140.133 101.135 141.357L102.092 144.744C102.378 146.396 101.946 148.089 100.899 149.398C98.3928 152.532 93.0552 158.254 85.4565 161.411C86.7111 164.021 88.6673 167.374 91.484 170.407C97.0061 166.151 101.728 160.391 104.315 152.59C105.554 152.21 106.383 151.043 106.333 149.747L105.595 132.179Z" fill="#FEBBBA"/>
<path d="M79.1566 172.958C71.6315 164.85 57.298 161.186 48.9992 159.682C45.3635 159.022 41.7796 161.045 40.4915 164.508C36.757 174.548 26.5999 200.666 24.6312 205.154C23.0161 208.837 21.3296 212.434 20.258 214.683C19.6177 216.026 20.1772 217.634 21.5178 218.28C28.4998 221.645 41.0633 225.453 46.1566 226.938C47.277 227.265 48.3926 226.423 48.3926 225.257C48.3926 224.267 48.6616 223.296 49.1708 222.447L68.4607 190.302C80.4838 203.633 91.0129 204.852 99.1014 201.934C97.7413 197.731 96.8514 193.52 96.4246 189.301C84.4754 187.254 79.1566 172.958 79.1566 172.958Z" fill="#E14C62"/>
<path d="M116.175 187.064L114.018 184.188C107.037 188.983 101.201 190.12 96.4243 189.301C96.8511 193.52 97.7411 197.731 99.1011 201.934C109.757 198.09 116.175 187.064 116.175 187.064Z" fill="#FEBBBA"/>
<path d="M114.655 187.116L126.803 187.59L137.989 181.342C136.384 180.336 127.304 182.393 127.304 182.393C127.304 182.393 117.812 180.958 115.243 180.954C113.11 180.951 113.415 184.02 113.579 185.059C113.613 185.272 113.64 185.399 113.64 185.399L114.655 187.116Z" fill="#FEBBBA"/>
<path d="M60.414 144.789L54.0039 160.431C54.0039 160.431 61.369 165.529 67.2946 165.044L70.4937 150.979L60.414 144.789Z" fill="#FEBBBA"/>
<path d="M71.2417 134.126C71.3885 134.334 75.879 150.556 75.879 150.556L66.5619 152.923L60.0215 138.18C60.0215 138.18 68.7838 130.644 71.2417 134.126Z" fill="#FEBBBA"/>
<path d="M63.5298 140.42L66.365 148.451C66.4014 148.554 66.45 148.649 66.513 148.739C66.8978 149.285 68.3593 151.069 70.0932 149.462C71.6663 148.004 73.1237 146.697 74.4697 146.46C75.074 146.353 75.6593 146.722 75.823 147.313C76.2306 148.788 77.0877 152.126 77.3897 155.14C77.451 155.752 77.0287 156.305 76.4248 156.419C74.605 156.765 70.7467 157.387 67.5255 157.159C67.089 157.129 66.705 156.867 66.5229 156.469C65.6353 154.529 62.9154 148.644 61.9038 147.121C60.9543 145.692 58.6267 145.732 57.6506 145.818C57.3306 145.847 57.0159 145.744 56.7743 145.532C55.9203 144.783 54.295 142.872 56.5812 140.584C57.0597 140.106 57.0468 139.333 56.5537 138.869C55.5719 137.946 54.5218 136.309 56.1576 134.279C57.8202 132.215 60.0151 132.543 61.3597 133.034C61.9035 133.232 62.4966 133.002 62.7921 132.505C62.9604 132.221 63.2539 132.007 63.7628 132.051C64.4486 132.11 65.0253 131.538 65.0129 130.849C64.9891 129.527 65.4625 127.856 67.7563 127.143C71.8265 125.876 74.3645 129.808 74.616 132.742C74.8674 135.676 70.3764 136.799 67.7358 136.601C65.728 136.45 64.2372 138.44 63.638 139.403C63.4481 139.708 63.4101 140.081 63.5298 140.42Z" fill="#333333"/>
<path d="M62.9652 150.035C62.9652 150.035 62.3077 144.941 60.1887 144.692C58.0698 144.442 56.0073 146.183 58.1139 149.043C60.7344 152.599 62.9652 150.035 62.9652 150.035Z" fill="#FEBBBA"/>
<path d="M110.86 111.338L234.591 110.558C237.424 110.54 239.725 112.703 239.703 115.364L239.183 179.555C239.161 182.231 236.8 184.366 233.952 184.286L111.56 180.831C108.842 180.754 106.67 178.679 106.635 176.125L105.816 116.168C105.78 113.523 108.043 111.355 110.86 111.338Z" fill="#F7E4D4"/>
<path d="M234.108 180.372L111.687 176.917C111.214 176.904 110.838 176.535 110.831 176.075L110.012 116.119C110.008 115.882 110.099 115.669 110.272 115.502C110.442 115.341 110.653 115.255 110.888 115.254L234.62 114.474C234.859 114.474 235.073 114.557 235.241 114.716C235.418 114.883 235.509 115.097 235.507 115.335L234.987 179.525C234.982 179.992 234.588 180.372 234.108 180.372ZM234.685 115.328L110.893 116.076L111.653 176.063L111.71 176.094L234.119 179.55L234.685 115.328Z" fill="white"/>
<path d="M117.997 124.139C117.997 126.209 119.281 127.887 120.864 127.887H226.103C227.686 127.887 228.97 126.209 228.97 124.139C228.97 122.069 227.686 120.391 226.103 120.391H120.864C119.281 120.391 117.997 122.069 117.997 124.139Z" fill="white"/>
<path d="M118.513 131.845H162.821C164.389 131.845 165.661 133.039 165.661 134.512V168.872C165.661 170.374 164.341 171.58 162.742 171.539L119.341 170.408C117.832 170.369 116.619 169.227 116.581 167.81L115.674 134.581C115.633 133.081 116.916 131.845 118.513 131.845Z" fill="white"/>
<path d="M174.907 132.689H224.366C225.442 132.689 226.314 133.696 226.314 134.938C226.314 136.179 225.442 137.186 224.366 137.186H174.907C173.831 137.186 172.958 136.179 172.958 134.938C172.958 133.696 173.831 132.689 174.907 132.689Z" fill="white"/>
<path d="M172.958 144.564C172.958 145.803 173.829 146.807 174.903 146.807H224.369C225.443 146.807 226.314 145.803 226.314 144.564V143.176C226.314 141.916 225.414 140.903 224.322 140.933L174.856 142.32C173.801 142.35 172.958 143.345 172.958 144.564Z" fill="white"/>
<path d="M273.852 137.774C273.852 137.774 274.661 173.01 311.71 179.189L318.361 172.623C318.361 172.623 286.279 161.716 277.928 138.92L279.712 126.831L278.455 118.831L273.852 137.774Z" fill="#FEBBBA"/>
<path d="M337.183 124.359L190.198 127.957C184.24 128.102 179.148 123.691 178.444 117.772L166.774 19.7174C165.98 13.0433 171.029 7.10268 177.744 6.81032L333.92 0.0111474C340.38 -0.270104 345.813 4.80569 345.971 11.2703L348.45 112.527C348.606 118.905 343.562 124.203 337.183 124.359Z" fill="#E14C62"/>
<path d="M331.226 119.2L195.485 122.523C189.982 122.657 185.283 118.678 184.635 113.335L173.908 24.8207C173.178 18.7961 177.844 13.4305 184.045 13.1631L328.275 6.94588C334.241 6.68863 339.256 11.2682 339.399 17.104L341.637 108.513C341.777 114.271 337.116 119.056 331.226 119.2Z" fill="#F7E4D4"/>
<path d="M167.956 27.4249L346.482 19.4174L346.283 11.5103C346.125 5.04574 340.686 -0.15708 334.226 0.124172L178.047 6.85978C171.332 7.15213 166.293 13.3153 167.087 19.9893L167.956 27.4249Z" fill="#E14C62"/>
<path d="M235.034 95.0397L194.647 96.8513C193.274 96.9129 191.975 93.3767 191.679 88.7678L189.317 52.0737C188.991 47.0178 189.992 42.6776 191.498 42.6101L232.6 40.7664C234.039 40.7018 235.382 44.5775 235.599 49.423L237.246 86.1492C237.464 90.9947 236.473 94.9751 235.034 95.0397Z" fill="white"/>
<path d="M330.974 44.138L243.166 48.0765C241.69 48.1428 240.44 47 240.373 45.5242L240.324 44.4121C240.257 42.9362 241.4 41.6862 242.876 41.62L330.684 37.6814C332.16 37.6153 333.41 38.7579 333.476 40.2338L333.526 41.3459C333.592 42.8217 332.45 44.0717 330.974 44.138Z" fill="white"/>
<path d="M332.463 67.1077L244.655 71.0462C243.179 71.1124 241.929 69.9697 241.863 68.4939L241.813 67.3818C241.747 65.906 242.889 64.656 244.365 64.5897L332.173 60.6512C333.649 60.585 334.899 61.7277 334.966 63.2035L335.015 64.3156C335.082 65.7916 333.939 67.0416 332.463 67.1077Z" fill="white"/>
<path d="M289.493 34.2815L192.11 38.6495C190.634 38.7157 189.384 37.573 189.318 36.0972L189.268 34.9851C189.202 33.5093 190.344 32.2593 191.82 32.193L289.204 27.825C290.68 27.7589 291.93 28.9015 291.996 30.3773L292.046 31.4894C292.112 32.9653 290.969 34.2154 289.493 34.2815Z" fill="white"/>
<path d="M331.48 55.4055L243.671 59.3441C242.196 59.4102 240.946 58.2676 240.879 56.7917L240.829 55.6796C240.763 54.2038 241.906 52.9538 243.382 52.8876L331.19 48.949C332.666 48.8829 333.916 50.0255 333.982 51.5013L334.032 52.6135C334.098 54.0893 332.956 55.3394 331.48 55.4055Z" fill="white"/>
<path d="M333.094 78.9964L245.286 82.9349C243.81 83.0012 242.56 81.8584 242.494 80.3826L242.444 79.2705C242.378 77.7946 243.521 76.5446 244.996 76.4784L332.805 72.5399C334.281 72.4736 335.531 73.6163 335.597 75.0922L335.647 76.2043C335.713 77.6801 334.57 78.9301 333.094 78.9964Z" fill="white"/>
<path d="M334.584 101.966L246.775 105.905C245.3 105.971 244.05 104.828 243.983 103.352L243.933 102.24C243.867 100.764 245.01 99.5144 246.486 99.4481L334.294 95.5096C335.77 95.4434 337.02 96.5861 337.086 98.0619L337.136 99.174C337.202 100.65 336.06 101.9 334.584 101.966Z" fill="white"/>
<path d="M333.6 90.2639L245.792 94.2025C244.316 94.2686 243.066 93.126 243 91.6502L242.95 90.538C242.884 89.0622 244.026 87.8122 245.502 87.746L333.311 83.8074C334.786 83.7413 336.036 84.8839 336.103 86.3598L336.153 87.4719C336.219 88.9477 335.076 90.1977 333.6 90.2639Z" fill="white"/>
<path d="M181.404 20.9233C183.212 20.9233 184.677 19.4576 184.677 17.6496C184.677 15.8416 183.212 14.376 181.404 14.376C179.596 14.376 178.13 15.8416 178.13 17.6496C178.13 19.4576 179.596 20.9233 181.404 20.9233Z" fill="white"/>
<path d="M194.162 19.3879C195.382 18.0534 195.289 15.9827 193.954 14.7629C192.62 13.543 190.549 13.636 189.329 14.9704C188.109 16.3049 188.202 18.3756 189.537 19.5954C190.871 20.8153 192.942 20.7224 194.162 19.3879Z" fill="white"/>
<path d="M203.588 19.9272C205.396 19.9272 206.862 18.4615 206.862 16.6535C206.862 14.8455 205.396 13.3799 203.588 13.3799C201.78 13.3799 200.314 14.8455 200.314 16.6535C200.314 18.4615 201.78 19.9272 203.588 19.9272Z" fill="white"/>
<path d="M309.673 258.502C309.673 258.502 327.25 296.812 336.473 312.68C336.473 312.68 338.304 322.665 336.473 325.805L334.912 326.498L342.197 326.282C342.197 326.282 342.844 312.851 342.339 312.101C341.833 311.351 340.822 311.4 340.822 311.4C340.822 311.4 337.699 286.651 328.652 281.37L319.884 251.172L309.673 258.502Z" fill="#FEBBBA"/>
<path d="M331.8 328.379C331.79 328.555 337.489 328.474 340.585 328.418C341.728 328.397 342.703 327.593 342.947 326.476L345.285 314.192C345.507 313.025 344.766 311.891 343.607 311.626L342.302 311.328C342.302 311.328 340.44 313.882 341.026 316.287C341.613 318.691 342.134 324.92 340.653 325.646C339.172 326.371 334.912 326.498 334.912 326.498C334.912 326.498 331.898 326.797 331.8 328.379Z" fill="#333333"/>
<path d="M293.012 328.601C292.436 328.93 292.674 329.81 293.337 329.803C298.518 329.751 310.128 329.587 311.16 329.158C312.492 328.604 310.675 323.818 308.762 322.198L298.202 325.645L293.012 328.601Z" fill="#333333"/>
<path d="M289.734 256.058C289.734 256.058 301.093 311.008 304.307 321.727L296.705 326.498C296.705 326.498 300.514 325.85 303.339 325.645C306.164 325.44 308.762 322.198 308.762 322.198L307.852 320.746C307.852 320.746 305.003 266.094 305.696 259.889L289.734 256.058Z" fill="#FEBBBA"/>
<path d="M261.537 127.885C261.537 127.885 259.97 156.47 285.995 171.076L279.73 185.367C279.73 185.367 256.168 171.115 257.039 132.246C257.064 131.13 256.661 130.047 255.933 129.202L250.925 123.392C249.017 121.179 248.304 118.176 249.014 115.341L249.673 112.706C249.893 111.824 250.898 111.4 251.684 111.857L252.208 112.161C253.875 113.129 255.196 114.597 255.983 116.357L258.442 121.853C259.36 123.907 261.478 125.153 263.719 124.96L265.239 124.828L261.537 127.885Z" fill="#FEBBBA"/>
<path d="M285.09 168.935C289.444 170.142 304.194 174.023 313.402 173.864L307.749 205.769L308.199 210.973L289.765 210.89C289.765 210.89 284.576 198.839 280.481 192.831C279.299 191.095 280.179 189.025 280.849 187.035L279.928 186.422C278.991 185.799 278.585 184.627 278.935 183.557L283.424 169.822C283.657 169.13 284.386 168.74 285.09 168.935Z" fill="#E14C62"/>
<path d="M288.288 208.167L288.65 211.319C288.65 211.319 283.441 226.92 291.255 263.358C291.255 263.358 308.178 268.152 322.088 256.68C322.088 256.68 318.164 222.288 317.092 220.686C311.754 212.707 308.198 210.973 308.198 210.973L308.038 207.528C308.038 207.528 293.161 210.218 288.288 208.167Z" fill="#333333"/>
<path d="M295.504 171.506C295.439 171.42 299.352 159.691 299.352 159.691L304.957 160.2L307.147 173.506C307.147 173.506 298.362 175.279 295.504 171.506Z" fill="#FEBBBA"/>
<path d="M303.615 141.195C303.242 141.428 291.638 146.223 294.131 158.27C294.278 158.982 294.753 159.585 295.417 159.882C297.12 160.641 300.786 161.942 305.17 161.496C311.249 160.878 315.232 150.271 315.063 147.184C314.894 144.097 307.32 138.889 303.615 141.195Z" fill="#FEBBBA"/>
<path d="M307.147 136.512C306.842 136.552 300.441 138.781 303.615 143.419C306.79 148.057 307.98 150.787 306.479 152.824C305.111 154.68 302.081 153.622 302.346 157.483C302.399 158.255 302.064 159.005 301.423 159.44C298.568 161.372 291.602 167.321 298.504 175.805C299.064 176.494 299.18 177.446 298.747 178.223C296.726 181.848 292.48 192.47 307.852 198.362C323.042 204.183 328.526 194.254 330.059 190.285C330.39 189.427 331.235 188.901 332.154 188.945C333.823 189.024 336.189 188.746 336.08 186.515C336.014 185.161 335.169 183.946 334.17 182.973C333.181 182.01 333.376 180.323 334.577 179.641C335.483 179.125 336.286 178.321 336.624 177.066C337.545 173.655 335.707 163.455 325.931 161.727C325.115 161.583 324.261 160.818 324.142 159.999C324.141 159.986 324.139 159.974 324.137 159.962C324.006 159.17 324.274 158.359 324.922 157.884C326.483 156.739 328.485 154.433 326.859 150.736C325.417 147.457 322.65 146.35 320.596 145.998C319.39 145.791 318.597 144.65 318.851 143.453C319.543 140.191 318.939 134.966 307.147 136.512Z" fill="#333333"/>
</svg>
