<svg width="332" height="330" viewBox="0 0 332 330" fill="none" xmlns="http://www.w3.org/2000/svg">
<path d="M166.467 330C257.594 330 331.467 256.127 331.467 165C331.467 73.873 257.594 0 166.467 0C75.3399 0 1.46692 73.873 1.46692 165C1.46692 256.127 75.3399 330 166.467 330Z" fill="#F2F2F2"/>
<path d="M161.394 261.899H307.175V84.5737L161.394 84.5737L161.394 261.899Z" fill="white"/>
<path d="M161.449 234.001L307.23 234.001V207.263L161.449 207.263V234.001Z" fill="#F7F1EB"/>
<path d="M256.069 146.431H212.61C212.39 146.431 212.212 146.254 212.212 146.034C212.212 145.814 212.39 145.636 212.61 145.636H256.069C256.289 145.636 256.467 145.814 256.467 146.034C256.467 146.254 256.289 146.431 256.069 146.431Z" fill="#8B865C"/>
<path d="M271.27 155.576H211.631C211.412 155.576 211.234 155.398 211.234 155.178C211.234 154.958 211.412 154.78 211.631 154.78H271.27C271.489 154.78 271.667 154.958 271.667 155.178C271.667 155.398 271.489 155.576 271.27 155.576Z" fill="#AAAAAA"/>
<path d="M206.86 155.576H197.409C197.189 155.576 197.011 155.398 197.011 155.178C197.011 154.958 197.189 154.78 197.409 154.78H206.86C207.08 154.78 207.258 154.958 207.258 155.178C207.258 155.398 207.08 155.576 206.86 155.576Z" fill="#AAAAAA"/>
<path d="M271.27 163.329H254.55C254.33 163.329 254.152 163.151 254.152 162.931C254.152 162.712 254.33 162.534 254.55 162.534H271.27C271.489 162.534 271.667 162.712 271.667 162.931C271.667 163.151 271.489 163.329 271.27 163.329Z" fill="#AAAAAA"/>
<path d="M241.451 163.329H197.409C197.19 163.329 197.012 163.151 197.012 162.931C197.012 162.712 197.19 162.534 197.409 162.534H241.451C241.67 162.534 241.848 162.712 241.848 162.931C241.848 163.151 241.67 163.329 241.451 163.329Z" fill="#AAAAAA"/>
<path d="M271.27 171.082H217.198C216.978 171.082 216.8 170.904 216.8 170.684C216.8 170.464 216.978 170.287 217.198 170.287H271.27C271.49 170.287 271.668 170.464 271.668 170.684C271.668 170.904 271.49 171.082 271.27 171.082Z" fill="#AAAAAA"/>
<path d="M207.854 171.082H197.409C197.189 171.082 197.011 170.904 197.011 170.684C197.011 170.464 197.189 170.287 197.409 170.287H207.854C208.074 170.287 208.252 170.464 208.252 170.684C208.252 170.904 208.074 171.082 207.854 171.082Z" fill="#AAAAAA"/>
<path d="M303.264 43.3938C309.639 37.0188 309.639 26.6828 303.264 20.3078C296.889 13.9328 286.553 13.9328 280.178 20.3078C273.803 26.6828 273.803 37.0188 280.178 43.3938C286.553 49.7689 296.889 49.7689 303.264 43.3938Z" fill="#007BFF"/>
<path d="M248.53 48.1547C257.529 47.5948 264.37 39.8461 263.81 30.8475C263.25 21.8489 255.501 15.0079 246.503 15.5678C237.504 16.1277 230.663 23.8764 231.223 32.875C231.783 41.8736 239.532 48.7146 248.53 48.1547Z" fill="#AAAAAA"/>
<path d="M214.84 43.3931C221.216 37.0181 221.216 26.6821 214.84 20.3071C208.465 13.932 198.129 13.932 191.754 20.3071C185.379 26.6821 185.379 37.0181 191.754 43.3931C198.129 49.7682 208.465 49.7682 214.84 43.3931Z" fill="#E16A4B"/>
<path d="M170.629 43.3926C177.004 37.0176 177.004 26.6816 170.629 20.3066C164.254 13.9315 153.918 13.9316 147.543 20.3066C141.168 26.6816 141.168 37.0176 147.543 43.3926C153.918 49.7677 164.254 49.7677 170.629 43.3926Z" fill="#333333"/>
<path d="M208.416 301.287C208.394 301.287 208.372 301.285 208.351 301.281L158.803 293.06L108.177 301.282C108.061 301.301 107.945 301.268 107.856 301.192C107.767 301.116 107.716 301.005 107.716 300.889V233.842C107.716 233.622 107.894 233.444 108.114 233.444H117.014L119.758 229.158C119.831 229.044 119.957 228.975 120.093 228.975H138.383C138.524 228.975 138.655 229.049 138.726 229.171L141.239 233.444H208.416C208.635 233.444 208.813 233.622 208.813 233.842V300.889C208.813 301.006 208.762 301.117 208.673 301.192C208.601 301.254 208.509 301.287 208.416 301.287ZM108.511 234.239V300.422L158.74 292.264C158.782 292.257 158.826 292.258 158.869 292.265L208.018 300.42V234.24H141.012C140.87 234.24 140.74 234.165 140.669 234.044L138.156 229.77H120.311L117.567 234.056C117.494 234.171 117.368 234.24 117.232 234.24H108.511V234.239Z" fill="#AAAAAA"/>
<path d="M193.498 265.528H124.213C123.993 265.528 123.815 265.351 123.815 265.131V202.046C123.815 201.941 123.857 201.839 123.932 201.764L144.583 181.195C144.657 181.121 144.758 181.08 144.863 181.08H193.498C193.718 181.08 193.896 181.257 193.896 181.477V265.131C193.896 265.351 193.718 265.528 193.498 265.528ZM124.61 264.733H193.101V181.875H145.028L124.61 202.211V264.733Z" fill="#F7F1EB"/>
<path d="M144.863 202.444H127.913C127.694 202.444 127.516 202.266 127.516 202.046C127.516 201.827 127.694 201.649 127.913 201.649H144.466V184.687C144.466 184.467 144.644 184.29 144.863 184.29C145.083 184.29 145.261 184.467 145.261 184.687V202.046C145.261 202.266 145.083 202.444 144.863 202.444Z" fill="white"/>
<path d="M219.756 280.807H150.47C150.251 280.807 150.073 280.629 150.073 280.409V217.325C150.073 217.219 150.115 217.118 150.19 217.043L170.84 196.474C170.915 196.4 171.015 196.358 171.121 196.358H219.756C219.975 196.358 220.153 196.536 220.153 196.756V280.409C220.153 280.629 219.975 280.807 219.756 280.807ZM150.868 280.012H219.358V197.154H171.285L150.868 217.49V280.012Z" fill="#E6D0BE"/>
<path d="M171.121 217.723H154.078C153.858 217.723 153.68 217.545 153.68 217.325C153.68 217.105 153.858 216.927 154.078 216.927H170.723V201.155C170.723 200.935 170.901 200.757 171.121 200.757C171.34 200.757 171.518 200.935 171.518 201.155V217.325C171.518 217.545 171.34 217.723 171.121 217.723Z" fill="white"/>
<path d="M208.35 300.889H108.048L146.758 233.842H155.876L161.317 229.372H179.608L179.656 233.842H247.06L208.35 300.889Z" fill="#AAAAAA"/>
<path d="M216.07 97.3677H142.835V139.127H216.07V97.3677Z" fill="white"/>
<path d="M206.206 122.712C208.346 120.571 208.346 117.1 206.206 114.959C204.065 112.818 200.593 112.818 198.452 114.959C196.312 117.1 196.312 120.571 198.452 122.712C200.593 124.853 204.065 124.853 206.206 122.712Z" fill="#007BFF"/>
<path d="M187.824 124.311C190.846 124.123 193.144 121.521 192.956 118.498C192.768 115.476 190.165 113.179 187.143 113.367C184.121 113.555 181.824 116.157 182.012 119.179C182.2 122.201 184.802 124.499 187.824 124.311Z" fill="#AAAAAA"/>
<path d="M176.51 122.711C178.651 120.571 178.651 117.099 176.51 114.958C174.369 112.817 170.898 112.817 168.757 114.958C166.616 117.099 166.616 120.571 168.757 122.711C170.898 124.852 174.369 124.852 176.51 122.711Z" fill="#E16A4B"/>
<path d="M161.662 122.711C163.803 120.571 163.803 117.099 161.662 114.958C159.521 112.817 156.05 112.817 153.909 114.958C151.768 117.099 151.768 120.571 153.909 122.711C156.05 124.852 159.521 124.852 161.662 122.711Z" fill="#333333"/>
<path d="M216.07 139.525H142.835C142.615 139.525 142.437 139.348 142.437 139.128V122.792C142.437 122.572 142.615 122.394 142.835 122.394C143.055 122.394 143.233 122.572 143.233 122.792V138.73H216.07C216.29 138.73 216.468 138.908 216.468 139.128C216.468 139.348 216.29 139.525 216.07 139.525Z" fill="#8B865C"/>
<path d="M216.07 131.357C215.851 131.357 215.673 131.179 215.673 130.96V97.7655H172.194C171.974 97.7655 171.796 97.5877 171.796 97.3678C171.796 97.148 171.974 96.9702 172.194 96.9702H216.07C216.29 96.9702 216.468 97.148 216.468 97.3678V130.959C216.468 131.179 216.29 131.357 216.07 131.357Z" fill="#F7F1EB"/>
<path d="M109.617 100.347C109.617 100.347 135.621 80.5143 144.646 74.5098C154.125 68.2039 169.037 60.2736 170.119 62.3739C170.736 63.5702 168.926 65.0723 163.821 68.7653C164.266 68.8367 165.559 69.3861 165.95 70.5896C166.527 72.3706 165.216 73.2318 165.136 73.362C165.289 73.3739 167.022 73.6036 167.611 74.7305C168.273 75.9996 167.875 77.1478 167.166 78.0191C167.544 78.0608 169.118 78.5019 169.628 79.6123C170.292 81.0559 169.287 82.4996 168.185 83.2099C166.162 84.5129 160.546 87.9357 157.807 90.1254C152.417 94.434 135.331 112.304 125.896 116.472C125.195 107.571 109.617 100.347 109.617 100.347Z" fill="#FEBBBA"/>
<path d="M151.766 85.0368C151.683 85.0368 151.598 85.0108 151.527 84.9563C151.352 84.824 151.317 84.5746 151.449 84.3995C152.902 82.4763 153.249 80.5365 153.528 78.9776C153.818 77.3557 154.069 75.9553 155.581 75.6671C156.455 75.5005 157.439 74.8495 158.427 73.7839C158.703 73.4857 158.572 73.1611 158.526 73.0691C158.428 72.8755 158.206 72.6829 157.879 72.7177L150.525 73.5405C150.303 73.5607 150.109 73.4078 150.085 73.1896C150.061 72.9714 150.218 72.7745 150.436 72.7501L157.791 71.9273C158.394 71.8593 158.961 72.1673 159.236 72.7108C159.508 73.2498 159.419 73.8829 159.01 74.3244C157.891 75.5322 156.787 76.2467 155.73 76.4483C154.797 76.6257 154.611 77.4403 154.311 79.1177C154.032 80.6735 153.651 82.8036 152.084 84.8784C152.005 84.9825 151.886 85.0368 151.766 85.0368Z" fill="#363E44"/>
<path d="M163.942 84.644C163.812 84.644 163.684 84.5799 163.608 84.4627C162.687 83.0421 162.762 81.2347 163.679 79.9033L163.533 79.971C162.321 80.5309 160.883 80.146 160.114 79.0554C159.681 78.4412 159.518 77.6961 159.656 76.9573C159.793 76.2183 160.213 75.5812 160.838 75.1639L161.389 74.7963C160.711 74.6888 160.087 74.2814 159.735 73.6407C159.174 72.6192 159.469 71.3417 160.422 70.6693L162.637 69.1073C162.816 68.981 163.064 69.0234 163.191 69.2032C163.317 69.3826 163.274 69.6308 163.095 69.7574L160.88 71.3194C160.259 71.7577 160.066 72.5914 160.432 73.2581C160.821 73.9662 161.719 74.2362 162.434 73.8625L164.089 72.9959C164.277 72.898 164.508 72.9632 164.616 73.1454C164.724 73.3271 164.671 73.5612 164.495 73.6788L161.279 75.8256C160.834 76.1226 160.535 76.5765 160.437 77.1027C160.339 77.6292 160.455 78.1599 160.764 78.5976C161.312 79.3746 162.336 79.6491 163.199 79.2498L165.835 78.0306C166.019 77.9444 166.238 78.0124 166.343 78.1871C166.447 78.3615 166.403 78.5868 166.241 78.709L165.061 79.5978C163.682 80.6353 163.337 82.5825 164.275 84.0308C164.395 84.2153 164.342 84.4615 164.158 84.5807C164.091 84.6234 164.016 84.644 163.942 84.644Z" fill="#363E44"/>
<path d="M138.327 76.5569L150.934 98.6519L130.404 115.244C125.217 119.436 117.96 119.935 112.247 116.492L80.4088 104.665L85.7768 70.9526C96.4807 73.8069 108.473 81.1563 120.81 89.7049L138.327 76.5569Z" fill="#007BFF"/>
<path d="M167.165 78.0191C167.875 77.148 168.273 75.9997 167.61 74.7305C167.022 73.6038 165.289 73.3741 165.136 73.3622C165.215 73.2318 166.526 72.3706 165.949 70.5896C165.559 69.3861 164.266 68.8367 163.821 68.7654C168.926 65.0723 170.736 63.5704 170.119 62.3739C169.037 60.2736 154.125 68.2039 144.647 74.5098C143.991 74.9464 143.243 75.4578 142.423 76.0274C146.268 81.8967 150.007 87.8355 153.606 93.8584C155.339 92.2504 156.784 90.9431 157.807 90.1255C160.546 87.9357 166.162 84.5129 168.185 83.2099C169.287 82.4996 170.292 81.056 169.628 79.6123C169.118 78.5019 167.544 78.0606 167.165 78.0191Z" fill="#FEBBBA"/>
<path d="M151.766 85.0363C151.683 85.0363 151.598 85.0103 151.527 84.9558C151.352 84.8235 151.317 84.5741 151.449 84.399C152.902 82.4758 153.249 80.536 153.528 78.9771C153.818 77.3552 154.069 75.9548 155.581 75.6666C156.455 75.5 157.439 74.849 158.427 73.7835C158.703 73.4852 158.572 73.1606 158.526 73.0686C158.428 72.875 158.206 72.6824 157.879 72.7172L150.525 73.54C150.303 73.5602 150.109 73.4073 150.085 73.1891C150.061 72.9709 150.218 72.774 150.436 72.7496L157.791 71.9268C158.394 71.8588 158.961 72.1668 159.236 72.7103C159.508 73.2493 159.419 73.8825 159.01 74.3239C157.891 75.5317 156.787 76.2462 155.73 76.4478C154.797 76.6252 154.611 77.4398 154.311 79.1172C154.032 80.6731 153.651 82.8031 152.084 84.878C152.005 84.982 151.886 85.0363 151.766 85.0363Z" fill="#363E44"/>
<path d="M163.942 84.644C163.812 84.644 163.684 84.5799 163.608 84.4627C162.687 83.0421 162.762 81.2347 163.679 79.9033L163.533 79.971C162.321 80.5309 160.883 80.146 160.114 79.0554C159.681 78.4412 159.518 77.6961 159.656 76.9573C159.793 76.2183 160.213 75.5812 160.838 75.1639L161.389 74.7963C160.711 74.6888 160.087 74.2814 159.735 73.6407C159.174 72.6192 159.469 71.3417 160.422 70.6693L162.637 69.1073C162.816 68.981 163.064 69.0234 163.191 69.2032C163.317 69.3826 163.274 69.6308 163.095 69.7574L160.88 71.3194C160.259 71.7577 160.066 72.5914 160.432 73.2581C160.821 73.9662 161.719 74.2362 162.434 73.8625L164.089 72.9959C164.277 72.898 164.508 72.9632 164.616 73.1454C164.724 73.3271 164.671 73.5612 164.495 73.6788L161.279 75.8256C160.834 76.1226 160.535 76.5765 160.437 77.1027C160.339 77.6292 160.455 78.1599 160.764 78.5976C161.312 79.3746 162.336 79.6491 163.199 79.2498L165.835 78.0306C166.019 77.9444 166.238 78.0124 166.343 78.1871C166.447 78.3615 166.403 78.5868 166.241 78.709L165.061 79.5978C163.682 80.6353 163.337 82.5825 164.275 84.0308C164.395 84.2153 164.342 84.4615 164.158 84.5807C164.091 84.6234 164.016 84.644 163.942 84.644Z" fill="#363E44"/>
<path d="M36.5173 73.1901C34.3959 73.8552 25.4683 161.577 25.4683 161.577L30.9318 175.804H46.3214H101.685L109.685 161.577L102.419 105.193C102.419 105.193 88.026 75.5449 85.7768 70.9528C85.7768 70.9528 53.5823 67.8396 36.5173 73.1901Z" fill="#007BFF"/>
<path d="M54.6651 128.49C54.6209 128.49 54.5758 128.483 54.5316 128.467C54.3246 128.394 54.2168 128.166 54.2905 127.959L66.4593 93.7933C66.5157 93.635 66.6656 93.5293 66.8338 93.5293C66.8349 93.5293 66.8361 93.5293 66.8372 93.5293L93.5146 93.7626C93.7342 93.7646 93.9106 93.9439 93.9086 94.1637C93.9066 94.3819 93.729 94.5577 93.511 94.5577C93.5099 94.5577 93.5086 94.5577 93.5075 94.5577L67.1131 94.3267L55.0394 128.226C54.9817 128.389 54.8285 128.49 54.6651 128.49Z" fill="white"/>
<path d="M83.3473 130.426H56.6699L68.8384 96.2598H95.5158L83.3473 130.426Z" fill="#E16A4B"/>
<path d="M4.08878 132.468C4.08878 132.468 19.632 141.091 27.8603 128.021L39.6857 102.966L36.8044 73.127L36.5173 73.1903C29.0153 74.8433 22.3668 79.1595 17.8036 85.3391C17.8036 85.3391 11.5805 94.8291 9.63008 98.0696C5.13811 105.532 -5.96919 125.325 4.08878 132.468Z" fill="#007BFF"/>
<path d="M17.1837 111.75C26.3107 112.361 47.8754 112.734 49.9789 112.855C53.9113 113.08 74.9835 114.834 75.0601 117.902C75.0967 119.368 71.0219 119.214 69.6458 119.121C70.7204 119.744 75.1061 121.687 74.7193 123.285C74.2651 125.162 68.6846 123.647 68.5828 123.678C69.7381 124.199 74.4245 126.09 74.1812 127.299C73.8648 128.872 68.9773 128.421 67.5206 128.218C67.6458 128.438 72.355 129.585 72.0575 131.476C71.8389 132.865 67.3558 132.444 65.4104 132.267C61.9166 132.07 21.1567 131.977 13.5837 130.993C10.6191 130.607 13.1741 114.609 17.1837 111.75Z" fill="#FEBBBA"/>
<path d="M22.3102 112.202C22.3043 112.202 22.2982 112.202 22.2922 112.202C18.1459 112.018 14.1306 111.838 12.8363 111.766C12.6173 111.753 12.4492 111.566 12.4614 111.347C12.4737 111.128 12.6636 110.965 12.8805 110.972C14.1708 111.044 18.1834 111.223 22.3274 111.407C22.5466 111.417 22.7167 111.603 22.707 111.822C22.6976 112.035 22.5218 112.202 22.3102 112.202Z" fill="#363E44"/>
<path d="M69.7026 119.376C69.6501 119.376 69.5967 119.366 69.5455 119.344C68.8055 119.025 68.0367 118.755 67.2606 118.542C65.8668 118.159 64.4213 117.948 62.9645 117.915C62.7448 117.91 62.571 117.728 62.576 117.509C62.5807 117.289 62.763 117.129 62.9823 117.12C64.5045 117.154 66.0149 117.375 67.4716 117.776C68.2829 117.999 69.0866 118.281 69.8602 118.613C70.062 118.7 70.1549 118.934 70.0681 119.136C70.0034 119.286 69.8566 119.376 69.7026 119.376Z" fill="#363E44"/>
<path d="M68.6674 123.979C68.6286 123.979 68.5893 123.974 68.5503 123.962C68.3887 123.912 68.2236 123.864 68.055 123.818C66.6621 123.434 65.2166 123.223 63.7583 123.191C63.5386 123.186 63.3648 123.003 63.3699 122.784C63.3747 122.565 63.5554 122.402 63.7761 122.396C65.2997 122.43 66.8102 122.65 68.2656 123.051C68.4419 123.099 68.6149 123.149 68.7842 123.201C68.9941 123.266 69.1119 123.488 69.0475 123.698C68.9946 123.869 68.8372 123.979 68.6674 123.979Z" fill="#363E44"/>
<path d="M67.4285 128.568C67.4047 128.568 67.3803 128.566 67.3558 128.562C66.4257 128.39 65.4725 128.292 64.5229 128.271C64.3032 128.266 64.1292 128.084 64.1343 127.864C64.1391 127.645 64.3341 127.457 64.5404 127.476C65.5327 127.498 66.5287 127.6 67.5003 127.78C67.7163 127.82 67.8588 128.027 67.8191 128.243C67.7837 128.434 67.6166 128.568 67.4285 128.568Z" fill="#363E44"/>
<path d="M53.6449 77.0575L65.7691 75.0956L70.542 58.5023L59.8655 55.4312L53.6449 77.0575Z" fill="#FEBBBA"/>
<path d="M48.6205 74.7599C48.7175 76.9897 54.1275 78.5652 60.7039 78.279C67.2804 77.9927 72.5328 75.9532 72.4358 73.7234C72.3388 71.4937 66.9288 69.9181 60.3524 70.2045C53.776 70.4905 48.5233 72.5302 48.6205 74.7599Z" fill="#FEBBBA"/>
<path d="M77.2289 59.2939C76.2914 62.2442 67.6683 62.6469 67.6683 62.6469L59.276 58.2857C56.6557 54.807 57.3516 49.8629 60.8303 47.2426C64.309 44.6224 69.253 45.3183 71.8734 48.7968C71.8734 48.7968 78.184 56.2889 77.2289 59.2939Z" fill="#FEBBBA"/>
<path d="M72.397 50.9978C72.397 50.9978 75.5579 51.518 75.8319 52.0776C76.159 52.7453 74.4592 54.5836 74.4592 54.5836C74.4592 54.5836 72.4473 50.9669 72.397 50.9978Z" fill="#FEBBBA"/>
<path d="M66.5099 55.0101C66.5099 55.0101 67.1371 53.6486 68.4084 52.6913C68.6789 52.4875 69.7987 55.0361 69.4498 55.107C67.915 55.4182 66.5099 55.0101 66.5099 55.0101Z" fill="white"/>
<mask id="mask0_32_1927" style="mask-type:luminance" maskUnits="userSpaceOnUse" x="66" y="51" width="8" height="5">
<path d="M66.5099 55.01C66.5099 55.01 67.4324 53.0077 69.3073 52.1518C71.1822 51.2962 73.2994 51.9111 73.2994 51.9111C73.2994 51.9111 72.3768 53.9135 70.5018 54.7693C68.6269 55.625 66.5099 55.01 66.5099 55.01Z" fill="white"/>
</mask>
<g mask="url(#mask0_32_1927)">
<path d="M68.4202 52.5948C68.6278 51.1208 69.9907 50.094 71.4647 50.3016C72.9387 50.5091 73.9655 51.8722 73.7579 53.3462C73.5505 54.8202 72.1874 55.8468 70.7134 55.6395C69.2394 55.4319 68.2127 54.0688 68.4202 52.5948Z" fill="#363E44"/>
</g>
<path d="M73.0619 57.4689C72.5318 57.4689 72.0283 57.182 71.7585 56.7187C71.648 56.5292 71.7124 56.2858 71.9021 56.1752C72.0925 56.065 72.3352 56.129 72.4459 56.3189C72.5817 56.5519 72.8445 56.6964 73.1085 56.6718C73.3847 56.6529 73.6262 56.4704 73.7236 56.2071C73.8 56.0014 74.0292 55.8973 74.2344 55.9718C74.4404 56.0483 74.5457 56.2766 74.4696 56.4829C74.2642 57.0384 73.7519 57.424 73.164 57.4651C73.1297 57.4676 73.0957 57.4689 73.0619 57.4689Z" fill="#363E44"/>
<path d="M67.7498 63.1533C67.5388 63.1533 67.363 62.9876 67.3529 62.7743C67.3426 62.555 67.5121 62.3689 67.7314 62.3585C67.7806 62.3561 72.6924 62.1116 75.3802 60.7483C75.5764 60.6473 75.8151 60.7277 75.9146 60.923C76.0138 61.1187 75.9356 61.358 75.7397 61.4574C72.8992 62.8982 67.9768 63.1432 67.7687 63.153C67.7624 63.1533 67.7561 63.1533 67.7498 63.1533Z" fill="#363E44"/>
<path d="M67.4682 47.0694C68.7435 46.6168 69.641 45.4632 69.7555 44.1147C69.96 41.7068 69.9308 38.0151 68.126 36.4154C67.7823 36.1109 67.4832 35.9648 67.0663 35.8965C64.7438 35.5169 63.9554 39.8366 59.9036 42.8551C55.9994 45.7638 52.3546 45.0129 51.4093 47.8226C50.9936 49.058 51.3617 50.243 51.4401 50.5337C52.4758 54.3737 56.1835 55.0264 56.1835 55.0264C56.1835 55.0264 53.722 54.8085 53.8719 58.0775C54.0221 61.3465 63.8775 58.5621 63.8775 58.5621L64.6773 57.0143L62.5312 54.2574C60.8992 52.1606 61.7987 49.0817 64.3026 48.193L67.4682 47.0694Z" fill="#363E44"/>
<path d="M58.073 59.2313C58.4353 60.6891 59.9108 61.5772 61.3685 61.2151C62.8263 60.853 63.7146 59.3776 63.3523 57.9196C62.99 56.4618 61.5148 55.5737 60.0568 55.9358C58.5991 56.2979 57.7109 57.7734 58.073 59.2313Z" fill="#FEBBBA"/>
<path d="M25.9364 330H60.6798C60.6798 330 57.5176 302.037 46.3313 295.546H36.3051C36.3051 295.546 26.9013 311.282 25.9364 330Z" fill="#E6D0BE"/>
<path d="M32.3719 279.84C32.5321 280.357 34.3186 291.101 35.4281 297.817C35.9356 300.889 38.5913 303.141 41.7045 303.141C45.218 303.141 48.0661 300.293 48.0661 296.779V281.597L32.3719 279.84Z" fill="#FEBBBA"/>
<path d="M72.648 294.579C72.648 294.579 70.0062 311.886 71.0319 330H124.025C124.025 330 118.713 305.335 89.575 294.579H72.648Z" fill="#E6D0BE"/>
<path d="M74.788 280.326C74.535 280.745 73.6797 287.632 72.968 293.685C72.3943 298.563 76.2274 302.838 81.139 302.798C84.7901 302.769 87.9768 300.317 88.9423 296.796L94.5545 276.326L74.788 280.326Z" fill="#FEBBBA"/>
<path d="M38.7794 145.405C30.7209 171.788 15.214 234.262 31.1852 282.843H51.6281C51.6281 282.843 64.7648 194.806 66.2985 179.325H69.2813C69.2813 179.325 70.5748 236.772 72.648 281.596H95.57C95.57 281.596 115.72 212.398 97.6638 145.405L90.9131 139.678H48.032L38.7794 145.405Z" fill="#333333"/>
<path d="M254.437 115.575C266.244 115.575 275.815 106.004 275.815 94.197C275.815 82.3905 266.244 72.8193 254.437 72.8193C242.63 72.8193 233.059 82.3905 233.059 94.197C233.059 106.004 242.63 115.575 254.437 115.575Z" fill="#007BFF"/>
<path d="M256.727 134.212H293.571V97.368H256.727V134.212Z" fill="#363E44"/>
<path d="M299.179 231.585C301.743 229.021 301.743 224.863 299.179 222.299C296.615 219.735 292.458 219.735 289.893 222.299C287.329 224.863 287.329 229.021 289.893 231.585C292.458 234.149 296.615 234.149 299.179 231.585Z" fill="#007BFF"/>
<path d="M277.164 233.5C280.783 233.275 283.535 230.158 283.31 226.538C283.085 222.919 279.968 220.167 276.349 220.393C272.729 220.618 269.977 223.734 270.203 227.354C270.428 230.973 273.545 233.725 277.164 233.5Z" fill="#AAAAAA"/>
<path d="M263.613 231.584C266.177 229.02 266.177 224.863 263.613 222.299C261.049 219.734 256.892 219.734 254.327 222.299C251.763 224.863 251.763 229.02 254.327 231.584C256.892 234.149 261.049 234.149 263.613 231.584Z" fill="#E16A4B"/>
<path d="M245.83 231.584C248.394 229.02 248.394 224.863 245.83 222.299C243.266 219.734 239.108 219.734 236.544 222.299C233.98 224.863 233.98 229.02 236.544 231.584C239.108 234.149 243.266 234.149 245.83 231.584Z" fill="#333333"/>
</svg>
