<svg width="365" height="330" viewBox="0 0 365 330" fill="none" xmlns="http://www.w3.org/2000/svg">
<path d="M320.757 280.859C311.352 289.76 309.38 291.042 302.937 294.992C240.098 333.517 149.174 324.206 126.965 320.41C91.1345 314.287 73.538 312.126 47.5512 290.569C-11.4987 241.584 -8.62658 139.4 36.4947 76.1008C41.8447 68.5953 86.1103 10.36 158.097 1.71973C159.858 1.50836 243.255 -8.60312 299.525 34.6826C307.58 40.8787 320.542 52.055 332.563 69.1006C376.515 131.427 376.654 227.957 320.757 280.859Z" fill="#F2F2F2"/>
<path d="M154.886 248.93L147.704 313.342H231.03L220.176 248.93H154.886Z" fill="#333333"/>
<path d="M0 91.7056V252.457C0 265.681 10.5379 276.495 23.7575 276.836C82.4718 278.35 287.826 282.021 343.718 281.197C353.324 281.056 361.106 273.368 361.384 263.765C362.461 226.42 364.212 136.619 357.734 94.9272C356.37 86.1474 348.959 79.5821 340.079 79.298C290.883 77.7243 73.1945 72.727 17.3285 73.9817C7.69362 74.1979 0 82.0682 0 91.7056Z" fill="#333333"/>
<path d="M10.0869 90.9231V243.648C10.0869 251.369 16.2848 257.66 24.0047 257.776L335.677 261.626C343.331 261.741 349.605 255.583 349.634 247.928L350.155 96.5677C350.175 91.0944 345.815 86.6097 340.343 86.4767L21.2482 80.0301C15.1284 79.8813 10.0869 84.8017 10.0869 90.9231Z" fill="#FDF53F"/>
<path d="M351.98 267.86C351.977 267.86 351.975 267.86 351.973 267.86L10.0797 262.034C9.85515 262.03 9.67616 261.845 9.67999 261.621C9.68369 261.396 9.85975 261.232 10.0936 261.221L351.987 267.046C352.211 267.05 352.39 267.235 352.386 267.46C352.383 267.682 352.201 267.86 351.98 267.86Z" fill="#C1D5FF"/>
<path d="M10.0869 90.9231V243.648C10.0869 251.369 16.2848 257.66 24.0047 257.776L335.677 261.626C343.331 261.741 349.605 255.583 349.634 247.928L350.155 96.5677C350.175 91.0944 345.815 86.6097 340.343 86.4767L21.2482 80.0301C15.1284 79.8813 10.0869 84.8017 10.0869 90.9231Z" fill="#AAAAAA"/>
<path d="M184.406 274.974C182.22 274.974 180.442 273.196 180.442 271.01C180.442 268.824 182.22 267.046 184.406 267.046C186.592 267.046 188.37 268.824 188.37 271.01C188.37 273.196 186.592 274.974 184.406 274.974ZM184.406 267.86C182.669 267.86 181.255 269.273 181.255 271.01C181.255 272.748 182.669 274.161 184.406 274.161C186.143 274.161 187.556 272.748 187.556 271.01C187.556 269.273 186.143 267.86 184.406 267.86Z" fill="#C1D5FF"/>
<path d="M248.978 326.521H127.025C123.712 326.521 121.224 324.163 121.865 321.629L123.43 315.44C123.9 313.579 125.948 312.213 128.38 312.137L245.947 308.468C248.487 308.389 250.737 309.738 251.29 311.672L254.112 321.529C254.844 324.09 252.345 326.521 248.978 326.521Z" fill="#333333"/>
<path d="M192.675 313.823C192.453 313.823 192.271 313.644 192.268 313.422C192.265 313.197 192.444 313.012 192.669 313.009L197.707 312.936C197.925 312.929 198.116 313.112 198.119 313.336C198.123 313.561 197.943 313.746 197.719 313.749L192.681 313.823H192.675Z" fill="#C1D5FF"/>
<path d="M126.38 323.119C126.359 323.119 126.337 323.117 126.315 323.113C126.093 323.078 125.942 322.869 125.978 322.648L126.697 318.147C127.084 315.723 129.145 313.938 131.599 313.902L185.034 313.121C185.263 313.137 185.443 313.297 185.446 313.522C185.449 313.747 185.27 313.931 185.045 313.934L131.611 314.716C129.553 314.746 127.824 316.243 127.5 318.275L126.781 322.776C126.749 322.976 126.576 323.119 126.38 323.119Z" fill="#C1D5FF"/>
<path opacity="0.5" d="M312.539 257.797L43.4425 254.696C35.6162 254.606 29.3179 248.048 29.3179 239.988V140.602C29.3179 132.386 35.8534 125.763 43.831 125.895L312.927 130.331C320.726 130.459 326.983 137.006 326.983 145.037V243.089C326.983 251.277 320.49 257.889 312.539 257.797Z" fill="white"/>
<path opacity="0.78" d="M320.356 123.287L36.2123 120.553C32.6333 120.519 29.7566 118.385 29.7566 115.764V105.989C29.7566 103.315 32.7478 101.158 36.4001 101.2L320.544 104.438C324.116 104.479 326.983 106.611 326.983 109.228V118.497C326.983 121.168 324.002 123.322 320.356 123.287Z" fill="white"/>
<path opacity="0.78" d="M217.116 244.355L55.6246 242.104C48.9433 242.011 43.568 236.583 43.5397 229.901L43.2036 150.045C43.175 143.257 48.6704 137.738 55.4593 137.738H217.286C224.055 137.738 229.542 143.225 229.542 149.994V232.101C229.542 238.936 223.951 244.451 217.116 244.355Z" fill="white"/>
<path opacity="0.78" d="M312.29 188.491H245.911C242.199 188.491 239.191 185.483 239.191 181.771V144.607C239.191 140.838 242.29 137.806 246.058 137.889L312.437 139.348C316.09 139.428 319.01 142.412 319.01 146.066V181.771C319.01 185.483 316.001 188.491 312.29 188.491Z" fill="white"/>
<path opacity="0.78" d="M312.575 243.6H245.625C242.071 243.6 239.191 240.719 239.191 237.166V199.281C239.191 195.727 242.071 192.847 245.625 192.847H312.575C316.129 192.847 319.01 195.727 319.01 199.281V237.166C319.01 240.719 316.129 243.6 312.575 243.6Z" fill="white"/>
<path d="M19.8551 319.551C19.8551 319.551 18.3072 321.991 17.918 328.821C17.8817 329.458 18.3859 330 19.0233 330H31.1285C31.6155 330 31.9632 329.522 31.8072 329.061C31.0978 326.961 28.953 321.843 24.1674 318.918L19.8551 319.551Z" fill="#333333"/>
<path d="M19.3287 314.923L20.0134 320.663C20.0725 321.159 20.4606 321.555 20.9562 321.612C21.6183 321.689 22.5807 321.742 23.5158 321.588C24.366 321.448 24.9778 320.691 24.9778 319.829V314.286L19.3287 314.923Z" fill="#FEBBBA"/>
<path d="M49.8053 318.918C49.8053 318.918 47.4884 322.519 47.5379 327.463C47.5495 328.627 48.5244 329.554 49.6888 329.554H68.4894C69.3696 329.554 69.7271 328.423 69.0067 327.917C65.4491 325.419 58.4566 320.752 53.3992 318.918H49.8053Z" fill="#333333"/>
<path d="M47.8689 312.718L49.3293 319.808C49.4927 320.601 50.2684 321.134 51.0587 320.958C51.5391 320.851 52.1059 320.646 52.7114 320.267C53.287 319.907 53.5787 319.222 53.4611 318.554L51.9505 309.964L47.8689 312.718Z" fill="#FEBBBA"/>
<path d="M22.0112 214.139C22.0112 214.139 16.9334 218.616 15.9779 224.002C15.0222 229.388 18.6854 316.928 18.6854 316.928C18.6854 316.928 23.7629 317.773 26.3804 316.187C26.3804 316.187 29.4849 259.374 31.8445 246.246C31.8445 246.246 44.2197 305.097 47.6486 315.73C47.6486 315.73 52.5403 316.325 54.1179 315.394C54.1179 315.394 50.8762 239.107 46.8029 225.544L22.0112 214.139Z" fill="#333333"/>
<path d="M31.6964 244.399C31.4515 244.399 31.228 244.235 31.1636 243.987L29.0613 235.922L24.5829 233.049C24.3268 232.884 24.2521 232.543 24.4165 232.287C24.581 232.031 24.9211 231.956 25.1782 232.121L29.8381 235.11C29.9546 235.185 30.0391 235.301 30.0737 235.435L32.2303 243.709C32.3074 244.004 32.1307 244.305 31.8361 244.381C31.7892 244.393 31.7427 244.399 31.6964 244.399Z" fill="#333333"/>
<path d="M72.1203 163.556C50.7446 161.782 45.1578 166.205 45.1578 166.205L55.4302 182.422C55.4302 182.422 76.4339 182.007 91.484 170.408C88.6672 167.374 86.7111 164.022 85.4565 161.412C81.5756 163.024 77.1065 163.97 72.1203 163.556Z" fill="#007BFF"/>
<path d="M105.594 132.179C105.566 131.495 104.637 131.308 104.346 131.929L101.619 137.749C101.092 138.874 100.923 140.133 101.135 141.357L102.091 144.744C102.378 146.397 101.946 148.089 100.899 149.399C98.3927 152.532 93.0551 158.254 85.4564 161.411C86.711 164.022 88.6671 167.374 91.4839 170.407C97.006 166.151 101.728 160.391 104.315 152.591C105.554 152.21 106.383 151.043 106.333 149.747L105.594 132.179Z" fill="#FEBBBA"/>
<path d="M79.1564 172.958C71.6313 164.85 57.2979 161.186 48.9991 159.681C45.3634 159.022 41.7795 161.045 40.4914 164.508C36.7568 174.547 26.5998 200.665 24.6311 205.154C23.016 208.837 21.3295 212.434 20.2579 214.682C19.6176 216.026 20.1771 217.633 21.5177 218.279C28.4997 221.645 41.0632 225.452 46.1565 226.938C47.2769 227.265 48.3924 226.423 48.3924 225.256C48.3924 224.267 48.6614 223.295 49.1707 222.447L68.4606 190.302C80.4837 203.633 91.0128 204.852 99.1013 201.934C97.7412 197.731 96.8513 193.52 96.4245 189.301C84.4753 187.254 79.1564 172.958 79.1564 172.958Z" fill="#007BFF"/>
<path d="M116.175 187.064L114.018 184.188C107.037 188.983 101.201 190.12 96.4244 189.301C96.8512 193.52 97.7412 197.731 99.1012 201.934C109.757 198.09 116.175 187.064 116.175 187.064Z" fill="#FEBBBA"/>
<path d="M114.655 187.116L126.803 187.59L137.989 181.342C136.384 180.336 127.304 182.393 127.304 182.393C127.304 182.393 117.812 180.958 115.243 180.954C113.11 180.951 113.415 184.02 113.579 185.059C113.613 185.272 113.64 185.399 113.64 185.399L114.655 187.116Z" fill="#FEBBBA"/>
<path d="M60.4137 144.79L54.0037 160.432C54.0037 160.432 61.3688 165.53 67.2943 165.044L70.4934 150.979L60.4137 144.79Z" fill="#FEBBBA"/>
<path d="M71.2417 134.126C71.3885 134.334 75.879 150.557 75.879 150.557L66.5619 152.924L60.0215 138.181C60.0215 138.181 68.7838 130.644 71.2417 134.126Z" fill="#FEBBBA"/>
<path d="M63.53 140.42L66.3653 148.451C66.4016 148.554 66.4503 148.649 66.5132 148.739C66.898 149.285 68.3595 151.069 70.0934 149.462C71.6665 148.004 73.124 146.697 74.47 146.46C75.0742 146.354 75.6596 146.722 75.8232 147.314C76.2309 148.788 77.0879 152.126 77.39 155.141C77.4513 155.752 77.0289 156.305 76.4251 156.42C74.6053 156.765 70.7469 157.387 67.5258 157.16C67.0893 157.129 66.7052 156.867 66.5232 156.469C65.6355 154.529 62.9157 148.644 61.9041 147.121C60.9546 145.692 58.627 145.732 57.6508 145.819C57.3309 145.847 57.0162 145.744 56.7745 145.532C55.9205 144.783 54.2952 142.872 56.5815 140.585C57.06 140.106 57.0471 139.333 56.5539 138.87C55.5721 137.947 54.5221 136.309 56.1579 134.279C57.8205 132.215 60.0153 132.543 61.3599 133.034C61.9038 133.232 62.4968 133.003 62.7924 132.505C62.9606 132.222 63.2541 132.007 63.763 132.051C64.4488 132.11 65.0255 131.538 65.0131 130.85C64.9894 129.527 65.4628 127.857 67.7566 127.143C71.8267 125.876 74.3648 129.808 74.6163 132.742C74.8676 135.676 70.3767 136.799 67.736 136.601C65.7282 136.451 64.2374 138.441 63.6383 139.403C63.4483 139.708 63.4104 140.082 63.53 140.42Z" fill="#333333"/>
<path d="M62.9653 150.035C62.9653 150.035 62.3078 144.941 60.1888 144.692C58.0699 144.442 56.0074 146.184 58.1141 149.043C60.7346 152.599 62.9653 150.035 62.9653 150.035Z" fill="#FEBBBA"/>
<path d="M110.86 111.338L234.591 110.558C237.424 110.54 239.725 112.703 239.703 115.364L239.182 179.555C239.161 182.231 236.8 184.366 233.952 184.286L111.56 180.831C108.842 180.754 106.67 178.679 106.635 176.125L105.816 116.169C105.78 113.523 108.043 111.356 110.86 111.338Z" fill="#C1D5FF"/>
<path d="M234.108 180.372L111.687 176.917C111.214 176.904 110.838 176.535 110.831 176.075L110.012 116.119C110.008 115.882 110.099 115.669 110.272 115.502C110.441 115.341 110.653 115.255 110.887 115.254L234.62 114.474C234.859 114.474 235.072 114.557 235.241 114.716C235.417 114.883 235.509 115.097 235.507 115.335L234.987 179.525C234.982 179.992 234.588 180.372 234.108 180.372ZM234.685 115.328L110.893 116.076L111.653 176.063L111.71 176.094L234.119 179.55L234.685 115.328Z" fill="white"/>
<path d="M117.997 124.139C117.997 126.21 119.281 127.888 120.864 127.888H226.102C227.686 127.888 228.969 126.21 228.969 124.139C228.969 122.069 227.686 120.391 226.102 120.391H120.864C119.281 120.391 117.997 122.069 117.997 124.139Z" fill="white"/>
<path d="M118.513 131.845H162.82C164.389 131.845 165.661 133.039 165.661 134.512V168.872C165.661 170.374 164.341 171.58 162.742 171.539L119.341 170.408C117.832 170.369 116.619 169.227 116.58 167.81L115.674 134.581C115.633 133.081 116.916 131.845 118.513 131.845Z" fill="white"/>
<path d="M174.907 132.69H224.365C225.442 132.69 226.314 133.696 226.314 134.938C226.314 136.18 225.442 137.186 224.365 137.186H174.907C173.831 137.186 172.958 136.18 172.958 134.938C172.958 133.696 173.831 132.69 174.907 132.69Z" fill="white"/>
<path d="M172.958 144.564C172.958 145.803 173.829 146.808 174.903 146.808H224.369C225.443 146.808 226.314 145.803 226.314 144.564V143.177C226.314 141.916 225.414 140.903 224.322 140.934L174.856 142.321C173.8 142.35 172.958 143.346 172.958 144.564Z" fill="white"/>
<path d="M273.851 137.775C273.851 137.775 274.661 173.01 311.71 179.189L318.361 172.624C318.361 172.624 286.279 161.716 277.928 138.921L279.712 126.832L278.455 118.831L273.851 137.775Z" fill="#FEBBBA"/>
<path d="M337.183 124.359L190.198 127.957C184.239 128.102 179.148 123.691 178.443 117.772L166.774 19.7174C165.98 13.0433 171.029 7.10268 177.743 6.81032L333.919 0.0111474C340.38 -0.270104 345.813 4.80569 345.971 11.2703L348.45 112.527C348.606 118.905 343.561 124.203 337.183 124.359Z" fill="#007BFF"/>
<path d="M331.226 119.2L195.485 122.523C189.982 122.658 185.282 118.678 184.635 113.335L173.908 24.8209C173.178 18.7963 177.843 13.4307 184.045 13.1634L328.275 6.94612C334.241 6.68887 339.256 11.2684 339.399 17.1042L341.636 108.513C341.777 114.271 337.116 119.056 331.226 119.2Z" fill="#C1D5FF"/>
<path d="M167.955 27.4254L346.482 19.4179L346.283 11.5108C346.125 5.04623 340.686 -0.156591 334.225 0.12466L178.047 6.86026C171.332 7.15262 166.293 13.3158 167.087 19.9898L167.955 27.4254Z" fill="#007BFF"/>
<path d="M235.034 95.0392L194.647 96.8508C193.273 96.9124 191.975 93.3762 191.678 88.7673L189.317 52.0732C188.991 47.0173 189.991 42.6771 191.498 42.6096L232.599 40.7659C234.039 40.7013 235.382 44.5771 235.599 49.4225L237.246 86.1487C237.463 90.9942 236.473 94.9746 235.034 95.0392Z" fill="white"/>
<path d="M330.974 44.138L243.165 48.0765C241.689 48.1428 240.439 47 240.373 45.5242L240.323 44.4121C240.257 42.9362 241.4 41.6862 242.876 41.62L330.684 37.6814C332.16 37.6153 333.41 38.7579 333.476 40.2338L333.526 41.3459C333.592 42.8217 332.449 44.0717 330.974 44.138Z" fill="white"/>
<path d="M332.463 67.1074L244.654 71.046C243.178 71.1121 241.929 69.9695 241.862 68.4937L241.812 67.3816C241.746 65.9057 242.889 64.6557 244.365 64.5895L332.173 60.6509C333.649 60.5848 334.899 61.7274 334.965 63.2033L335.015 64.3154C335.081 65.7913 333.938 67.0413 332.463 67.1074Z" fill="white"/>
<path d="M289.493 34.2815L192.11 38.6495C190.634 38.7157 189.384 37.573 189.318 36.0972L189.268 34.9851C189.202 33.5093 190.344 32.2593 191.82 32.193L289.204 27.825C290.68 27.7589 291.93 28.9015 291.996 30.3773L292.046 31.4894C292.112 32.9653 290.969 34.2154 289.493 34.2815Z" fill="white"/>
<path d="M331.479 55.4055L243.671 59.3441C242.195 59.4102 240.945 58.2676 240.879 56.7917L240.829 55.6796C240.763 54.2038 241.906 52.9538 243.381 52.8876L331.19 48.949C332.666 48.8829 333.916 50.0255 333.982 51.5013L334.032 52.6135C334.098 54.0893 332.955 55.3394 331.479 55.4055Z" fill="white"/>
<path d="M333.094 78.9966L245.286 82.9351C243.81 83.0014 242.56 81.8587 242.494 80.3828L242.444 79.2707C242.378 77.7949 243.521 76.5449 244.996 76.4786L332.805 72.5401C334.281 72.4738 335.531 73.6166 335.597 75.0924L335.647 76.2045C335.713 77.6804 334.57 78.9304 333.094 78.9966Z" fill="white"/>
<path d="M334.583 101.966L246.775 105.905C245.299 105.971 244.049 104.828 243.983 103.352L243.933 102.24C243.867 100.764 245.01 99.5144 246.485 99.4481L334.294 95.5096C335.77 95.4434 337.02 96.5861 337.086 98.0619L337.136 99.174C337.202 100.65 336.059 101.9 334.583 101.966Z" fill="white"/>
<path d="M333.6 90.2639L245.792 94.2025C244.316 94.2686 243.066 93.126 242.999 91.6502L242.95 90.538C242.883 89.0622 244.026 87.8122 245.502 87.746L333.31 83.8074C334.786 83.7413 336.036 84.8839 336.102 86.3598L336.152 87.4719C336.218 88.9477 335.076 90.1977 333.6 90.2639Z" fill="white"/>
<path d="M181.403 20.923C183.211 20.923 184.677 19.4574 184.677 17.6494C184.677 15.8414 183.211 14.3757 181.403 14.3757C179.595 14.3757 178.129 15.8414 178.129 17.6494C178.129 19.4574 179.595 20.923 181.403 20.923Z" fill="white"/>
<path d="M194.162 19.3881C195.382 18.0537 195.289 15.983 193.954 14.7631C192.62 13.5433 190.549 13.6362 189.329 14.9707C188.109 16.3052 188.202 18.3758 189.537 19.5957C190.871 20.8155 192.942 20.7226 194.162 19.3881Z" fill="white"/>
<path d="M203.588 19.9277C205.396 19.9277 206.862 18.462 206.862 16.654C206.862 14.846 205.396 13.3804 203.588 13.3804C201.78 13.3804 200.314 14.846 200.314 16.654C200.314 18.462 201.78 19.9277 203.588 19.9277Z" fill="white"/>
<path d="M309.673 258.501C309.673 258.501 327.25 296.812 336.473 312.68C336.473 312.68 338.304 322.664 336.473 325.804L334.912 326.498L342.197 326.281C342.197 326.281 342.844 312.851 342.339 312.101C341.833 311.351 340.822 311.4 340.822 311.4C340.822 311.4 337.699 286.651 328.652 281.369L319.884 251.171L309.673 258.501Z" fill="#FEBBBA"/>
<path d="M331.8 328.378C331.789 328.554 337.489 328.474 340.585 328.417C341.728 328.396 342.703 327.593 342.946 326.476L345.285 314.192C345.507 313.024 344.765 311.891 343.607 311.626L342.302 311.328C342.302 311.328 340.44 313.882 341.026 316.286C341.612 318.691 342.134 324.919 340.653 325.645C339.172 326.371 334.911 326.498 334.911 326.498C334.911 326.498 331.897 326.796 331.8 328.378Z" fill="#333333"/>
<path d="M293.012 328.601C292.436 328.93 292.674 329.81 293.337 329.803C298.518 329.751 310.128 329.587 311.16 329.158C312.492 328.605 310.675 323.818 308.762 322.198L298.201 325.645L293.012 328.601Z" fill="#333333"/>
<path d="M289.734 256.058C289.734 256.058 301.093 311.008 304.307 321.727L296.705 326.498C296.705 326.498 300.514 325.85 303.339 325.645C306.164 325.44 308.762 322.198 308.762 322.198L307.852 320.746C307.852 320.746 305.003 266.094 305.696 259.889L289.734 256.058Z" fill="#FEBBBA"/>
<path d="M261.537 127.885C261.537 127.885 259.97 156.47 285.995 171.076L279.73 185.367C279.73 185.367 256.168 171.115 257.039 132.246C257.064 131.13 256.661 130.047 255.933 129.202L250.925 123.392C249.017 121.179 248.304 118.176 249.014 115.341L249.673 112.706C249.893 111.824 250.898 111.4 251.684 111.857L252.208 112.161C253.875 113.129 255.196 114.597 255.983 116.357L258.442 121.853C259.36 123.907 261.478 125.153 263.719 124.96L265.239 124.828L261.537 127.885Z" fill="#FEBBBA"/>
<path d="M285.09 168.935C289.444 170.142 304.194 174.022 313.402 173.864L307.749 205.769L308.199 210.973L289.765 210.89C289.765 210.89 284.576 198.839 280.481 192.83C279.299 191.095 280.179 189.025 280.849 187.035L279.928 186.422C278.991 185.798 278.585 184.626 278.935 183.556L283.424 169.822C283.657 169.13 284.386 168.739 285.09 168.935Z" fill="#007BFF"/>
<path d="M288.288 208.167L288.65 211.319C288.65 211.319 283.441 226.92 291.255 263.358C291.255 263.358 308.178 268.152 322.088 256.68C322.088 256.68 318.164 222.288 317.092 220.686C311.754 212.707 308.198 210.973 308.198 210.973L308.038 207.528C308.038 207.528 293.161 210.218 288.288 208.167Z" fill="#333333"/>
<path d="M295.503 171.506C295.439 171.42 299.352 159.692 299.352 159.692L304.957 160.2L307.147 173.506C307.147 173.506 298.362 175.279 295.503 171.506Z" fill="#FEBBBA"/>
<path d="M303.615 141.195C303.241 141.428 291.638 146.223 294.131 158.27C294.278 158.982 294.753 159.585 295.417 159.882C297.12 160.641 300.786 161.942 305.17 161.496C311.249 160.878 315.232 150.271 315.063 147.184C314.894 144.097 307.319 138.889 303.615 141.195Z" fill="#FEBBBA"/>
<path d="M307.146 136.512C306.841 136.552 300.441 138.781 303.615 143.419C306.789 148.057 307.98 150.787 306.478 152.824C305.111 154.68 302.081 153.622 302.345 157.482C302.398 158.255 302.064 159.005 301.423 159.439C298.567 161.372 291.601 167.321 298.503 175.805C299.064 176.494 299.18 177.446 298.747 178.223C296.725 181.848 292.479 192.469 307.851 198.361C323.041 204.183 328.526 194.254 330.058 190.285C330.39 189.427 331.235 188.901 332.154 188.945C333.823 189.023 336.188 188.746 336.079 186.515C336.013 185.16 335.168 183.946 334.169 182.973C333.18 182.009 333.376 180.322 334.576 179.64C335.483 179.125 336.285 178.321 336.624 177.066C337.544 173.655 335.707 163.455 325.93 161.727C325.115 161.583 324.261 160.818 324.142 159.998C324.14 159.986 324.138 159.974 324.136 159.962C324.005 159.169 324.273 158.359 324.921 157.884C326.482 156.738 328.484 154.433 326.858 150.736C325.416 147.456 322.65 146.35 320.595 145.998C319.389 145.791 318.596 144.65 318.85 143.453C319.543 140.19 318.939 134.965 307.146 136.512Z" fill="#333333"/>
</svg>
